%TF.GenerationSoftware,KiCad,Pcbnew,(5.1.6)-1*%
%TF.CreationDate,2021-03-09T02:14:13+08:00*%
%TF.ProjectId,matrix-clock,6d617472-6978-42d6-936c-6f636b2e6b69,rev?*%
%TF.SameCoordinates,Original*%
%TF.FileFunction,Soldermask,Top*%
%TF.FilePolarity,Negative*%
%FSLAX46Y46*%
G04 Gerber Fmt 4.6, Leading zero omitted, Abs format (unit mm)*
G04 Created by KiCad (PCBNEW (5.1.6)-1) date 2021-03-09 02:14:13*
%MOMM*%
%LPD*%
G01*
G04 APERTURE LIST*
%ADD10C,0.250000*%
%ADD11O,1.800000X1.800000*%
%ADD12R,1.800000X1.800000*%
%ADD13R,0.500000X1.000000*%
%ADD14C,1.624000*%
%ADD15R,3.450000X3.450000*%
%ADD16R,1.600000X2.100000*%
%ADD17R,3.900000X2.100000*%
%ADD18R,1.000000X2.100000*%
%ADD19R,2.100000X1.000000*%
%ADD20R,5.100000X5.100000*%
%ADD21R,1.000000X0.900000*%
%ADD22R,1.550000X0.700000*%
%ADD23R,1.550000X0.400000*%
%ADD24O,2.200000X1.100000*%
%ADD25C,0.750000*%
%ADD26O,1.700000X1.100000*%
%ADD27R,0.700000X0.550000*%
G04 APERTURE END LIST*
D10*
X134290476Y-108714285D02*
X134623809Y-108714285D01*
X134766666Y-109342857D02*
X134290476Y-109342857D01*
X134290476Y-108142857D01*
X134766666Y-108142857D01*
X135147619Y-109285714D02*
X135290476Y-109342857D01*
X135528571Y-109342857D01*
X135623809Y-109285714D01*
X135671428Y-109228571D01*
X135719047Y-109114285D01*
X135719047Y-109000000D01*
X135671428Y-108885714D01*
X135623809Y-108828571D01*
X135528571Y-108771428D01*
X135338095Y-108714285D01*
X135242857Y-108657142D01*
X135195238Y-108600000D01*
X135147619Y-108485714D01*
X135147619Y-108371428D01*
X135195238Y-108257142D01*
X135242857Y-108200000D01*
X135338095Y-108142857D01*
X135576190Y-108142857D01*
X135719047Y-108200000D01*
X136147619Y-109342857D02*
X136147619Y-108142857D01*
X136528571Y-108142857D01*
X136623809Y-108200000D01*
X136671428Y-108257142D01*
X136719047Y-108371428D01*
X136719047Y-108542857D01*
X136671428Y-108657142D01*
X136623809Y-108714285D01*
X136528571Y-108771428D01*
X136147619Y-108771428D01*
X137052380Y-108142857D02*
X137671428Y-108142857D01*
X137338095Y-108600000D01*
X137480952Y-108600000D01*
X137576190Y-108657142D01*
X137623809Y-108714285D01*
X137671428Y-108828571D01*
X137671428Y-109114285D01*
X137623809Y-109228571D01*
X137576190Y-109285714D01*
X137480952Y-109342857D01*
X137195238Y-109342857D01*
X137100000Y-109285714D01*
X137052380Y-109228571D01*
X138052380Y-108257142D02*
X138100000Y-108200000D01*
X138195238Y-108142857D01*
X138433333Y-108142857D01*
X138528571Y-108200000D01*
X138576190Y-108257142D01*
X138623809Y-108371428D01*
X138623809Y-108485714D01*
X138576190Y-108657142D01*
X138004761Y-109342857D01*
X138623809Y-109342857D01*
X139052380Y-108885714D02*
X139814285Y-108885714D01*
X140766666Y-109342857D02*
X140290476Y-109342857D01*
X140290476Y-108142857D01*
X141480952Y-109285714D02*
X141385714Y-109342857D01*
X141195238Y-109342857D01*
X141100000Y-109285714D01*
X141052380Y-109171428D01*
X141052380Y-108714285D01*
X141100000Y-108600000D01*
X141195238Y-108542857D01*
X141385714Y-108542857D01*
X141480952Y-108600000D01*
X141528571Y-108714285D01*
X141528571Y-108828571D01*
X141052380Y-108942857D01*
X142385714Y-109342857D02*
X142385714Y-108142857D01*
X142385714Y-109285714D02*
X142290476Y-109342857D01*
X142100000Y-109342857D01*
X142004761Y-109285714D01*
X141957142Y-109228571D01*
X141909523Y-109114285D01*
X141909523Y-108771428D01*
X141957142Y-108657142D01*
X142004761Y-108600000D01*
X142100000Y-108542857D01*
X142290476Y-108542857D01*
X142385714Y-108600000D01*
X142861904Y-109342857D02*
X142861904Y-108142857D01*
X143195238Y-109000000D01*
X143528571Y-108142857D01*
X143528571Y-109342857D01*
X144433333Y-109342857D02*
X144433333Y-108714285D01*
X144385714Y-108600000D01*
X144290476Y-108542857D01*
X144100000Y-108542857D01*
X144004761Y-108600000D01*
X144433333Y-109285714D02*
X144338095Y-109342857D01*
X144100000Y-109342857D01*
X144004761Y-109285714D01*
X143957142Y-109171428D01*
X143957142Y-109057142D01*
X144004761Y-108942857D01*
X144100000Y-108885714D01*
X144338095Y-108885714D01*
X144433333Y-108828571D01*
X144766666Y-108542857D02*
X145147619Y-108542857D01*
X144909523Y-108142857D02*
X144909523Y-109171428D01*
X144957142Y-109285714D01*
X145052380Y-109342857D01*
X145147619Y-109342857D01*
X145480952Y-109342857D02*
X145480952Y-108542857D01*
X145480952Y-108771428D02*
X145528571Y-108657142D01*
X145576190Y-108600000D01*
X145671428Y-108542857D01*
X145766666Y-108542857D01*
X146100000Y-109342857D02*
X146100000Y-108542857D01*
X146100000Y-108142857D02*
X146052380Y-108200000D01*
X146100000Y-108257142D01*
X146147619Y-108200000D01*
X146100000Y-108142857D01*
X146100000Y-108257142D01*
X146480952Y-109342857D02*
X147004761Y-108542857D01*
X146480952Y-108542857D02*
X147004761Y-109342857D01*
D11*
%TO.C,J1*%
X143954000Y-115395000D03*
X146494000Y-115395000D03*
X149034000Y-115395000D03*
X151574000Y-115395000D03*
X154114000Y-115395000D03*
D12*
X156654000Y-115395000D03*
%TD*%
%TO.C,C16*%
G36*
G01*
X141147000Y-75827500D02*
X141147000Y-76222500D01*
G75*
G02*
X140974500Y-76395000I-172500J0D01*
G01*
X140629500Y-76395000D01*
G75*
G02*
X140457000Y-76222500I0J172500D01*
G01*
X140457000Y-75827500D01*
G75*
G02*
X140629500Y-75655000I172500J0D01*
G01*
X140974500Y-75655000D01*
G75*
G02*
X141147000Y-75827500I0J-172500D01*
G01*
G37*
G36*
G01*
X142117000Y-75827500D02*
X142117000Y-76222500D01*
G75*
G02*
X141944500Y-76395000I-172500J0D01*
G01*
X141599500Y-76395000D01*
G75*
G02*
X141427000Y-76222500I0J172500D01*
G01*
X141427000Y-75827500D01*
G75*
G02*
X141599500Y-75655000I172500J0D01*
G01*
X141944500Y-75655000D01*
G75*
G02*
X142117000Y-75827500I0J-172500D01*
G01*
G37*
%TD*%
D13*
%TO.C,U9*%
X141429000Y-79538000D03*
X140129000Y-79538000D03*
X140779000Y-77338000D03*
X140779000Y-79538000D03*
X140129000Y-77338000D03*
X141429000Y-77338000D03*
%TD*%
D14*
%TO.C,U8*%
X154368000Y-67135000D03*
X149288000Y-67135000D03*
X151828000Y-67135000D03*
%TD*%
%TO.C,R16*%
G36*
G01*
X158445000Y-123720500D02*
X158445000Y-123325500D01*
G75*
G02*
X158617500Y-123153000I172500J0D01*
G01*
X158962500Y-123153000D01*
G75*
G02*
X159135000Y-123325500I0J-172500D01*
G01*
X159135000Y-123720500D01*
G75*
G02*
X158962500Y-123893000I-172500J0D01*
G01*
X158617500Y-123893000D01*
G75*
G02*
X158445000Y-123720500I0J172500D01*
G01*
G37*
G36*
G01*
X157475000Y-123720500D02*
X157475000Y-123325500D01*
G75*
G02*
X157647500Y-123153000I172500J0D01*
G01*
X157992500Y-123153000D01*
G75*
G02*
X158165000Y-123325500I0J-172500D01*
G01*
X158165000Y-123720500D01*
G75*
G02*
X157992500Y-123893000I-172500J0D01*
G01*
X157647500Y-123893000D01*
G75*
G02*
X157475000Y-123720500I0J172500D01*
G01*
G37*
%TD*%
%TO.C,R15*%
G36*
G01*
X158188000Y-124468500D02*
X158188000Y-124863500D01*
G75*
G02*
X158015500Y-125036000I-172500J0D01*
G01*
X157670500Y-125036000D01*
G75*
G02*
X157498000Y-124863500I0J172500D01*
G01*
X157498000Y-124468500D01*
G75*
G02*
X157670500Y-124296000I172500J0D01*
G01*
X158015500Y-124296000D01*
G75*
G02*
X158188000Y-124468500I0J-172500D01*
G01*
G37*
G36*
G01*
X159158000Y-124468500D02*
X159158000Y-124863500D01*
G75*
G02*
X158985500Y-125036000I-172500J0D01*
G01*
X158640500Y-125036000D01*
G75*
G02*
X158468000Y-124863500I0J172500D01*
G01*
X158468000Y-124468500D01*
G75*
G02*
X158640500Y-124296000I172500J0D01*
G01*
X158985500Y-124296000D01*
G75*
G02*
X159158000Y-124468500I0J-172500D01*
G01*
G37*
%TD*%
%TO.C,R14*%
G36*
G01*
X153085000Y-68588500D02*
X153085000Y-68983500D01*
G75*
G02*
X152912500Y-69156000I-172500J0D01*
G01*
X152567500Y-69156000D01*
G75*
G02*
X152395000Y-68983500I0J172500D01*
G01*
X152395000Y-68588500D01*
G75*
G02*
X152567500Y-68416000I172500J0D01*
G01*
X152912500Y-68416000D01*
G75*
G02*
X153085000Y-68588500I0J-172500D01*
G01*
G37*
G36*
G01*
X154055000Y-68588500D02*
X154055000Y-68983500D01*
G75*
G02*
X153882500Y-69156000I-172500J0D01*
G01*
X153537500Y-69156000D01*
G75*
G02*
X153365000Y-68983500I0J172500D01*
G01*
X153365000Y-68588500D01*
G75*
G02*
X153537500Y-68416000I172500J0D01*
G01*
X153882500Y-68416000D01*
G75*
G02*
X154055000Y-68588500I0J-172500D01*
G01*
G37*
%TD*%
%TO.C,C15*%
G36*
G01*
X150926000Y-68588500D02*
X150926000Y-68983500D01*
G75*
G02*
X150753500Y-69156000I-172500J0D01*
G01*
X150408500Y-69156000D01*
G75*
G02*
X150236000Y-68983500I0J172500D01*
G01*
X150236000Y-68588500D01*
G75*
G02*
X150408500Y-68416000I172500J0D01*
G01*
X150753500Y-68416000D01*
G75*
G02*
X150926000Y-68588500I0J-172500D01*
G01*
G37*
G36*
G01*
X151896000Y-68588500D02*
X151896000Y-68983500D01*
G75*
G02*
X151723500Y-69156000I-172500J0D01*
G01*
X151378500Y-69156000D01*
G75*
G02*
X151206000Y-68983500I0J172500D01*
G01*
X151206000Y-68588500D01*
G75*
G02*
X151378500Y-68416000I172500J0D01*
G01*
X151723500Y-68416000D01*
G75*
G02*
X151896000Y-68588500I0J-172500D01*
G01*
G37*
%TD*%
%TO.C,C10*%
G36*
G01*
X158445000Y-126514500D02*
X158445000Y-126119500D01*
G75*
G02*
X158617500Y-125947000I172500J0D01*
G01*
X158962500Y-125947000D01*
G75*
G02*
X159135000Y-126119500I0J-172500D01*
G01*
X159135000Y-126514500D01*
G75*
G02*
X158962500Y-126687000I-172500J0D01*
G01*
X158617500Y-126687000D01*
G75*
G02*
X158445000Y-126514500I0J172500D01*
G01*
G37*
G36*
G01*
X157475000Y-126514500D02*
X157475000Y-126119500D01*
G75*
G02*
X157647500Y-125947000I172500J0D01*
G01*
X157992500Y-125947000D01*
G75*
G02*
X158165000Y-126119500I0J-172500D01*
G01*
X158165000Y-126514500D01*
G75*
G02*
X157992500Y-126687000I-172500J0D01*
G01*
X157647500Y-126687000D01*
G75*
G02*
X157475000Y-126514500I0J172500D01*
G01*
G37*
%TD*%
%TO.C,C8*%
G36*
G01*
X154565500Y-127260000D02*
X154170500Y-127260000D01*
G75*
G02*
X153998000Y-127087500I0J172500D01*
G01*
X153998000Y-126742500D01*
G75*
G02*
X154170500Y-126570000I172500J0D01*
G01*
X154565500Y-126570000D01*
G75*
G02*
X154738000Y-126742500I0J-172500D01*
G01*
X154738000Y-127087500D01*
G75*
G02*
X154565500Y-127260000I-172500J0D01*
G01*
G37*
G36*
G01*
X154565500Y-128230000D02*
X154170500Y-128230000D01*
G75*
G02*
X153998000Y-128057500I0J172500D01*
G01*
X153998000Y-127712500D01*
G75*
G02*
X154170500Y-127540000I172500J0D01*
G01*
X154565500Y-127540000D01*
G75*
G02*
X154738000Y-127712500I0J-172500D01*
G01*
X154738000Y-128057500D01*
G75*
G02*
X154565500Y-128230000I-172500J0D01*
G01*
G37*
%TD*%
%TO.C,U4*%
G36*
G01*
X158475000Y-105400000D02*
X158475000Y-105150000D01*
G75*
G02*
X158600000Y-105025000I125000J0D01*
G01*
X159925000Y-105025000D01*
G75*
G02*
X160050000Y-105150000I0J-125000D01*
G01*
X160050000Y-105400000D01*
G75*
G02*
X159925000Y-105525000I-125000J0D01*
G01*
X158600000Y-105525000D01*
G75*
G02*
X158475000Y-105400000I0J125000D01*
G01*
G37*
G36*
G01*
X158475000Y-106050000D02*
X158475000Y-105800000D01*
G75*
G02*
X158600000Y-105675000I125000J0D01*
G01*
X159925000Y-105675000D01*
G75*
G02*
X160050000Y-105800000I0J-125000D01*
G01*
X160050000Y-106050000D01*
G75*
G02*
X159925000Y-106175000I-125000J0D01*
G01*
X158600000Y-106175000D01*
G75*
G02*
X158475000Y-106050000I0J125000D01*
G01*
G37*
G36*
G01*
X158475000Y-106700000D02*
X158475000Y-106450000D01*
G75*
G02*
X158600000Y-106325000I125000J0D01*
G01*
X159925000Y-106325000D01*
G75*
G02*
X160050000Y-106450000I0J-125000D01*
G01*
X160050000Y-106700000D01*
G75*
G02*
X159925000Y-106825000I-125000J0D01*
G01*
X158600000Y-106825000D01*
G75*
G02*
X158475000Y-106700000I0J125000D01*
G01*
G37*
G36*
G01*
X158475000Y-107350000D02*
X158475000Y-107100000D01*
G75*
G02*
X158600000Y-106975000I125000J0D01*
G01*
X159925000Y-106975000D01*
G75*
G02*
X160050000Y-107100000I0J-125000D01*
G01*
X160050000Y-107350000D01*
G75*
G02*
X159925000Y-107475000I-125000J0D01*
G01*
X158600000Y-107475000D01*
G75*
G02*
X158475000Y-107350000I0J125000D01*
G01*
G37*
G36*
G01*
X158475000Y-108000000D02*
X158475000Y-107750000D01*
G75*
G02*
X158600000Y-107625000I125000J0D01*
G01*
X159925000Y-107625000D01*
G75*
G02*
X160050000Y-107750000I0J-125000D01*
G01*
X160050000Y-108000000D01*
G75*
G02*
X159925000Y-108125000I-125000J0D01*
G01*
X158600000Y-108125000D01*
G75*
G02*
X158475000Y-108000000I0J125000D01*
G01*
G37*
G36*
G01*
X158475000Y-108650000D02*
X158475000Y-108400000D01*
G75*
G02*
X158600000Y-108275000I125000J0D01*
G01*
X159925000Y-108275000D01*
G75*
G02*
X160050000Y-108400000I0J-125000D01*
G01*
X160050000Y-108650000D01*
G75*
G02*
X159925000Y-108775000I-125000J0D01*
G01*
X158600000Y-108775000D01*
G75*
G02*
X158475000Y-108650000I0J125000D01*
G01*
G37*
G36*
G01*
X158475000Y-109300000D02*
X158475000Y-109050000D01*
G75*
G02*
X158600000Y-108925000I125000J0D01*
G01*
X159925000Y-108925000D01*
G75*
G02*
X160050000Y-109050000I0J-125000D01*
G01*
X160050000Y-109300000D01*
G75*
G02*
X159925000Y-109425000I-125000J0D01*
G01*
X158600000Y-109425000D01*
G75*
G02*
X158475000Y-109300000I0J125000D01*
G01*
G37*
G36*
G01*
X158475000Y-109950000D02*
X158475000Y-109700000D01*
G75*
G02*
X158600000Y-109575000I125000J0D01*
G01*
X159925000Y-109575000D01*
G75*
G02*
X160050000Y-109700000I0J-125000D01*
G01*
X160050000Y-109950000D01*
G75*
G02*
X159925000Y-110075000I-125000J0D01*
G01*
X158600000Y-110075000D01*
G75*
G02*
X158475000Y-109950000I0J125000D01*
G01*
G37*
G36*
G01*
X158475000Y-110600000D02*
X158475000Y-110350000D01*
G75*
G02*
X158600000Y-110225000I125000J0D01*
G01*
X159925000Y-110225000D01*
G75*
G02*
X160050000Y-110350000I0J-125000D01*
G01*
X160050000Y-110600000D01*
G75*
G02*
X159925000Y-110725000I-125000J0D01*
G01*
X158600000Y-110725000D01*
G75*
G02*
X158475000Y-110600000I0J125000D01*
G01*
G37*
G36*
G01*
X158475000Y-111250000D02*
X158475000Y-111000000D01*
G75*
G02*
X158600000Y-110875000I125000J0D01*
G01*
X159925000Y-110875000D01*
G75*
G02*
X160050000Y-111000000I0J-125000D01*
G01*
X160050000Y-111250000D01*
G75*
G02*
X159925000Y-111375000I-125000J0D01*
G01*
X158600000Y-111375000D01*
G75*
G02*
X158475000Y-111250000I0J125000D01*
G01*
G37*
G36*
G01*
X152750000Y-111250000D02*
X152750000Y-111000000D01*
G75*
G02*
X152875000Y-110875000I125000J0D01*
G01*
X154200000Y-110875000D01*
G75*
G02*
X154325000Y-111000000I0J-125000D01*
G01*
X154325000Y-111250000D01*
G75*
G02*
X154200000Y-111375000I-125000J0D01*
G01*
X152875000Y-111375000D01*
G75*
G02*
X152750000Y-111250000I0J125000D01*
G01*
G37*
G36*
G01*
X152750000Y-110600000D02*
X152750000Y-110350000D01*
G75*
G02*
X152875000Y-110225000I125000J0D01*
G01*
X154200000Y-110225000D01*
G75*
G02*
X154325000Y-110350000I0J-125000D01*
G01*
X154325000Y-110600000D01*
G75*
G02*
X154200000Y-110725000I-125000J0D01*
G01*
X152875000Y-110725000D01*
G75*
G02*
X152750000Y-110600000I0J125000D01*
G01*
G37*
G36*
G01*
X152750000Y-109950000D02*
X152750000Y-109700000D01*
G75*
G02*
X152875000Y-109575000I125000J0D01*
G01*
X154200000Y-109575000D01*
G75*
G02*
X154325000Y-109700000I0J-125000D01*
G01*
X154325000Y-109950000D01*
G75*
G02*
X154200000Y-110075000I-125000J0D01*
G01*
X152875000Y-110075000D01*
G75*
G02*
X152750000Y-109950000I0J125000D01*
G01*
G37*
G36*
G01*
X152750000Y-109300000D02*
X152750000Y-109050000D01*
G75*
G02*
X152875000Y-108925000I125000J0D01*
G01*
X154200000Y-108925000D01*
G75*
G02*
X154325000Y-109050000I0J-125000D01*
G01*
X154325000Y-109300000D01*
G75*
G02*
X154200000Y-109425000I-125000J0D01*
G01*
X152875000Y-109425000D01*
G75*
G02*
X152750000Y-109300000I0J125000D01*
G01*
G37*
G36*
G01*
X152750000Y-108650000D02*
X152750000Y-108400000D01*
G75*
G02*
X152875000Y-108275000I125000J0D01*
G01*
X154200000Y-108275000D01*
G75*
G02*
X154325000Y-108400000I0J-125000D01*
G01*
X154325000Y-108650000D01*
G75*
G02*
X154200000Y-108775000I-125000J0D01*
G01*
X152875000Y-108775000D01*
G75*
G02*
X152750000Y-108650000I0J125000D01*
G01*
G37*
G36*
G01*
X152750000Y-108000000D02*
X152750000Y-107750000D01*
G75*
G02*
X152875000Y-107625000I125000J0D01*
G01*
X154200000Y-107625000D01*
G75*
G02*
X154325000Y-107750000I0J-125000D01*
G01*
X154325000Y-108000000D01*
G75*
G02*
X154200000Y-108125000I-125000J0D01*
G01*
X152875000Y-108125000D01*
G75*
G02*
X152750000Y-108000000I0J125000D01*
G01*
G37*
G36*
G01*
X152750000Y-107350000D02*
X152750000Y-107100000D01*
G75*
G02*
X152875000Y-106975000I125000J0D01*
G01*
X154200000Y-106975000D01*
G75*
G02*
X154325000Y-107100000I0J-125000D01*
G01*
X154325000Y-107350000D01*
G75*
G02*
X154200000Y-107475000I-125000J0D01*
G01*
X152875000Y-107475000D01*
G75*
G02*
X152750000Y-107350000I0J125000D01*
G01*
G37*
G36*
G01*
X152750000Y-106700000D02*
X152750000Y-106450000D01*
G75*
G02*
X152875000Y-106325000I125000J0D01*
G01*
X154200000Y-106325000D01*
G75*
G02*
X154325000Y-106450000I0J-125000D01*
G01*
X154325000Y-106700000D01*
G75*
G02*
X154200000Y-106825000I-125000J0D01*
G01*
X152875000Y-106825000D01*
G75*
G02*
X152750000Y-106700000I0J125000D01*
G01*
G37*
G36*
G01*
X152750000Y-106050000D02*
X152750000Y-105800000D01*
G75*
G02*
X152875000Y-105675000I125000J0D01*
G01*
X154200000Y-105675000D01*
G75*
G02*
X154325000Y-105800000I0J-125000D01*
G01*
X154325000Y-106050000D01*
G75*
G02*
X154200000Y-106175000I-125000J0D01*
G01*
X152875000Y-106175000D01*
G75*
G02*
X152750000Y-106050000I0J125000D01*
G01*
G37*
G36*
G01*
X152750000Y-105400000D02*
X152750000Y-105150000D01*
G75*
G02*
X152875000Y-105025000I125000J0D01*
G01*
X154200000Y-105025000D01*
G75*
G02*
X154325000Y-105150000I0J-125000D01*
G01*
X154325000Y-105400000D01*
G75*
G02*
X154200000Y-105525000I-125000J0D01*
G01*
X152875000Y-105525000D01*
G75*
G02*
X152750000Y-105400000I0J125000D01*
G01*
G37*
%TD*%
%TO.C,U3*%
G36*
G01*
X158475000Y-96400000D02*
X158475000Y-96150000D01*
G75*
G02*
X158600000Y-96025000I125000J0D01*
G01*
X159925000Y-96025000D01*
G75*
G02*
X160050000Y-96150000I0J-125000D01*
G01*
X160050000Y-96400000D01*
G75*
G02*
X159925000Y-96525000I-125000J0D01*
G01*
X158600000Y-96525000D01*
G75*
G02*
X158475000Y-96400000I0J125000D01*
G01*
G37*
G36*
G01*
X158475000Y-97050000D02*
X158475000Y-96800000D01*
G75*
G02*
X158600000Y-96675000I125000J0D01*
G01*
X159925000Y-96675000D01*
G75*
G02*
X160050000Y-96800000I0J-125000D01*
G01*
X160050000Y-97050000D01*
G75*
G02*
X159925000Y-97175000I-125000J0D01*
G01*
X158600000Y-97175000D01*
G75*
G02*
X158475000Y-97050000I0J125000D01*
G01*
G37*
G36*
G01*
X158475000Y-97700000D02*
X158475000Y-97450000D01*
G75*
G02*
X158600000Y-97325000I125000J0D01*
G01*
X159925000Y-97325000D01*
G75*
G02*
X160050000Y-97450000I0J-125000D01*
G01*
X160050000Y-97700000D01*
G75*
G02*
X159925000Y-97825000I-125000J0D01*
G01*
X158600000Y-97825000D01*
G75*
G02*
X158475000Y-97700000I0J125000D01*
G01*
G37*
G36*
G01*
X158475000Y-98350000D02*
X158475000Y-98100000D01*
G75*
G02*
X158600000Y-97975000I125000J0D01*
G01*
X159925000Y-97975000D01*
G75*
G02*
X160050000Y-98100000I0J-125000D01*
G01*
X160050000Y-98350000D01*
G75*
G02*
X159925000Y-98475000I-125000J0D01*
G01*
X158600000Y-98475000D01*
G75*
G02*
X158475000Y-98350000I0J125000D01*
G01*
G37*
G36*
G01*
X158475000Y-99000000D02*
X158475000Y-98750000D01*
G75*
G02*
X158600000Y-98625000I125000J0D01*
G01*
X159925000Y-98625000D01*
G75*
G02*
X160050000Y-98750000I0J-125000D01*
G01*
X160050000Y-99000000D01*
G75*
G02*
X159925000Y-99125000I-125000J0D01*
G01*
X158600000Y-99125000D01*
G75*
G02*
X158475000Y-99000000I0J125000D01*
G01*
G37*
G36*
G01*
X158475000Y-99650000D02*
X158475000Y-99400000D01*
G75*
G02*
X158600000Y-99275000I125000J0D01*
G01*
X159925000Y-99275000D01*
G75*
G02*
X160050000Y-99400000I0J-125000D01*
G01*
X160050000Y-99650000D01*
G75*
G02*
X159925000Y-99775000I-125000J0D01*
G01*
X158600000Y-99775000D01*
G75*
G02*
X158475000Y-99650000I0J125000D01*
G01*
G37*
G36*
G01*
X158475000Y-100300000D02*
X158475000Y-100050000D01*
G75*
G02*
X158600000Y-99925000I125000J0D01*
G01*
X159925000Y-99925000D01*
G75*
G02*
X160050000Y-100050000I0J-125000D01*
G01*
X160050000Y-100300000D01*
G75*
G02*
X159925000Y-100425000I-125000J0D01*
G01*
X158600000Y-100425000D01*
G75*
G02*
X158475000Y-100300000I0J125000D01*
G01*
G37*
G36*
G01*
X158475000Y-100950000D02*
X158475000Y-100700000D01*
G75*
G02*
X158600000Y-100575000I125000J0D01*
G01*
X159925000Y-100575000D01*
G75*
G02*
X160050000Y-100700000I0J-125000D01*
G01*
X160050000Y-100950000D01*
G75*
G02*
X159925000Y-101075000I-125000J0D01*
G01*
X158600000Y-101075000D01*
G75*
G02*
X158475000Y-100950000I0J125000D01*
G01*
G37*
G36*
G01*
X158475000Y-101600000D02*
X158475000Y-101350000D01*
G75*
G02*
X158600000Y-101225000I125000J0D01*
G01*
X159925000Y-101225000D01*
G75*
G02*
X160050000Y-101350000I0J-125000D01*
G01*
X160050000Y-101600000D01*
G75*
G02*
X159925000Y-101725000I-125000J0D01*
G01*
X158600000Y-101725000D01*
G75*
G02*
X158475000Y-101600000I0J125000D01*
G01*
G37*
G36*
G01*
X158475000Y-102250000D02*
X158475000Y-102000000D01*
G75*
G02*
X158600000Y-101875000I125000J0D01*
G01*
X159925000Y-101875000D01*
G75*
G02*
X160050000Y-102000000I0J-125000D01*
G01*
X160050000Y-102250000D01*
G75*
G02*
X159925000Y-102375000I-125000J0D01*
G01*
X158600000Y-102375000D01*
G75*
G02*
X158475000Y-102250000I0J125000D01*
G01*
G37*
G36*
G01*
X152750000Y-102250000D02*
X152750000Y-102000000D01*
G75*
G02*
X152875000Y-101875000I125000J0D01*
G01*
X154200000Y-101875000D01*
G75*
G02*
X154325000Y-102000000I0J-125000D01*
G01*
X154325000Y-102250000D01*
G75*
G02*
X154200000Y-102375000I-125000J0D01*
G01*
X152875000Y-102375000D01*
G75*
G02*
X152750000Y-102250000I0J125000D01*
G01*
G37*
G36*
G01*
X152750000Y-101600000D02*
X152750000Y-101350000D01*
G75*
G02*
X152875000Y-101225000I125000J0D01*
G01*
X154200000Y-101225000D01*
G75*
G02*
X154325000Y-101350000I0J-125000D01*
G01*
X154325000Y-101600000D01*
G75*
G02*
X154200000Y-101725000I-125000J0D01*
G01*
X152875000Y-101725000D01*
G75*
G02*
X152750000Y-101600000I0J125000D01*
G01*
G37*
G36*
G01*
X152750000Y-100950000D02*
X152750000Y-100700000D01*
G75*
G02*
X152875000Y-100575000I125000J0D01*
G01*
X154200000Y-100575000D01*
G75*
G02*
X154325000Y-100700000I0J-125000D01*
G01*
X154325000Y-100950000D01*
G75*
G02*
X154200000Y-101075000I-125000J0D01*
G01*
X152875000Y-101075000D01*
G75*
G02*
X152750000Y-100950000I0J125000D01*
G01*
G37*
G36*
G01*
X152750000Y-100300000D02*
X152750000Y-100050000D01*
G75*
G02*
X152875000Y-99925000I125000J0D01*
G01*
X154200000Y-99925000D01*
G75*
G02*
X154325000Y-100050000I0J-125000D01*
G01*
X154325000Y-100300000D01*
G75*
G02*
X154200000Y-100425000I-125000J0D01*
G01*
X152875000Y-100425000D01*
G75*
G02*
X152750000Y-100300000I0J125000D01*
G01*
G37*
G36*
G01*
X152750000Y-99650000D02*
X152750000Y-99400000D01*
G75*
G02*
X152875000Y-99275000I125000J0D01*
G01*
X154200000Y-99275000D01*
G75*
G02*
X154325000Y-99400000I0J-125000D01*
G01*
X154325000Y-99650000D01*
G75*
G02*
X154200000Y-99775000I-125000J0D01*
G01*
X152875000Y-99775000D01*
G75*
G02*
X152750000Y-99650000I0J125000D01*
G01*
G37*
G36*
G01*
X152750000Y-99000000D02*
X152750000Y-98750000D01*
G75*
G02*
X152875000Y-98625000I125000J0D01*
G01*
X154200000Y-98625000D01*
G75*
G02*
X154325000Y-98750000I0J-125000D01*
G01*
X154325000Y-99000000D01*
G75*
G02*
X154200000Y-99125000I-125000J0D01*
G01*
X152875000Y-99125000D01*
G75*
G02*
X152750000Y-99000000I0J125000D01*
G01*
G37*
G36*
G01*
X152750000Y-98350000D02*
X152750000Y-98100000D01*
G75*
G02*
X152875000Y-97975000I125000J0D01*
G01*
X154200000Y-97975000D01*
G75*
G02*
X154325000Y-98100000I0J-125000D01*
G01*
X154325000Y-98350000D01*
G75*
G02*
X154200000Y-98475000I-125000J0D01*
G01*
X152875000Y-98475000D01*
G75*
G02*
X152750000Y-98350000I0J125000D01*
G01*
G37*
G36*
G01*
X152750000Y-97700000D02*
X152750000Y-97450000D01*
G75*
G02*
X152875000Y-97325000I125000J0D01*
G01*
X154200000Y-97325000D01*
G75*
G02*
X154325000Y-97450000I0J-125000D01*
G01*
X154325000Y-97700000D01*
G75*
G02*
X154200000Y-97825000I-125000J0D01*
G01*
X152875000Y-97825000D01*
G75*
G02*
X152750000Y-97700000I0J125000D01*
G01*
G37*
G36*
G01*
X152750000Y-97050000D02*
X152750000Y-96800000D01*
G75*
G02*
X152875000Y-96675000I125000J0D01*
G01*
X154200000Y-96675000D01*
G75*
G02*
X154325000Y-96800000I0J-125000D01*
G01*
X154325000Y-97050000D01*
G75*
G02*
X154200000Y-97175000I-125000J0D01*
G01*
X152875000Y-97175000D01*
G75*
G02*
X152750000Y-97050000I0J125000D01*
G01*
G37*
G36*
G01*
X152750000Y-96400000D02*
X152750000Y-96150000D01*
G75*
G02*
X152875000Y-96025000I125000J0D01*
G01*
X154200000Y-96025000D01*
G75*
G02*
X154325000Y-96150000I0J-125000D01*
G01*
X154325000Y-96400000D01*
G75*
G02*
X154200000Y-96525000I-125000J0D01*
G01*
X152875000Y-96525000D01*
G75*
G02*
X152750000Y-96400000I0J125000D01*
G01*
G37*
%TD*%
%TO.C,U7*%
G36*
G01*
X141730000Y-72850000D02*
X142080000Y-72850000D01*
G75*
G02*
X142255000Y-73025000I0J-175000D01*
G01*
X142255000Y-74725000D01*
G75*
G02*
X142080000Y-74900000I-175000J0D01*
G01*
X141730000Y-74900000D01*
G75*
G02*
X141555000Y-74725000I0J175000D01*
G01*
X141555000Y-73025000D01*
G75*
G02*
X141730000Y-72850000I175000J0D01*
G01*
G37*
G36*
G01*
X140460000Y-72850000D02*
X140810000Y-72850000D01*
G75*
G02*
X140985000Y-73025000I0J-175000D01*
G01*
X140985000Y-74725000D01*
G75*
G02*
X140810000Y-74900000I-175000J0D01*
G01*
X140460000Y-74900000D01*
G75*
G02*
X140285000Y-74725000I0J175000D01*
G01*
X140285000Y-73025000D01*
G75*
G02*
X140460000Y-72850000I175000J0D01*
G01*
G37*
G36*
G01*
X139190000Y-72850000D02*
X139540000Y-72850000D01*
G75*
G02*
X139715000Y-73025000I0J-175000D01*
G01*
X139715000Y-74725000D01*
G75*
G02*
X139540000Y-74900000I-175000J0D01*
G01*
X139190000Y-74900000D01*
G75*
G02*
X139015000Y-74725000I0J175000D01*
G01*
X139015000Y-73025000D01*
G75*
G02*
X139190000Y-72850000I175000J0D01*
G01*
G37*
G36*
G01*
X137920000Y-72850000D02*
X138270000Y-72850000D01*
G75*
G02*
X138445000Y-73025000I0J-175000D01*
G01*
X138445000Y-74725000D01*
G75*
G02*
X138270000Y-74900000I-175000J0D01*
G01*
X137920000Y-74900000D01*
G75*
G02*
X137745000Y-74725000I0J175000D01*
G01*
X137745000Y-73025000D01*
G75*
G02*
X137920000Y-72850000I175000J0D01*
G01*
G37*
G36*
G01*
X137920000Y-67900000D02*
X138270000Y-67900000D01*
G75*
G02*
X138445000Y-68075000I0J-175000D01*
G01*
X138445000Y-69775000D01*
G75*
G02*
X138270000Y-69950000I-175000J0D01*
G01*
X137920000Y-69950000D01*
G75*
G02*
X137745000Y-69775000I0J175000D01*
G01*
X137745000Y-68075000D01*
G75*
G02*
X137920000Y-67900000I175000J0D01*
G01*
G37*
G36*
G01*
X139190000Y-67900000D02*
X139540000Y-67900000D01*
G75*
G02*
X139715000Y-68075000I0J-175000D01*
G01*
X139715000Y-69775000D01*
G75*
G02*
X139540000Y-69950000I-175000J0D01*
G01*
X139190000Y-69950000D01*
G75*
G02*
X139015000Y-69775000I0J175000D01*
G01*
X139015000Y-68075000D01*
G75*
G02*
X139190000Y-67900000I175000J0D01*
G01*
G37*
G36*
G01*
X140460000Y-67900000D02*
X140810000Y-67900000D01*
G75*
G02*
X140985000Y-68075000I0J-175000D01*
G01*
X140985000Y-69775000D01*
G75*
G02*
X140810000Y-69950000I-175000J0D01*
G01*
X140460000Y-69950000D01*
G75*
G02*
X140285000Y-69775000I0J175000D01*
G01*
X140285000Y-68075000D01*
G75*
G02*
X140460000Y-67900000I175000J0D01*
G01*
G37*
G36*
G01*
X141730000Y-67900000D02*
X142080000Y-67900000D01*
G75*
G02*
X142255000Y-68075000I0J-175000D01*
G01*
X142255000Y-69775000D01*
G75*
G02*
X142080000Y-69950000I-175000J0D01*
G01*
X141730000Y-69950000D01*
G75*
G02*
X141555000Y-69775000I0J175000D01*
G01*
X141555000Y-68075000D01*
G75*
G02*
X141730000Y-67900000I175000J0D01*
G01*
G37*
%TD*%
D15*
%TO.C,U6*%
X153400000Y-122200000D03*
G36*
G01*
X151312500Y-123875000D02*
X150587500Y-123875000D01*
G75*
G02*
X150500000Y-123787500I0J87500D01*
G01*
X150500000Y-123612500D01*
G75*
G02*
X150587500Y-123525000I87500J0D01*
G01*
X151312500Y-123525000D01*
G75*
G02*
X151400000Y-123612500I0J-87500D01*
G01*
X151400000Y-123787500D01*
G75*
G02*
X151312500Y-123875000I-87500J0D01*
G01*
G37*
G36*
G01*
X151312500Y-123375000D02*
X150587500Y-123375000D01*
G75*
G02*
X150500000Y-123287500I0J87500D01*
G01*
X150500000Y-123112500D01*
G75*
G02*
X150587500Y-123025000I87500J0D01*
G01*
X151312500Y-123025000D01*
G75*
G02*
X151400000Y-123112500I0J-87500D01*
G01*
X151400000Y-123287500D01*
G75*
G02*
X151312500Y-123375000I-87500J0D01*
G01*
G37*
G36*
G01*
X151312500Y-122875000D02*
X150587500Y-122875000D01*
G75*
G02*
X150500000Y-122787500I0J87500D01*
G01*
X150500000Y-122612500D01*
G75*
G02*
X150587500Y-122525000I87500J0D01*
G01*
X151312500Y-122525000D01*
G75*
G02*
X151400000Y-122612500I0J-87500D01*
G01*
X151400000Y-122787500D01*
G75*
G02*
X151312500Y-122875000I-87500J0D01*
G01*
G37*
G36*
G01*
X151312500Y-122375000D02*
X150587500Y-122375000D01*
G75*
G02*
X150500000Y-122287500I0J87500D01*
G01*
X150500000Y-122112500D01*
G75*
G02*
X150587500Y-122025000I87500J0D01*
G01*
X151312500Y-122025000D01*
G75*
G02*
X151400000Y-122112500I0J-87500D01*
G01*
X151400000Y-122287500D01*
G75*
G02*
X151312500Y-122375000I-87500J0D01*
G01*
G37*
G36*
G01*
X151312500Y-121875000D02*
X150587500Y-121875000D01*
G75*
G02*
X150500000Y-121787500I0J87500D01*
G01*
X150500000Y-121612500D01*
G75*
G02*
X150587500Y-121525000I87500J0D01*
G01*
X151312500Y-121525000D01*
G75*
G02*
X151400000Y-121612500I0J-87500D01*
G01*
X151400000Y-121787500D01*
G75*
G02*
X151312500Y-121875000I-87500J0D01*
G01*
G37*
G36*
G01*
X151312500Y-121375000D02*
X150587500Y-121375000D01*
G75*
G02*
X150500000Y-121287500I0J87500D01*
G01*
X150500000Y-121112500D01*
G75*
G02*
X150587500Y-121025000I87500J0D01*
G01*
X151312500Y-121025000D01*
G75*
G02*
X151400000Y-121112500I0J-87500D01*
G01*
X151400000Y-121287500D01*
G75*
G02*
X151312500Y-121375000I-87500J0D01*
G01*
G37*
G36*
G01*
X151312500Y-120875000D02*
X150587500Y-120875000D01*
G75*
G02*
X150500000Y-120787500I0J87500D01*
G01*
X150500000Y-120612500D01*
G75*
G02*
X150587500Y-120525000I87500J0D01*
G01*
X151312500Y-120525000D01*
G75*
G02*
X151400000Y-120612500I0J-87500D01*
G01*
X151400000Y-120787500D01*
G75*
G02*
X151312500Y-120875000I-87500J0D01*
G01*
G37*
G36*
G01*
X151987500Y-120200000D02*
X151812500Y-120200000D01*
G75*
G02*
X151725000Y-120112500I0J87500D01*
G01*
X151725000Y-119387500D01*
G75*
G02*
X151812500Y-119300000I87500J0D01*
G01*
X151987500Y-119300000D01*
G75*
G02*
X152075000Y-119387500I0J-87500D01*
G01*
X152075000Y-120112500D01*
G75*
G02*
X151987500Y-120200000I-87500J0D01*
G01*
G37*
G36*
G01*
X152487500Y-120200000D02*
X152312500Y-120200000D01*
G75*
G02*
X152225000Y-120112500I0J87500D01*
G01*
X152225000Y-119387500D01*
G75*
G02*
X152312500Y-119300000I87500J0D01*
G01*
X152487500Y-119300000D01*
G75*
G02*
X152575000Y-119387500I0J-87500D01*
G01*
X152575000Y-120112500D01*
G75*
G02*
X152487500Y-120200000I-87500J0D01*
G01*
G37*
G36*
G01*
X152987500Y-120200000D02*
X152812500Y-120200000D01*
G75*
G02*
X152725000Y-120112500I0J87500D01*
G01*
X152725000Y-119387500D01*
G75*
G02*
X152812500Y-119300000I87500J0D01*
G01*
X152987500Y-119300000D01*
G75*
G02*
X153075000Y-119387500I0J-87500D01*
G01*
X153075000Y-120112500D01*
G75*
G02*
X152987500Y-120200000I-87500J0D01*
G01*
G37*
G36*
G01*
X153487500Y-120200000D02*
X153312500Y-120200000D01*
G75*
G02*
X153225000Y-120112500I0J87500D01*
G01*
X153225000Y-119387500D01*
G75*
G02*
X153312500Y-119300000I87500J0D01*
G01*
X153487500Y-119300000D01*
G75*
G02*
X153575000Y-119387500I0J-87500D01*
G01*
X153575000Y-120112500D01*
G75*
G02*
X153487500Y-120200000I-87500J0D01*
G01*
G37*
G36*
G01*
X153987500Y-120200000D02*
X153812500Y-120200000D01*
G75*
G02*
X153725000Y-120112500I0J87500D01*
G01*
X153725000Y-119387500D01*
G75*
G02*
X153812500Y-119300000I87500J0D01*
G01*
X153987500Y-119300000D01*
G75*
G02*
X154075000Y-119387500I0J-87500D01*
G01*
X154075000Y-120112500D01*
G75*
G02*
X153987500Y-120200000I-87500J0D01*
G01*
G37*
G36*
G01*
X154487500Y-120200000D02*
X154312500Y-120200000D01*
G75*
G02*
X154225000Y-120112500I0J87500D01*
G01*
X154225000Y-119387500D01*
G75*
G02*
X154312500Y-119300000I87500J0D01*
G01*
X154487500Y-119300000D01*
G75*
G02*
X154575000Y-119387500I0J-87500D01*
G01*
X154575000Y-120112500D01*
G75*
G02*
X154487500Y-120200000I-87500J0D01*
G01*
G37*
G36*
G01*
X154987500Y-120200000D02*
X154812500Y-120200000D01*
G75*
G02*
X154725000Y-120112500I0J87500D01*
G01*
X154725000Y-119387500D01*
G75*
G02*
X154812500Y-119300000I87500J0D01*
G01*
X154987500Y-119300000D01*
G75*
G02*
X155075000Y-119387500I0J-87500D01*
G01*
X155075000Y-120112500D01*
G75*
G02*
X154987500Y-120200000I-87500J0D01*
G01*
G37*
G36*
G01*
X156212500Y-120875000D02*
X155487500Y-120875000D01*
G75*
G02*
X155400000Y-120787500I0J87500D01*
G01*
X155400000Y-120612500D01*
G75*
G02*
X155487500Y-120525000I87500J0D01*
G01*
X156212500Y-120525000D01*
G75*
G02*
X156300000Y-120612500I0J-87500D01*
G01*
X156300000Y-120787500D01*
G75*
G02*
X156212500Y-120875000I-87500J0D01*
G01*
G37*
G36*
G01*
X156212500Y-121375000D02*
X155487500Y-121375000D01*
G75*
G02*
X155400000Y-121287500I0J87500D01*
G01*
X155400000Y-121112500D01*
G75*
G02*
X155487500Y-121025000I87500J0D01*
G01*
X156212500Y-121025000D01*
G75*
G02*
X156300000Y-121112500I0J-87500D01*
G01*
X156300000Y-121287500D01*
G75*
G02*
X156212500Y-121375000I-87500J0D01*
G01*
G37*
G36*
G01*
X156212500Y-121875000D02*
X155487500Y-121875000D01*
G75*
G02*
X155400000Y-121787500I0J87500D01*
G01*
X155400000Y-121612500D01*
G75*
G02*
X155487500Y-121525000I87500J0D01*
G01*
X156212500Y-121525000D01*
G75*
G02*
X156300000Y-121612500I0J-87500D01*
G01*
X156300000Y-121787500D01*
G75*
G02*
X156212500Y-121875000I-87500J0D01*
G01*
G37*
G36*
G01*
X156212500Y-122375000D02*
X155487500Y-122375000D01*
G75*
G02*
X155400000Y-122287500I0J87500D01*
G01*
X155400000Y-122112500D01*
G75*
G02*
X155487500Y-122025000I87500J0D01*
G01*
X156212500Y-122025000D01*
G75*
G02*
X156300000Y-122112500I0J-87500D01*
G01*
X156300000Y-122287500D01*
G75*
G02*
X156212500Y-122375000I-87500J0D01*
G01*
G37*
G36*
G01*
X156212500Y-122875000D02*
X155487500Y-122875000D01*
G75*
G02*
X155400000Y-122787500I0J87500D01*
G01*
X155400000Y-122612500D01*
G75*
G02*
X155487500Y-122525000I87500J0D01*
G01*
X156212500Y-122525000D01*
G75*
G02*
X156300000Y-122612500I0J-87500D01*
G01*
X156300000Y-122787500D01*
G75*
G02*
X156212500Y-122875000I-87500J0D01*
G01*
G37*
G36*
G01*
X156212500Y-123375000D02*
X155487500Y-123375000D01*
G75*
G02*
X155400000Y-123287500I0J87500D01*
G01*
X155400000Y-123112500D01*
G75*
G02*
X155487500Y-123025000I87500J0D01*
G01*
X156212500Y-123025000D01*
G75*
G02*
X156300000Y-123112500I0J-87500D01*
G01*
X156300000Y-123287500D01*
G75*
G02*
X156212500Y-123375000I-87500J0D01*
G01*
G37*
G36*
G01*
X156212500Y-123875000D02*
X155487500Y-123875000D01*
G75*
G02*
X155400000Y-123787500I0J87500D01*
G01*
X155400000Y-123612500D01*
G75*
G02*
X155487500Y-123525000I87500J0D01*
G01*
X156212500Y-123525000D01*
G75*
G02*
X156300000Y-123612500I0J-87500D01*
G01*
X156300000Y-123787500D01*
G75*
G02*
X156212500Y-123875000I-87500J0D01*
G01*
G37*
G36*
G01*
X154987500Y-125100000D02*
X154812500Y-125100000D01*
G75*
G02*
X154725000Y-125012500I0J87500D01*
G01*
X154725000Y-124287500D01*
G75*
G02*
X154812500Y-124200000I87500J0D01*
G01*
X154987500Y-124200000D01*
G75*
G02*
X155075000Y-124287500I0J-87500D01*
G01*
X155075000Y-125012500D01*
G75*
G02*
X154987500Y-125100000I-87500J0D01*
G01*
G37*
G36*
G01*
X154487500Y-125100000D02*
X154312500Y-125100000D01*
G75*
G02*
X154225000Y-125012500I0J87500D01*
G01*
X154225000Y-124287500D01*
G75*
G02*
X154312500Y-124200000I87500J0D01*
G01*
X154487500Y-124200000D01*
G75*
G02*
X154575000Y-124287500I0J-87500D01*
G01*
X154575000Y-125012500D01*
G75*
G02*
X154487500Y-125100000I-87500J0D01*
G01*
G37*
G36*
G01*
X153987500Y-125100000D02*
X153812500Y-125100000D01*
G75*
G02*
X153725000Y-125012500I0J87500D01*
G01*
X153725000Y-124287500D01*
G75*
G02*
X153812500Y-124200000I87500J0D01*
G01*
X153987500Y-124200000D01*
G75*
G02*
X154075000Y-124287500I0J-87500D01*
G01*
X154075000Y-125012500D01*
G75*
G02*
X153987500Y-125100000I-87500J0D01*
G01*
G37*
G36*
G01*
X153487500Y-125100000D02*
X153312500Y-125100000D01*
G75*
G02*
X153225000Y-125012500I0J87500D01*
G01*
X153225000Y-124287500D01*
G75*
G02*
X153312500Y-124200000I87500J0D01*
G01*
X153487500Y-124200000D01*
G75*
G02*
X153575000Y-124287500I0J-87500D01*
G01*
X153575000Y-125012500D01*
G75*
G02*
X153487500Y-125100000I-87500J0D01*
G01*
G37*
G36*
G01*
X152987500Y-125100000D02*
X152812500Y-125100000D01*
G75*
G02*
X152725000Y-125012500I0J87500D01*
G01*
X152725000Y-124287500D01*
G75*
G02*
X152812500Y-124200000I87500J0D01*
G01*
X152987500Y-124200000D01*
G75*
G02*
X153075000Y-124287500I0J-87500D01*
G01*
X153075000Y-125012500D01*
G75*
G02*
X152987500Y-125100000I-87500J0D01*
G01*
G37*
G36*
G01*
X152487500Y-125100000D02*
X152312500Y-125100000D01*
G75*
G02*
X152225000Y-125012500I0J87500D01*
G01*
X152225000Y-124287500D01*
G75*
G02*
X152312500Y-124200000I87500J0D01*
G01*
X152487500Y-124200000D01*
G75*
G02*
X152575000Y-124287500I0J-87500D01*
G01*
X152575000Y-125012500D01*
G75*
G02*
X152487500Y-125100000I-87500J0D01*
G01*
G37*
G36*
G01*
X151987500Y-125100000D02*
X151812500Y-125100000D01*
G75*
G02*
X151725000Y-125012500I0J87500D01*
G01*
X151725000Y-124287500D01*
G75*
G02*
X151812500Y-124200000I87500J0D01*
G01*
X151987500Y-124200000D01*
G75*
G02*
X152075000Y-124287500I0J-87500D01*
G01*
X152075000Y-125012500D01*
G75*
G02*
X151987500Y-125100000I-87500J0D01*
G01*
G37*
%TD*%
D16*
%TO.C,U5*%
X141180000Y-99160000D03*
X145780000Y-99160000D03*
X143480000Y-99160000D03*
D17*
X143480000Y-92860000D03*
%TD*%
%TO.C,U2*%
G36*
G01*
X134200000Y-121750000D02*
X134200000Y-123050000D01*
G75*
G02*
X134000000Y-123250000I-200000J0D01*
G01*
X133600000Y-123250000D01*
G75*
G02*
X133400000Y-123050000I0J200000D01*
G01*
X133400000Y-121750000D01*
G75*
G02*
X133600000Y-121550000I200000J0D01*
G01*
X134000000Y-121550000D01*
G75*
G02*
X134200000Y-121750000I0J-200000D01*
G01*
G37*
G36*
G01*
X133200000Y-122787500D02*
X133200000Y-123012500D01*
G75*
G02*
X133087500Y-123125000I-112500J0D01*
G01*
X132662500Y-123125000D01*
G75*
G02*
X132550000Y-123012500I0J112500D01*
G01*
X132550000Y-122787500D01*
G75*
G02*
X132662500Y-122675000I112500J0D01*
G01*
X133087500Y-122675000D01*
G75*
G02*
X133200000Y-122787500I0J-112500D01*
G01*
G37*
G36*
G01*
X133200000Y-121787500D02*
X133200000Y-122012500D01*
G75*
G02*
X133087500Y-122125000I-112500J0D01*
G01*
X132662500Y-122125000D01*
G75*
G02*
X132550000Y-122012500I0J112500D01*
G01*
X132550000Y-121787500D01*
G75*
G02*
X132662500Y-121675000I112500J0D01*
G01*
X133087500Y-121675000D01*
G75*
G02*
X133200000Y-121787500I0J-112500D01*
G01*
G37*
G36*
G01*
X135050000Y-121787500D02*
X135050000Y-122012500D01*
G75*
G02*
X134937500Y-122125000I-112500J0D01*
G01*
X134512500Y-122125000D01*
G75*
G02*
X134400000Y-122012500I0J112500D01*
G01*
X134400000Y-121787500D01*
G75*
G02*
X134512500Y-121675000I112500J0D01*
G01*
X134937500Y-121675000D01*
G75*
G02*
X135050000Y-121787500I0J-112500D01*
G01*
G37*
G36*
G01*
X135050000Y-122787500D02*
X135050000Y-123012500D01*
G75*
G02*
X134937500Y-123125000I-112500J0D01*
G01*
X134512500Y-123125000D01*
G75*
G02*
X134400000Y-123012500I0J112500D01*
G01*
X134400000Y-122787500D01*
G75*
G02*
X134512500Y-122675000I112500J0D01*
G01*
X134937500Y-122675000D01*
G75*
G02*
X135050000Y-122787500I0J-112500D01*
G01*
G37*
%TD*%
D18*
%TO.C,U1*%
X163255000Y-89300000D03*
X161985000Y-89300000D03*
X160715000Y-89300000D03*
X159445000Y-89300000D03*
X158175000Y-89300000D03*
X156905000Y-89300000D03*
X155635000Y-89300000D03*
X154365000Y-89300000D03*
X153095000Y-89300000D03*
X151825000Y-89300000D03*
X150555000Y-89300000D03*
X149285000Y-89300000D03*
X148015000Y-89300000D03*
X146745000Y-89300000D03*
D19*
X145745000Y-86515000D03*
X145745000Y-85245000D03*
X145745000Y-83975000D03*
X145745000Y-82705000D03*
X145745000Y-81435000D03*
X145745000Y-80165000D03*
X145745000Y-78895000D03*
X145745000Y-77625000D03*
X145745000Y-76355000D03*
X145745000Y-75085000D03*
D18*
X146745000Y-72300000D03*
X148015000Y-72300000D03*
X149285000Y-72300000D03*
X150555000Y-72300000D03*
X151825000Y-72300000D03*
X153095000Y-72300000D03*
X154365000Y-72300000D03*
X155635000Y-72300000D03*
X156905000Y-72300000D03*
X158175000Y-72300000D03*
X159445000Y-72300000D03*
X160715000Y-72300000D03*
X161985000Y-72300000D03*
X163255000Y-72300000D03*
D20*
X155755000Y-79800000D03*
%TD*%
%TO.C,R13*%
G36*
G01*
X136597500Y-73575000D02*
X136202500Y-73575000D01*
G75*
G02*
X136030000Y-73402500I0J172500D01*
G01*
X136030000Y-73057500D01*
G75*
G02*
X136202500Y-72885000I172500J0D01*
G01*
X136597500Y-72885000D01*
G75*
G02*
X136770000Y-73057500I0J-172500D01*
G01*
X136770000Y-73402500D01*
G75*
G02*
X136597500Y-73575000I-172500J0D01*
G01*
G37*
G36*
G01*
X136597500Y-74545000D02*
X136202500Y-74545000D01*
G75*
G02*
X136030000Y-74372500I0J172500D01*
G01*
X136030000Y-74027500D01*
G75*
G02*
X136202500Y-73855000I172500J0D01*
G01*
X136597500Y-73855000D01*
G75*
G02*
X136770000Y-74027500I0J-172500D01*
G01*
X136770000Y-74372500D01*
G75*
G02*
X136597500Y-74545000I-172500J0D01*
G01*
G37*
%TD*%
%TO.C,R12*%
G36*
G01*
X136597500Y-71460000D02*
X136202500Y-71460000D01*
G75*
G02*
X136030000Y-71287500I0J172500D01*
G01*
X136030000Y-70942500D01*
G75*
G02*
X136202500Y-70770000I172500J0D01*
G01*
X136597500Y-70770000D01*
G75*
G02*
X136770000Y-70942500I0J-172500D01*
G01*
X136770000Y-71287500D01*
G75*
G02*
X136597500Y-71460000I-172500J0D01*
G01*
G37*
G36*
G01*
X136597500Y-72430000D02*
X136202500Y-72430000D01*
G75*
G02*
X136030000Y-72257500I0J172500D01*
G01*
X136030000Y-71912500D01*
G75*
G02*
X136202500Y-71740000I172500J0D01*
G01*
X136597500Y-71740000D01*
G75*
G02*
X136770000Y-71912500I0J-172500D01*
G01*
X136770000Y-72257500D01*
G75*
G02*
X136597500Y-72430000I-172500J0D01*
G01*
G37*
%TD*%
%TO.C,R11*%
G36*
G01*
X141456000Y-82552500D02*
X141456000Y-82157500D01*
G75*
G02*
X141628500Y-81985000I172500J0D01*
G01*
X141973500Y-81985000D01*
G75*
G02*
X142146000Y-82157500I0J-172500D01*
G01*
X142146000Y-82552500D01*
G75*
G02*
X141973500Y-82725000I-172500J0D01*
G01*
X141628500Y-82725000D01*
G75*
G02*
X141456000Y-82552500I0J172500D01*
G01*
G37*
G36*
G01*
X140486000Y-82552500D02*
X140486000Y-82157500D01*
G75*
G02*
X140658500Y-81985000I172500J0D01*
G01*
X141003500Y-81985000D01*
G75*
G02*
X141176000Y-82157500I0J-172500D01*
G01*
X141176000Y-82552500D01*
G75*
G02*
X141003500Y-82725000I-172500J0D01*
G01*
X140658500Y-82725000D01*
G75*
G02*
X140486000Y-82552500I0J172500D01*
G01*
G37*
%TD*%
%TO.C,R10*%
G36*
G01*
X141456000Y-84952500D02*
X141456000Y-84557500D01*
G75*
G02*
X141628500Y-84385000I172500J0D01*
G01*
X141973500Y-84385000D01*
G75*
G02*
X142146000Y-84557500I0J-172500D01*
G01*
X142146000Y-84952500D01*
G75*
G02*
X141973500Y-85125000I-172500J0D01*
G01*
X141628500Y-85125000D01*
G75*
G02*
X141456000Y-84952500I0J172500D01*
G01*
G37*
G36*
G01*
X140486000Y-84952500D02*
X140486000Y-84557500D01*
G75*
G02*
X140658500Y-84385000I172500J0D01*
G01*
X141003500Y-84385000D01*
G75*
G02*
X141176000Y-84557500I0J-172500D01*
G01*
X141176000Y-84952500D01*
G75*
G02*
X141003500Y-85125000I-172500J0D01*
G01*
X140658500Y-85125000D01*
G75*
G02*
X140486000Y-84952500I0J172500D01*
G01*
G37*
%TD*%
%TO.C,R9*%
G36*
G01*
X147413500Y-124460000D02*
X147018500Y-124460000D01*
G75*
G02*
X146846000Y-124287500I0J172500D01*
G01*
X146846000Y-123942500D01*
G75*
G02*
X147018500Y-123770000I172500J0D01*
G01*
X147413500Y-123770000D01*
G75*
G02*
X147586000Y-123942500I0J-172500D01*
G01*
X147586000Y-124287500D01*
G75*
G02*
X147413500Y-124460000I-172500J0D01*
G01*
G37*
G36*
G01*
X147413500Y-125430000D02*
X147018500Y-125430000D01*
G75*
G02*
X146846000Y-125257500I0J172500D01*
G01*
X146846000Y-124912500D01*
G75*
G02*
X147018500Y-124740000I172500J0D01*
G01*
X147413500Y-124740000D01*
G75*
G02*
X147586000Y-124912500I0J-172500D01*
G01*
X147586000Y-125257500D01*
G75*
G02*
X147413500Y-125430000I-172500J0D01*
G01*
G37*
%TD*%
%TO.C,R8*%
G36*
G01*
X147018500Y-122540000D02*
X147413500Y-122540000D01*
G75*
G02*
X147586000Y-122712500I0J-172500D01*
G01*
X147586000Y-123057500D01*
G75*
G02*
X147413500Y-123230000I-172500J0D01*
G01*
X147018500Y-123230000D01*
G75*
G02*
X146846000Y-123057500I0J172500D01*
G01*
X146846000Y-122712500D01*
G75*
G02*
X147018500Y-122540000I172500J0D01*
G01*
G37*
G36*
G01*
X147018500Y-121570000D02*
X147413500Y-121570000D01*
G75*
G02*
X147586000Y-121742500I0J-172500D01*
G01*
X147586000Y-122087500D01*
G75*
G02*
X147413500Y-122260000I-172500J0D01*
G01*
X147018500Y-122260000D01*
G75*
G02*
X146846000Y-122087500I0J172500D01*
G01*
X146846000Y-121742500D01*
G75*
G02*
X147018500Y-121570000I172500J0D01*
G01*
G37*
%TD*%
%TO.C,R7*%
G36*
G01*
X155797500Y-127260000D02*
X155402500Y-127260000D01*
G75*
G02*
X155230000Y-127087500I0J172500D01*
G01*
X155230000Y-126742500D01*
G75*
G02*
X155402500Y-126570000I172500J0D01*
G01*
X155797500Y-126570000D01*
G75*
G02*
X155970000Y-126742500I0J-172500D01*
G01*
X155970000Y-127087500D01*
G75*
G02*
X155797500Y-127260000I-172500J0D01*
G01*
G37*
G36*
G01*
X155797500Y-128230000D02*
X155402500Y-128230000D01*
G75*
G02*
X155230000Y-128057500I0J172500D01*
G01*
X155230000Y-127712500D01*
G75*
G02*
X155402500Y-127540000I172500J0D01*
G01*
X155797500Y-127540000D01*
G75*
G02*
X155970000Y-127712500I0J-172500D01*
G01*
X155970000Y-128057500D01*
G75*
G02*
X155797500Y-128230000I-172500J0D01*
G01*
G37*
%TD*%
%TO.C,R6*%
G36*
G01*
X152197500Y-127260000D02*
X151802500Y-127260000D01*
G75*
G02*
X151630000Y-127087500I0J172500D01*
G01*
X151630000Y-126742500D01*
G75*
G02*
X151802500Y-126570000I172500J0D01*
G01*
X152197500Y-126570000D01*
G75*
G02*
X152370000Y-126742500I0J-172500D01*
G01*
X152370000Y-127087500D01*
G75*
G02*
X152197500Y-127260000I-172500J0D01*
G01*
G37*
G36*
G01*
X152197500Y-128230000D02*
X151802500Y-128230000D01*
G75*
G02*
X151630000Y-128057500I0J172500D01*
G01*
X151630000Y-127712500D01*
G75*
G02*
X151802500Y-127540000I172500J0D01*
G01*
X152197500Y-127540000D01*
G75*
G02*
X152370000Y-127712500I0J-172500D01*
G01*
X152370000Y-128057500D01*
G75*
G02*
X152197500Y-128230000I-172500J0D01*
G01*
G37*
%TD*%
%TO.C,R5*%
G36*
G01*
X153397500Y-127260000D02*
X153002500Y-127260000D01*
G75*
G02*
X152830000Y-127087500I0J172500D01*
G01*
X152830000Y-126742500D01*
G75*
G02*
X153002500Y-126570000I172500J0D01*
G01*
X153397500Y-126570000D01*
G75*
G02*
X153570000Y-126742500I0J-172500D01*
G01*
X153570000Y-127087500D01*
G75*
G02*
X153397500Y-127260000I-172500J0D01*
G01*
G37*
G36*
G01*
X153397500Y-128230000D02*
X153002500Y-128230000D01*
G75*
G02*
X152830000Y-128057500I0J172500D01*
G01*
X152830000Y-127712500D01*
G75*
G02*
X153002500Y-127540000I172500J0D01*
G01*
X153397500Y-127540000D01*
G75*
G02*
X153570000Y-127712500I0J-172500D01*
G01*
X153570000Y-128057500D01*
G75*
G02*
X153397500Y-128230000I-172500J0D01*
G01*
G37*
%TD*%
%TO.C,R4*%
G36*
G01*
X132602500Y-119940000D02*
X132997500Y-119940000D01*
G75*
G02*
X133170000Y-120112500I0J-172500D01*
G01*
X133170000Y-120457500D01*
G75*
G02*
X132997500Y-120630000I-172500J0D01*
G01*
X132602500Y-120630000D01*
G75*
G02*
X132430000Y-120457500I0J172500D01*
G01*
X132430000Y-120112500D01*
G75*
G02*
X132602500Y-119940000I172500J0D01*
G01*
G37*
G36*
G01*
X132602500Y-118970000D02*
X132997500Y-118970000D01*
G75*
G02*
X133170000Y-119142500I0J-172500D01*
G01*
X133170000Y-119487500D01*
G75*
G02*
X132997500Y-119660000I-172500J0D01*
G01*
X132602500Y-119660000D01*
G75*
G02*
X132430000Y-119487500I0J172500D01*
G01*
X132430000Y-119142500D01*
G75*
G02*
X132602500Y-118970000I172500J0D01*
G01*
G37*
%TD*%
%TO.C,R3*%
G36*
G01*
X134602500Y-119940000D02*
X134997500Y-119940000D01*
G75*
G02*
X135170000Y-120112500I0J-172500D01*
G01*
X135170000Y-120457500D01*
G75*
G02*
X134997500Y-120630000I-172500J0D01*
G01*
X134602500Y-120630000D01*
G75*
G02*
X134430000Y-120457500I0J172500D01*
G01*
X134430000Y-120112500D01*
G75*
G02*
X134602500Y-119940000I172500J0D01*
G01*
G37*
G36*
G01*
X134602500Y-118970000D02*
X134997500Y-118970000D01*
G75*
G02*
X135170000Y-119142500I0J-172500D01*
G01*
X135170000Y-119487500D01*
G75*
G02*
X134997500Y-119660000I-172500J0D01*
G01*
X134602500Y-119660000D01*
G75*
G02*
X134430000Y-119487500I0J172500D01*
G01*
X134430000Y-119142500D01*
G75*
G02*
X134602500Y-118970000I172500J0D01*
G01*
G37*
%TD*%
%TO.C,R2*%
G36*
G01*
X135317500Y-89542000D02*
X135712500Y-89542000D01*
G75*
G02*
X135885000Y-89714500I0J-172500D01*
G01*
X135885000Y-90059500D01*
G75*
G02*
X135712500Y-90232000I-172500J0D01*
G01*
X135317500Y-90232000D01*
G75*
G02*
X135145000Y-90059500I0J172500D01*
G01*
X135145000Y-89714500D01*
G75*
G02*
X135317500Y-89542000I172500J0D01*
G01*
G37*
G36*
G01*
X135317500Y-88572000D02*
X135712500Y-88572000D01*
G75*
G02*
X135885000Y-88744500I0J-172500D01*
G01*
X135885000Y-89089500D01*
G75*
G02*
X135712500Y-89262000I-172500J0D01*
G01*
X135317500Y-89262000D01*
G75*
G02*
X135145000Y-89089500I0J172500D01*
G01*
X135145000Y-88744500D01*
G75*
G02*
X135317500Y-88572000I172500J0D01*
G01*
G37*
%TD*%
%TO.C,R1*%
G36*
G01*
X159602500Y-69140000D02*
X159997500Y-69140000D01*
G75*
G02*
X160170000Y-69312500I0J-172500D01*
G01*
X160170000Y-69657500D01*
G75*
G02*
X159997500Y-69830000I-172500J0D01*
G01*
X159602500Y-69830000D01*
G75*
G02*
X159430000Y-69657500I0J172500D01*
G01*
X159430000Y-69312500D01*
G75*
G02*
X159602500Y-69140000I172500J0D01*
G01*
G37*
G36*
G01*
X159602500Y-68170000D02*
X159997500Y-68170000D01*
G75*
G02*
X160170000Y-68342500I0J-172500D01*
G01*
X160170000Y-68687500D01*
G75*
G02*
X159997500Y-68860000I-172500J0D01*
G01*
X159602500Y-68860000D01*
G75*
G02*
X159430000Y-68687500I0J172500D01*
G01*
X159430000Y-68342500D01*
G75*
G02*
X159602500Y-68170000I172500J0D01*
G01*
G37*
%TD*%
D21*
%TO.C,Q2*%
X143416000Y-124400000D03*
X145416000Y-123450000D03*
X145416000Y-125350000D03*
%TD*%
%TO.C,Q1*%
X143416000Y-120800000D03*
X145416000Y-119850000D03*
X145416000Y-121750000D03*
%TD*%
D11*
%TO.C,J5*%
X135600000Y-77803000D03*
D12*
X135600000Y-80343000D03*
%TD*%
D22*
%TO.C,J4*%
X163755000Y-120750000D03*
X163755000Y-121550000D03*
X163755000Y-126450000D03*
X163755000Y-127250000D03*
X163755000Y-127250000D03*
X163755000Y-126450000D03*
X163755000Y-121550000D03*
X163755000Y-120750000D03*
D23*
X163755000Y-125750000D03*
X163755000Y-125250000D03*
X163755000Y-124750000D03*
X163755000Y-123750000D03*
X163755000Y-123250000D03*
X163755000Y-122750000D03*
X163755000Y-122250000D03*
X163755000Y-124250000D03*
D24*
X164670000Y-119680000D03*
X164670000Y-128320000D03*
D25*
X165200000Y-126890000D03*
D26*
X168850000Y-128320000D03*
D25*
X165200000Y-121110000D03*
D26*
X168850000Y-119680000D03*
%TD*%
D11*
%TO.C,J3*%
X135600000Y-103940000D03*
D12*
X135600000Y-101400000D03*
%TD*%
D11*
%TO.C,J2*%
X168940000Y-97820000D03*
X166400000Y-97820000D03*
X168940000Y-100360000D03*
X166400000Y-100360000D03*
X168940000Y-102900000D03*
X166400000Y-102900000D03*
X168940000Y-105440000D03*
X166400000Y-105440000D03*
X168940000Y-107980000D03*
X166400000Y-107980000D03*
X168940000Y-110520000D03*
X166400000Y-110520000D03*
X168940000Y-113060000D03*
X166400000Y-113060000D03*
X168940000Y-115600000D03*
D12*
X166400000Y-115600000D03*
%TD*%
D27*
%TO.C,D4*%
X143150000Y-104800000D03*
X145250000Y-104800000D03*
%TD*%
%TO.C,D3*%
X148650000Y-104800000D03*
X146550000Y-104800000D03*
%TD*%
%TO.C,D2*%
X145250000Y-106800000D03*
X143150000Y-106800000D03*
%TD*%
%TO.C,D1*%
G36*
G01*
X135283750Y-86782000D02*
X135846250Y-86782000D01*
G75*
G02*
X136090000Y-87025750I0J-243750D01*
G01*
X136090000Y-87513250D01*
G75*
G02*
X135846250Y-87757000I-243750J0D01*
G01*
X135283750Y-87757000D01*
G75*
G02*
X135040000Y-87513250I0J243750D01*
G01*
X135040000Y-87025750D01*
G75*
G02*
X135283750Y-86782000I243750J0D01*
G01*
G37*
G36*
G01*
X135283750Y-85207000D02*
X135846250Y-85207000D01*
G75*
G02*
X136090000Y-85450750I0J-243750D01*
G01*
X136090000Y-85938250D01*
G75*
G02*
X135846250Y-86182000I-243750J0D01*
G01*
X135283750Y-86182000D01*
G75*
G02*
X135040000Y-85938250I0J243750D01*
G01*
X135040000Y-85450750D01*
G75*
G02*
X135283750Y-85207000I243750J0D01*
G01*
G37*
%TD*%
%TO.C,C14*%
G36*
G01*
X136202500Y-69540000D02*
X136597500Y-69540000D01*
G75*
G02*
X136770000Y-69712500I0J-172500D01*
G01*
X136770000Y-70057500D01*
G75*
G02*
X136597500Y-70230000I-172500J0D01*
G01*
X136202500Y-70230000D01*
G75*
G02*
X136030000Y-70057500I0J172500D01*
G01*
X136030000Y-69712500D01*
G75*
G02*
X136202500Y-69540000I172500J0D01*
G01*
G37*
G36*
G01*
X136202500Y-68570000D02*
X136597500Y-68570000D01*
G75*
G02*
X136770000Y-68742500I0J-172500D01*
G01*
X136770000Y-69087500D01*
G75*
G02*
X136597500Y-69260000I-172500J0D01*
G01*
X136202500Y-69260000D01*
G75*
G02*
X136030000Y-69087500I0J172500D01*
G01*
X136030000Y-68742500D01*
G75*
G02*
X136202500Y-68570000I172500J0D01*
G01*
G37*
%TD*%
%TO.C,C13*%
G36*
G01*
X134993500Y-71740000D02*
X135388500Y-71740000D01*
G75*
G02*
X135561000Y-71912500I0J-172500D01*
G01*
X135561000Y-72257500D01*
G75*
G02*
X135388500Y-72430000I-172500J0D01*
G01*
X134993500Y-72430000D01*
G75*
G02*
X134821000Y-72257500I0J172500D01*
G01*
X134821000Y-71912500D01*
G75*
G02*
X134993500Y-71740000I172500J0D01*
G01*
G37*
G36*
G01*
X134993500Y-70770000D02*
X135388500Y-70770000D01*
G75*
G02*
X135561000Y-70942500I0J-172500D01*
G01*
X135561000Y-71287500D01*
G75*
G02*
X135388500Y-71460000I-172500J0D01*
G01*
X134993500Y-71460000D01*
G75*
G02*
X134821000Y-71287500I0J172500D01*
G01*
X134821000Y-70942500D01*
G75*
G02*
X134993500Y-70770000I172500J0D01*
G01*
G37*
%TD*%
%TO.C,C12*%
G36*
G01*
X141176000Y-83320500D02*
X141176000Y-83715500D01*
G75*
G02*
X141003500Y-83888000I-172500J0D01*
G01*
X140658500Y-83888000D01*
G75*
G02*
X140486000Y-83715500I0J172500D01*
G01*
X140486000Y-83320500D01*
G75*
G02*
X140658500Y-83148000I172500J0D01*
G01*
X141003500Y-83148000D01*
G75*
G02*
X141176000Y-83320500I0J-172500D01*
G01*
G37*
G36*
G01*
X142146000Y-83320500D02*
X142146000Y-83715500D01*
G75*
G02*
X141973500Y-83888000I-172500J0D01*
G01*
X141628500Y-83888000D01*
G75*
G02*
X141456000Y-83715500I0J172500D01*
G01*
X141456000Y-83320500D01*
G75*
G02*
X141628500Y-83148000I172500J0D01*
G01*
X141973500Y-83148000D01*
G75*
G02*
X142146000Y-83320500I0J-172500D01*
G01*
G37*
%TD*%
%TO.C,C11*%
G36*
G01*
X141147000Y-81034500D02*
X141147000Y-81429500D01*
G75*
G02*
X140974500Y-81602000I-172500J0D01*
G01*
X140629500Y-81602000D01*
G75*
G02*
X140457000Y-81429500I0J172500D01*
G01*
X140457000Y-81034500D01*
G75*
G02*
X140629500Y-80862000I172500J0D01*
G01*
X140974500Y-80862000D01*
G75*
G02*
X141147000Y-81034500I0J-172500D01*
G01*
G37*
G36*
G01*
X142117000Y-81034500D02*
X142117000Y-81429500D01*
G75*
G02*
X141944500Y-81602000I-172500J0D01*
G01*
X141599500Y-81602000D01*
G75*
G02*
X141427000Y-81429500I0J172500D01*
G01*
X141427000Y-81034500D01*
G75*
G02*
X141599500Y-80862000I172500J0D01*
G01*
X141944500Y-80862000D01*
G75*
G02*
X142117000Y-81034500I0J-172500D01*
G01*
G37*
%TD*%
%TO.C,C9*%
G36*
G01*
X141600000Y-101718750D02*
X141600000Y-102681250D01*
G75*
G02*
X141331250Y-102950000I-268750J0D01*
G01*
X140793750Y-102950000D01*
G75*
G02*
X140525000Y-102681250I0J268750D01*
G01*
X140525000Y-101718750D01*
G75*
G02*
X140793750Y-101450000I268750J0D01*
G01*
X141331250Y-101450000D01*
G75*
G02*
X141600000Y-101718750I0J-268750D01*
G01*
G37*
G36*
G01*
X143475000Y-101718750D02*
X143475000Y-102681250D01*
G75*
G02*
X143206250Y-102950000I-268750J0D01*
G01*
X142668750Y-102950000D01*
G75*
G02*
X142400000Y-102681250I0J268750D01*
G01*
X142400000Y-101718750D01*
G75*
G02*
X142668750Y-101450000I268750J0D01*
G01*
X143206250Y-101450000D01*
G75*
G02*
X143475000Y-101718750I0J-268750D01*
G01*
G37*
%TD*%
%TO.C,C7*%
G36*
G01*
X146200000Y-102681250D02*
X146200000Y-101718750D01*
G75*
G02*
X146468750Y-101450000I268750J0D01*
G01*
X147006250Y-101450000D01*
G75*
G02*
X147275000Y-101718750I0J-268750D01*
G01*
X147275000Y-102681250D01*
G75*
G02*
X147006250Y-102950000I-268750J0D01*
G01*
X146468750Y-102950000D01*
G75*
G02*
X146200000Y-102681250I0J268750D01*
G01*
G37*
G36*
G01*
X144325000Y-102681250D02*
X144325000Y-101718750D01*
G75*
G02*
X144593750Y-101450000I268750J0D01*
G01*
X145131250Y-101450000D01*
G75*
G02*
X145400000Y-101718750I0J-268750D01*
G01*
X145400000Y-102681250D01*
G75*
G02*
X145131250Y-102950000I-268750J0D01*
G01*
X144593750Y-102950000D01*
G75*
G02*
X144325000Y-102681250I0J268750D01*
G01*
G37*
%TD*%
%TO.C,C6*%
G36*
G01*
X161345000Y-96102500D02*
X161345000Y-96497500D01*
G75*
G02*
X161172500Y-96670000I-172500J0D01*
G01*
X160827500Y-96670000D01*
G75*
G02*
X160655000Y-96497500I0J172500D01*
G01*
X160655000Y-96102500D01*
G75*
G02*
X160827500Y-95930000I172500J0D01*
G01*
X161172500Y-95930000D01*
G75*
G02*
X161345000Y-96102500I0J-172500D01*
G01*
G37*
G36*
G01*
X162315000Y-96102500D02*
X162315000Y-96497500D01*
G75*
G02*
X162142500Y-96670000I-172500J0D01*
G01*
X161797500Y-96670000D01*
G75*
G02*
X161625000Y-96497500I0J172500D01*
G01*
X161625000Y-96102500D01*
G75*
G02*
X161797500Y-95930000I172500J0D01*
G01*
X162142500Y-95930000D01*
G75*
G02*
X162315000Y-96102500I0J-172500D01*
G01*
G37*
%TD*%
%TO.C,C5*%
G36*
G01*
X159160000Y-103802500D02*
X159160000Y-104197500D01*
G75*
G02*
X158987500Y-104370000I-172500J0D01*
G01*
X158642500Y-104370000D01*
G75*
G02*
X158470000Y-104197500I0J172500D01*
G01*
X158470000Y-103802500D01*
G75*
G02*
X158642500Y-103630000I172500J0D01*
G01*
X158987500Y-103630000D01*
G75*
G02*
X159160000Y-103802500I0J-172500D01*
G01*
G37*
G36*
G01*
X160130000Y-103802500D02*
X160130000Y-104197500D01*
G75*
G02*
X159957500Y-104370000I-172500J0D01*
G01*
X159612500Y-104370000D01*
G75*
G02*
X159440000Y-104197500I0J172500D01*
G01*
X159440000Y-103802500D01*
G75*
G02*
X159612500Y-103630000I172500J0D01*
G01*
X159957500Y-103630000D01*
G75*
G02*
X160130000Y-103802500I0J-172500D01*
G01*
G37*
%TD*%
%TO.C,C4*%
G36*
G01*
X134100000Y-124881250D02*
X134100000Y-124318750D01*
G75*
G02*
X134343750Y-124075000I243750J0D01*
G01*
X134831250Y-124075000D01*
G75*
G02*
X135075000Y-124318750I0J-243750D01*
G01*
X135075000Y-124881250D01*
G75*
G02*
X134831250Y-125125000I-243750J0D01*
G01*
X134343750Y-125125000D01*
G75*
G02*
X134100000Y-124881250I0J243750D01*
G01*
G37*
G36*
G01*
X132525000Y-124881250D02*
X132525000Y-124318750D01*
G75*
G02*
X132768750Y-124075000I243750J0D01*
G01*
X133256250Y-124075000D01*
G75*
G02*
X133500000Y-124318750I0J-243750D01*
G01*
X133500000Y-124881250D01*
G75*
G02*
X133256250Y-125125000I-243750J0D01*
G01*
X132768750Y-125125000D01*
G75*
G02*
X132525000Y-124881250I0J243750D01*
G01*
G37*
%TD*%
%TO.C,C3*%
G36*
G01*
X162800000Y-67881250D02*
X162800000Y-66918750D01*
G75*
G02*
X163068750Y-66650000I268750J0D01*
G01*
X163606250Y-66650000D01*
G75*
G02*
X163875000Y-66918750I0J-268750D01*
G01*
X163875000Y-67881250D01*
G75*
G02*
X163606250Y-68150000I-268750J0D01*
G01*
X163068750Y-68150000D01*
G75*
G02*
X162800000Y-67881250I0J268750D01*
G01*
G37*
G36*
G01*
X160925000Y-67881250D02*
X160925000Y-66918750D01*
G75*
G02*
X161193750Y-66650000I268750J0D01*
G01*
X161731250Y-66650000D01*
G75*
G02*
X162000000Y-66918750I0J-268750D01*
G01*
X162000000Y-67881250D01*
G75*
G02*
X161731250Y-68150000I-268750J0D01*
G01*
X161193750Y-68150000D01*
G75*
G02*
X160925000Y-67881250I0J268750D01*
G01*
G37*
%TD*%
%TO.C,C2*%
G36*
G01*
X162700000Y-69681250D02*
X162700000Y-69118750D01*
G75*
G02*
X162943750Y-68875000I243750J0D01*
G01*
X163431250Y-68875000D01*
G75*
G02*
X163675000Y-69118750I0J-243750D01*
G01*
X163675000Y-69681250D01*
G75*
G02*
X163431250Y-69925000I-243750J0D01*
G01*
X162943750Y-69925000D01*
G75*
G02*
X162700000Y-69681250I0J243750D01*
G01*
G37*
G36*
G01*
X161125000Y-69681250D02*
X161125000Y-69118750D01*
G75*
G02*
X161368750Y-68875000I243750J0D01*
G01*
X161856250Y-68875000D01*
G75*
G02*
X162100000Y-69118750I0J-243750D01*
G01*
X162100000Y-69681250D01*
G75*
G02*
X161856250Y-69925000I-243750J0D01*
G01*
X161368750Y-69925000D01*
G75*
G02*
X161125000Y-69681250I0J243750D01*
G01*
G37*
%TD*%
%TO.C,C1*%
G36*
G01*
X158797500Y-68860000D02*
X158402500Y-68860000D01*
G75*
G02*
X158230000Y-68687500I0J172500D01*
G01*
X158230000Y-68342500D01*
G75*
G02*
X158402500Y-68170000I172500J0D01*
G01*
X158797500Y-68170000D01*
G75*
G02*
X158970000Y-68342500I0J-172500D01*
G01*
X158970000Y-68687500D01*
G75*
G02*
X158797500Y-68860000I-172500J0D01*
G01*
G37*
G36*
G01*
X158797500Y-69830000D02*
X158402500Y-69830000D01*
G75*
G02*
X158230000Y-69657500I0J172500D01*
G01*
X158230000Y-69312500D01*
G75*
G02*
X158402500Y-69140000I172500J0D01*
G01*
X158797500Y-69140000D01*
G75*
G02*
X158970000Y-69312500I0J-172500D01*
G01*
X158970000Y-69657500D01*
G75*
G02*
X158797500Y-69830000I-172500J0D01*
G01*
G37*
%TD*%
M02*
