M48
; DRILL file {KiCad (5.1.6)-1} date 03/09/21 02:14:17
; FORMAT={-:-/ absolute / metric / decimal}
; #@! TF.CreationDate,2021-03-09T02:14:17+08:00
; #@! TF.GenerationSoftware,Kicad,Pcbnew,(5.1.6)-1
FMAT,2
METRIC
T1C0.350
T2C0.600
T3C0.762
T4C1.000
T5C0.650
%
G90
G05
T1
X132.0Y-71.8
X132.0Y-74.222
X132.0Y-76.644
X132.0Y-79.067
X132.0Y-81.489
X132.0Y-83.911
X132.0Y-86.333
X132.0Y-88.756
X132.0Y-91.178
X132.0Y-93.6
X132.8Y-118.8
X132.875Y-123.725
X134.5Y-118.7
X137.085Y-69.885
X137.604Y-75.771
X138.366Y-87.836
X138.493Y-77.676
X138.493Y-86.185
X138.62Y-72.342
X139.255Y-88.725
X139.636Y-87.963
X140.144Y-100.337
X140.144Y-101.137
X140.271Y-75.517
X140.635Y-72.235
X140.652Y-88.725
X140.779Y-78.565
X140.779Y-86.693
X141.062Y-100.337
X141.062Y-101.137
X142.049Y-80.597
X142.176Y-83.772
X142.176Y-86.566
X143.319Y-71.072
X143.827Y-70.564
X144.462Y-87.328
X144.6Y-73.8
X145.097Y-87.836
X145.1Y-74.3
X147.764Y-101.679
X148.14Y-124.05
X148.2Y-86.8
X148.2Y-92.6
X148.2Y-102.2
X148.6Y-94.6
X148.7Y-93.3
X148.8Y-96.0
X149.2Y-87.4
X149.6Y-86.6
X149.6Y-121.6
X150.2Y-104.4
X150.2Y-111.6
X150.4Y-86.4
X151.066Y-111.712
X151.574Y-69.802
X151.6Y-91.4
X151.701Y-84.407
X151.825Y-87.225
X152.082Y-128.8
X152.275Y-111.125
X152.8Y-121.6
X152.8Y-122.6
X152.971Y-128.73
X153.0Y-86.8
X153.5Y-102.8
X153.537Y-104.537
X154.0Y-121.6
X154.0Y-122.6
X154.206Y-95.606
X154.368Y-86.693
X154.4Y-128.2
X154.6Y-78.8
X154.6Y-81.0
X155.4Y-91.4
X155.4Y-105.9
X155.6Y-80.0
X156.2Y-125.8
X156.237Y-106.047
X156.6Y-78.8
X156.6Y-81.0
X156.885Y-68.515
X156.908Y-123.523
X157.485Y-68.515
X158.178Y-104.6
X158.4Y-96.1
X158.813Y-122.38
X159.067Y-126.317
X159.321Y-112.982
X159.7Y-95.1
X160.4Y-104.0
X160.862Y-68.515
X161.0Y-93.8
X161.3Y-95.2
X161.4Y-103.2
X161.4Y-107.6
X161.442Y-106.642
X161.497Y-68.515
X161.6Y-105.6
X162.261Y-123.25
X162.3Y-92.6
X162.3Y-96.3
X162.369Y-124.158
X163.188Y-66.013
X163.255Y-74.4
X163.255Y-91.345
X163.9Y-95.4
X164.4Y-66.4
X164.4Y-68.4
X164.4Y-70.4
X164.4Y-72.4
X164.4Y-74.4
X164.4Y-76.086
X164.4Y-77.771
X164.4Y-79.457
X164.4Y-81.143
X164.4Y-82.829
X164.4Y-84.514
X164.4Y-86.2
X165.2Y-95.4
X166.4Y-95.4
X167.6Y-95.4
X168.8Y-95.4
X170.0Y-95.4
T3
X149.288Y-67.135
X151.828Y-67.135
X154.368Y-67.135
T4
X143.954Y-115.395
X146.494Y-115.395
X149.034Y-115.395
X151.574Y-115.395
X154.114Y-115.395
X156.654Y-115.395
X135.6Y-77.803
X135.6Y-80.343
X166.4Y-97.82
X166.4Y-100.36
X166.4Y-102.9
X166.4Y-105.44
X166.4Y-107.98
X166.4Y-110.52
X166.4Y-113.06
X166.4Y-115.6
X168.94Y-97.82
X168.94Y-100.36
X168.94Y-102.9
X168.94Y-105.44
X168.94Y-107.98
X168.94Y-110.52
X168.94Y-113.06
X168.94Y-115.6
X135.6Y-101.4
X135.6Y-103.94
T5
X165.2Y-121.11
X165.2Y-126.89
T2
G00X164.12Y-119.68
M15
G01X165.22Y-119.68
M16
G05
G00X164.12Y-128.32
M15
G01X165.22Y-128.32
M16
G05
G00X168.55Y-119.68
M15
G01X169.15Y-119.68
M16
G05
G00X168.55Y-128.32
M15
G01X169.15Y-128.32
M16
G05
T0
M30
