%TF.GenerationSoftware,KiCad,Pcbnew,(5.1.6)-1*%
%TF.CreationDate,2021-03-09T02:14:13+08:00*%
%TF.ProjectId,matrix-clock,6d617472-6978-42d6-936c-6f636b2e6b69,rev?*%
%TF.SameCoordinates,Original*%
%TF.FileFunction,Legend,Top*%
%TF.FilePolarity,Positive*%
%FSLAX46Y46*%
G04 Gerber Fmt 4.6, Leading zero omitted, Abs format (unit mm)*
G04 Created by KiCad (PCBNEW (5.1.6)-1) date 2021-03-09 02:14:13*
%MOMM*%
%LPD*%
G01*
G04 APERTURE LIST*
%ADD10C,0.150000*%
%ADD11C,0.010000*%
%ADD12C,0.120000*%
G04 APERTURE END LIST*
D10*
X131838095Y-100900000D02*
X131742857Y-100852380D01*
X131600000Y-100852380D01*
X131457142Y-100900000D01*
X131361904Y-100995238D01*
X131314285Y-101090476D01*
X131266666Y-101280952D01*
X131266666Y-101423809D01*
X131314285Y-101614285D01*
X131361904Y-101709523D01*
X131457142Y-101804761D01*
X131600000Y-101852380D01*
X131695238Y-101852380D01*
X131838095Y-101804761D01*
X131885714Y-101757142D01*
X131885714Y-101423809D01*
X131695238Y-101423809D01*
X132314285Y-101852380D02*
X132314285Y-100852380D01*
X132885714Y-101852380D01*
X132885714Y-100852380D01*
X133361904Y-101852380D02*
X133361904Y-100852380D01*
X133600000Y-100852380D01*
X133742857Y-100900000D01*
X133838095Y-100995238D01*
X133885714Y-101090476D01*
X133933333Y-101280952D01*
X133933333Y-101423809D01*
X133885714Y-101614285D01*
X133838095Y-101709523D01*
X133742857Y-101804761D01*
X133600000Y-101852380D01*
X133361904Y-101852380D01*
X132409523Y-103652380D02*
X131933333Y-103652380D01*
X131885714Y-104128571D01*
X131933333Y-104080952D01*
X132028571Y-104033333D01*
X132266666Y-104033333D01*
X132361904Y-104080952D01*
X132409523Y-104128571D01*
X132457142Y-104223809D01*
X132457142Y-104461904D01*
X132409523Y-104557142D01*
X132361904Y-104604761D01*
X132266666Y-104652380D01*
X132028571Y-104652380D01*
X131933333Y-104604761D01*
X131885714Y-104557142D01*
X132742857Y-103652380D02*
X133076190Y-104652380D01*
X133409523Y-103652380D01*
X163666666Y-115100000D02*
X163600000Y-115052380D01*
X163500000Y-115052380D01*
X163400000Y-115100000D01*
X163333333Y-115195238D01*
X163300000Y-115290476D01*
X163266666Y-115480952D01*
X163266666Y-115623809D01*
X163300000Y-115814285D01*
X163333333Y-115909523D01*
X163400000Y-116004761D01*
X163500000Y-116052380D01*
X163566666Y-116052380D01*
X163666666Y-116004761D01*
X163700000Y-115957142D01*
X163700000Y-115623809D01*
X163566666Y-115623809D01*
X164000000Y-116052380D02*
X164000000Y-115052380D01*
X164400000Y-116052380D01*
X164400000Y-115052380D01*
X164733333Y-116052380D02*
X164733333Y-115052380D01*
X164900000Y-115052380D01*
X165000000Y-115100000D01*
X165066666Y-115195238D01*
X165100000Y-115290476D01*
X165133333Y-115480952D01*
X165133333Y-115623809D01*
X165100000Y-115814285D01*
X165066666Y-115909523D01*
X165000000Y-116004761D01*
X164900000Y-116052380D01*
X164733333Y-116052380D01*
X163666666Y-112500000D02*
X163600000Y-112452380D01*
X163500000Y-112452380D01*
X163400000Y-112500000D01*
X163333333Y-112595238D01*
X163300000Y-112690476D01*
X163266666Y-112880952D01*
X163266666Y-113023809D01*
X163300000Y-113214285D01*
X163333333Y-113309523D01*
X163400000Y-113404761D01*
X163500000Y-113452380D01*
X163566666Y-113452380D01*
X163666666Y-113404761D01*
X163700000Y-113357142D01*
X163700000Y-113023809D01*
X163566666Y-113023809D01*
X164000000Y-113452380D02*
X164000000Y-112452380D01*
X164400000Y-113452380D01*
X164400000Y-112452380D01*
X164733333Y-113452380D02*
X164733333Y-112452380D01*
X164900000Y-112452380D01*
X165000000Y-112500000D01*
X165066666Y-112595238D01*
X165100000Y-112690476D01*
X165133333Y-112880952D01*
X165133333Y-113023809D01*
X165100000Y-113214285D01*
X165066666Y-113309523D01*
X165000000Y-113404761D01*
X164900000Y-113452380D01*
X164733333Y-113452380D01*
X163666666Y-99700000D02*
X163600000Y-99652380D01*
X163500000Y-99652380D01*
X163400000Y-99700000D01*
X163333333Y-99795238D01*
X163300000Y-99890476D01*
X163266666Y-100080952D01*
X163266666Y-100223809D01*
X163300000Y-100414285D01*
X163333333Y-100509523D01*
X163400000Y-100604761D01*
X163500000Y-100652380D01*
X163566666Y-100652380D01*
X163666666Y-100604761D01*
X163700000Y-100557142D01*
X163700000Y-100223809D01*
X163566666Y-100223809D01*
X164000000Y-100652380D02*
X164000000Y-99652380D01*
X164400000Y-100652380D01*
X164400000Y-99652380D01*
X164733333Y-100652380D02*
X164733333Y-99652380D01*
X164900000Y-99652380D01*
X165000000Y-99700000D01*
X165066666Y-99795238D01*
X165100000Y-99890476D01*
X165133333Y-100080952D01*
X165133333Y-100223809D01*
X165100000Y-100414285D01*
X165066666Y-100509523D01*
X165000000Y-100604761D01*
X164900000Y-100652380D01*
X164733333Y-100652380D01*
X163666666Y-109900000D02*
X163600000Y-109852380D01*
X163500000Y-109852380D01*
X163400000Y-109900000D01*
X163333333Y-109995238D01*
X163300000Y-110090476D01*
X163266666Y-110280952D01*
X163266666Y-110423809D01*
X163300000Y-110614285D01*
X163333333Y-110709523D01*
X163400000Y-110804761D01*
X163500000Y-110852380D01*
X163566666Y-110852380D01*
X163666666Y-110804761D01*
X163700000Y-110757142D01*
X163700000Y-110423809D01*
X163566666Y-110423809D01*
X164000000Y-110852380D02*
X164000000Y-109852380D01*
X164400000Y-110852380D01*
X164400000Y-109852380D01*
X164733333Y-110852380D02*
X164733333Y-109852380D01*
X164900000Y-109852380D01*
X165000000Y-109900000D01*
X165066666Y-109995238D01*
X165100000Y-110090476D01*
X165133333Y-110280952D01*
X165133333Y-110423809D01*
X165100000Y-110614285D01*
X165066666Y-110709523D01*
X165000000Y-110804761D01*
X164900000Y-110852380D01*
X164733333Y-110852380D01*
X162233333Y-115766666D02*
X162566666Y-115766666D01*
X162166666Y-116052380D02*
X162400000Y-115052380D01*
X162633333Y-116052380D01*
X162450000Y-112928571D02*
X162550000Y-112976190D01*
X162583333Y-113023809D01*
X162616666Y-113119047D01*
X162616666Y-113261904D01*
X162583333Y-113357142D01*
X162550000Y-113404761D01*
X162483333Y-113452380D01*
X162216666Y-113452380D01*
X162216666Y-112452380D01*
X162450000Y-112452380D01*
X162516666Y-112500000D01*
X162550000Y-112547619D01*
X162583333Y-112642857D01*
X162583333Y-112738095D01*
X162550000Y-112833333D01*
X162516666Y-112880952D01*
X162450000Y-112928571D01*
X162216666Y-112928571D01*
X162616666Y-110757142D02*
X162583333Y-110804761D01*
X162483333Y-110852380D01*
X162416666Y-110852380D01*
X162316666Y-110804761D01*
X162250000Y-110709523D01*
X162216666Y-110614285D01*
X162183333Y-110423809D01*
X162183333Y-110280952D01*
X162216666Y-110090476D01*
X162250000Y-109995238D01*
X162316666Y-109900000D01*
X162416666Y-109852380D01*
X162483333Y-109852380D01*
X162583333Y-109900000D01*
X162616666Y-109947619D01*
X162216666Y-108452380D02*
X162216666Y-107452380D01*
X162383333Y-107452380D01*
X162483333Y-107500000D01*
X162550000Y-107595238D01*
X162583333Y-107690476D01*
X162616666Y-107880952D01*
X162616666Y-108023809D01*
X162583333Y-108214285D01*
X162550000Y-108309523D01*
X162483333Y-108404761D01*
X162383333Y-108452380D01*
X162216666Y-108452380D01*
X163816666Y-107452380D02*
X163950000Y-107452380D01*
X164016666Y-107500000D01*
X164083333Y-107595238D01*
X164116666Y-107785714D01*
X164116666Y-108119047D01*
X164083333Y-108309523D01*
X164016666Y-108404761D01*
X163950000Y-108452380D01*
X163816666Y-108452380D01*
X163750000Y-108404761D01*
X163683333Y-108309523D01*
X163650000Y-108119047D01*
X163650000Y-107785714D01*
X163683333Y-107595238D01*
X163750000Y-107500000D01*
X163816666Y-107452380D01*
X164416666Y-107928571D02*
X164650000Y-107928571D01*
X164750000Y-108452380D02*
X164416666Y-108452380D01*
X164416666Y-107452380D01*
X164750000Y-107452380D01*
X164083333Y-105852380D02*
X163850000Y-105376190D01*
X163683333Y-105852380D02*
X163683333Y-104852380D01*
X163950000Y-104852380D01*
X164016666Y-104900000D01*
X164050000Y-104947619D01*
X164083333Y-105042857D01*
X164083333Y-105185714D01*
X164050000Y-105280952D01*
X164016666Y-105328571D01*
X163950000Y-105376190D01*
X163683333Y-105376190D01*
X164750000Y-105852380D02*
X164350000Y-105852380D01*
X164550000Y-105852380D02*
X164550000Y-104852380D01*
X164483333Y-104995238D01*
X164416666Y-105090476D01*
X164350000Y-105138095D01*
X162250000Y-104900000D02*
X162183333Y-104852380D01*
X162083333Y-104852380D01*
X161983333Y-104900000D01*
X161916666Y-104995238D01*
X161883333Y-105090476D01*
X161850000Y-105280952D01*
X161850000Y-105423809D01*
X161883333Y-105614285D01*
X161916666Y-105709523D01*
X161983333Y-105804761D01*
X162083333Y-105852380D01*
X162150000Y-105852380D01*
X162250000Y-105804761D01*
X162283333Y-105757142D01*
X162283333Y-105423809D01*
X162150000Y-105423809D01*
X162950000Y-105852380D02*
X162550000Y-105852380D01*
X162750000Y-105852380D02*
X162750000Y-104852380D01*
X162683333Y-104995238D01*
X162616666Y-105090476D01*
X162550000Y-105138095D01*
X164083333Y-103252380D02*
X163850000Y-102776190D01*
X163683333Y-103252380D02*
X163683333Y-102252380D01*
X163950000Y-102252380D01*
X164016666Y-102300000D01*
X164050000Y-102347619D01*
X164083333Y-102442857D01*
X164083333Y-102585714D01*
X164050000Y-102680952D01*
X164016666Y-102728571D01*
X163950000Y-102776190D01*
X163683333Y-102776190D01*
X164350000Y-102347619D02*
X164383333Y-102300000D01*
X164450000Y-102252380D01*
X164616666Y-102252380D01*
X164683333Y-102300000D01*
X164716666Y-102347619D01*
X164750000Y-102442857D01*
X164750000Y-102538095D01*
X164716666Y-102680952D01*
X164316666Y-103252380D01*
X164750000Y-103252380D01*
X162250000Y-102300000D02*
X162183333Y-102252380D01*
X162083333Y-102252380D01*
X161983333Y-102300000D01*
X161916666Y-102395238D01*
X161883333Y-102490476D01*
X161850000Y-102680952D01*
X161850000Y-102823809D01*
X161883333Y-103014285D01*
X161916666Y-103109523D01*
X161983333Y-103204761D01*
X162083333Y-103252380D01*
X162150000Y-103252380D01*
X162250000Y-103204761D01*
X162283333Y-103157142D01*
X162283333Y-102823809D01*
X162150000Y-102823809D01*
X162550000Y-102347619D02*
X162583333Y-102300000D01*
X162650000Y-102252380D01*
X162816666Y-102252380D01*
X162883333Y-102300000D01*
X162916666Y-102347619D01*
X162950000Y-102442857D01*
X162950000Y-102538095D01*
X162916666Y-102680952D01*
X162516666Y-103252380D01*
X162950000Y-103252380D01*
X162150000Y-100652380D02*
X161816666Y-100652380D01*
X161816666Y-99652380D01*
X162283333Y-99652380D02*
X162683333Y-99652380D01*
X162483333Y-100652380D02*
X162483333Y-99652380D01*
X163666666Y-97300000D02*
X163600000Y-97252380D01*
X163500000Y-97252380D01*
X163400000Y-97300000D01*
X163333333Y-97395238D01*
X163300000Y-97490476D01*
X163266666Y-97680952D01*
X163266666Y-97823809D01*
X163300000Y-98014285D01*
X163333333Y-98109523D01*
X163400000Y-98204761D01*
X163500000Y-98252380D01*
X163566666Y-98252380D01*
X163666666Y-98204761D01*
X163700000Y-98157142D01*
X163700000Y-97823809D01*
X163566666Y-97823809D01*
X164000000Y-98252380D02*
X164000000Y-97252380D01*
X164400000Y-98252380D01*
X164400000Y-97252380D01*
X164733333Y-98252380D02*
X164733333Y-97252380D01*
X164900000Y-97252380D01*
X165000000Y-97300000D01*
X165066666Y-97395238D01*
X165100000Y-97490476D01*
X165133333Y-97680952D01*
X165133333Y-97823809D01*
X165100000Y-98014285D01*
X165066666Y-98109523D01*
X165000000Y-98204761D01*
X164900000Y-98252380D01*
X164733333Y-98252380D01*
X161100000Y-98204761D02*
X161200000Y-98252380D01*
X161366666Y-98252380D01*
X161433333Y-98204761D01*
X161466666Y-98157142D01*
X161500000Y-98061904D01*
X161500000Y-97966666D01*
X161466666Y-97871428D01*
X161433333Y-97823809D01*
X161366666Y-97776190D01*
X161233333Y-97728571D01*
X161166666Y-97680952D01*
X161133333Y-97633333D01*
X161100000Y-97538095D01*
X161100000Y-97442857D01*
X161133333Y-97347619D01*
X161166666Y-97300000D01*
X161233333Y-97252380D01*
X161400000Y-97252380D01*
X161500000Y-97300000D01*
X162200000Y-98157142D02*
X162166666Y-98204761D01*
X162066666Y-98252380D01*
X162000000Y-98252380D01*
X161900000Y-98204761D01*
X161833333Y-98109523D01*
X161800000Y-98014285D01*
X161766666Y-97823809D01*
X161766666Y-97680952D01*
X161800000Y-97490476D01*
X161833333Y-97395238D01*
X161900000Y-97300000D01*
X162000000Y-97252380D01*
X162066666Y-97252380D01*
X162166666Y-97300000D01*
X162200000Y-97347619D01*
X162500000Y-98252380D02*
X162500000Y-97252380D01*
X162900000Y-98252380D02*
X162600000Y-97680952D01*
X162900000Y-97252380D02*
X162500000Y-97823809D01*
X156225666Y-116900000D02*
X156159000Y-116852380D01*
X156059000Y-116852380D01*
X155959000Y-116900000D01*
X155892333Y-116995238D01*
X155859000Y-117090476D01*
X155825666Y-117280952D01*
X155825666Y-117423809D01*
X155859000Y-117614285D01*
X155892333Y-117709523D01*
X155959000Y-117804761D01*
X156059000Y-117852380D01*
X156125666Y-117852380D01*
X156225666Y-117804761D01*
X156259000Y-117757142D01*
X156259000Y-117423809D01*
X156125666Y-117423809D01*
X156559000Y-117852380D02*
X156559000Y-116852380D01*
X156959000Y-117852380D01*
X156959000Y-116852380D01*
X157292333Y-117852380D02*
X157292333Y-116852380D01*
X157459000Y-116852380D01*
X157559000Y-116900000D01*
X157625666Y-116995238D01*
X157659000Y-117090476D01*
X157692333Y-117280952D01*
X157692333Y-117423809D01*
X157659000Y-117614285D01*
X157625666Y-117709523D01*
X157559000Y-117804761D01*
X157459000Y-117852380D01*
X157292333Y-117852380D01*
X154042333Y-117852380D02*
X153809000Y-117376190D01*
X153642333Y-117852380D02*
X153642333Y-116852380D01*
X153909000Y-116852380D01*
X153975666Y-116900000D01*
X154009000Y-116947619D01*
X154042333Y-117042857D01*
X154042333Y-117185714D01*
X154009000Y-117280952D01*
X153975666Y-117328571D01*
X153909000Y-117376190D01*
X153642333Y-117376190D01*
X154275666Y-116852380D02*
X154742333Y-117852380D01*
X154742333Y-116852380D02*
X154275666Y-117852380D01*
X151025666Y-116852380D02*
X151425666Y-116852380D01*
X151225666Y-117852380D02*
X151225666Y-116852380D01*
X151592333Y-116852380D02*
X152059000Y-117852380D01*
X152059000Y-116852380D02*
X151592333Y-117852380D01*
X148442333Y-117328571D02*
X148675666Y-117328571D01*
X148775666Y-117852380D02*
X148442333Y-117852380D01*
X148442333Y-116852380D01*
X148775666Y-116852380D01*
X149075666Y-117852380D02*
X149075666Y-116852380D01*
X149475666Y-117852380D01*
X149475666Y-116852380D01*
X142525666Y-116852380D02*
X142959000Y-116852380D01*
X142725666Y-117233333D01*
X142825666Y-117233333D01*
X142892333Y-117280952D01*
X142925666Y-117328571D01*
X142959000Y-117423809D01*
X142959000Y-117661904D01*
X142925666Y-117757142D01*
X142892333Y-117804761D01*
X142825666Y-117852380D01*
X142625666Y-117852380D01*
X142559000Y-117804761D01*
X142525666Y-117757142D01*
X143259000Y-117757142D02*
X143292333Y-117804761D01*
X143259000Y-117852380D01*
X143225666Y-117804761D01*
X143259000Y-117757142D01*
X143259000Y-117852380D01*
X143525666Y-116852380D02*
X143959000Y-116852380D01*
X143725666Y-117233333D01*
X143825666Y-117233333D01*
X143892333Y-117280952D01*
X143925666Y-117328571D01*
X143959000Y-117423809D01*
X143959000Y-117661904D01*
X143925666Y-117757142D01*
X143892333Y-117804761D01*
X143825666Y-117852380D01*
X143625666Y-117852380D01*
X143559000Y-117804761D01*
X143525666Y-117757142D01*
X144159000Y-116852380D02*
X144392333Y-117852380D01*
X144625666Y-116852380D01*
X145409000Y-117328571D02*
X145509000Y-117376190D01*
X145542333Y-117423809D01*
X145575666Y-117519047D01*
X145575666Y-117661904D01*
X145542333Y-117757142D01*
X145509000Y-117804761D01*
X145442333Y-117852380D01*
X145175666Y-117852380D01*
X145175666Y-116852380D01*
X145409000Y-116852380D01*
X145475666Y-116900000D01*
X145509000Y-116947619D01*
X145542333Y-117042857D01*
X145542333Y-117138095D01*
X145509000Y-117233333D01*
X145475666Y-117280952D01*
X145409000Y-117328571D01*
X145175666Y-117328571D01*
X146009000Y-116852380D02*
X146142333Y-116852380D01*
X146209000Y-116900000D01*
X146275666Y-116995238D01*
X146309000Y-117185714D01*
X146309000Y-117519047D01*
X146275666Y-117709523D01*
X146209000Y-117804761D01*
X146142333Y-117852380D01*
X146009000Y-117852380D01*
X145942333Y-117804761D01*
X145875666Y-117709523D01*
X145842333Y-117519047D01*
X145842333Y-117185714D01*
X145875666Y-116995238D01*
X145942333Y-116900000D01*
X146009000Y-116852380D01*
X146742333Y-116852380D02*
X146875666Y-116852380D01*
X146942333Y-116900000D01*
X147009000Y-116995238D01*
X147042333Y-117185714D01*
X147042333Y-117519047D01*
X147009000Y-117709523D01*
X146942333Y-117804761D01*
X146875666Y-117852380D01*
X146742333Y-117852380D01*
X146675666Y-117804761D01*
X146609000Y-117709523D01*
X146575666Y-117519047D01*
X146575666Y-117185714D01*
X146609000Y-116995238D01*
X146675666Y-116900000D01*
X146742333Y-116852380D01*
X147242333Y-116852380D02*
X147642333Y-116852380D01*
X147442333Y-117852380D02*
X147442333Y-116852380D01*
D11*
%TO.C,REF\u002A\u002A*%
G36*
X132340886Y-97024505D02*
G01*
X132415539Y-97061727D01*
X132481431Y-97130261D01*
X132499577Y-97155648D01*
X132519345Y-97188866D01*
X132532172Y-97224945D01*
X132539510Y-97273098D01*
X132542813Y-97342536D01*
X132543538Y-97434206D01*
X132540263Y-97559830D01*
X132528877Y-97654154D01*
X132507041Y-97724523D01*
X132472419Y-97778286D01*
X132422670Y-97822788D01*
X132419014Y-97825423D01*
X132369985Y-97852377D01*
X132310945Y-97865712D01*
X132235859Y-97869000D01*
X132113795Y-97869000D01*
X132113744Y-97987497D01*
X132112608Y-98053492D01*
X132105686Y-98092202D01*
X132087598Y-98115419D01*
X132052962Y-98134933D01*
X132044645Y-98138920D01*
X132005720Y-98157603D01*
X131975583Y-98169403D01*
X131953174Y-98170422D01*
X131937433Y-98156761D01*
X131927302Y-98124522D01*
X131921723Y-98069804D01*
X131919635Y-97988711D01*
X131919981Y-97877344D01*
X131921700Y-97731802D01*
X131922237Y-97688269D01*
X131924172Y-97538205D01*
X131925904Y-97440042D01*
X132113692Y-97440042D01*
X132114748Y-97523364D01*
X132119438Y-97577880D01*
X132130051Y-97613837D01*
X132148872Y-97641482D01*
X132161650Y-97654965D01*
X132213890Y-97694417D01*
X132260142Y-97697628D01*
X132307867Y-97665049D01*
X132309077Y-97663846D01*
X132328494Y-97638668D01*
X132340307Y-97604447D01*
X132346265Y-97551748D01*
X132348120Y-97471131D01*
X132348154Y-97453271D01*
X132343670Y-97342175D01*
X132329074Y-97265161D01*
X132302650Y-97218147D01*
X132262683Y-97197050D01*
X132239584Y-97194923D01*
X132184762Y-97204900D01*
X132147158Y-97237752D01*
X132124523Y-97297857D01*
X132114606Y-97389598D01*
X132113692Y-97440042D01*
X131925904Y-97440042D01*
X131926222Y-97422060D01*
X131928873Y-97334679D01*
X131932606Y-97270905D01*
X131937907Y-97225582D01*
X131945258Y-97193555D01*
X131955143Y-97169668D01*
X131968046Y-97148764D01*
X131973579Y-97140898D01*
X132046969Y-97066595D01*
X132139760Y-97024467D01*
X132247096Y-97012722D01*
X132340886Y-97024505D01*
G37*
X132340886Y-97024505D02*
X132415539Y-97061727D01*
X132481431Y-97130261D01*
X132499577Y-97155648D01*
X132519345Y-97188866D01*
X132532172Y-97224945D01*
X132539510Y-97273098D01*
X132542813Y-97342536D01*
X132543538Y-97434206D01*
X132540263Y-97559830D01*
X132528877Y-97654154D01*
X132507041Y-97724523D01*
X132472419Y-97778286D01*
X132422670Y-97822788D01*
X132419014Y-97825423D01*
X132369985Y-97852377D01*
X132310945Y-97865712D01*
X132235859Y-97869000D01*
X132113795Y-97869000D01*
X132113744Y-97987497D01*
X132112608Y-98053492D01*
X132105686Y-98092202D01*
X132087598Y-98115419D01*
X132052962Y-98134933D01*
X132044645Y-98138920D01*
X132005720Y-98157603D01*
X131975583Y-98169403D01*
X131953174Y-98170422D01*
X131937433Y-98156761D01*
X131927302Y-98124522D01*
X131921723Y-98069804D01*
X131919635Y-97988711D01*
X131919981Y-97877344D01*
X131921700Y-97731802D01*
X131922237Y-97688269D01*
X131924172Y-97538205D01*
X131925904Y-97440042D01*
X132113692Y-97440042D01*
X132114748Y-97523364D01*
X132119438Y-97577880D01*
X132130051Y-97613837D01*
X132148872Y-97641482D01*
X132161650Y-97654965D01*
X132213890Y-97694417D01*
X132260142Y-97697628D01*
X132307867Y-97665049D01*
X132309077Y-97663846D01*
X132328494Y-97638668D01*
X132340307Y-97604447D01*
X132346265Y-97551748D01*
X132348120Y-97471131D01*
X132348154Y-97453271D01*
X132343670Y-97342175D01*
X132329074Y-97265161D01*
X132302650Y-97218147D01*
X132262683Y-97197050D01*
X132239584Y-97194923D01*
X132184762Y-97204900D01*
X132147158Y-97237752D01*
X132124523Y-97297857D01*
X132114606Y-97389598D01*
X132113692Y-97440042D01*
X131925904Y-97440042D01*
X131926222Y-97422060D01*
X131928873Y-97334679D01*
X131932606Y-97270905D01*
X131937907Y-97225582D01*
X131945258Y-97193555D01*
X131955143Y-97169668D01*
X131968046Y-97148764D01*
X131973579Y-97140898D01*
X132046969Y-97066595D01*
X132139760Y-97024467D01*
X132247096Y-97012722D01*
X132340886Y-97024505D01*
G36*
X133843664Y-97035089D02*
G01*
X133906367Y-97071358D01*
X133949961Y-97107358D01*
X133981845Y-97145075D01*
X134003810Y-97191199D01*
X134017649Y-97252421D01*
X134025153Y-97335431D01*
X134028117Y-97446919D01*
X134028461Y-97527062D01*
X134028461Y-97822065D01*
X133862385Y-97896515D01*
X133852615Y-97573402D01*
X133848579Y-97452729D01*
X133844344Y-97365141D01*
X133839097Y-97304650D01*
X133832025Y-97265268D01*
X133822311Y-97241007D01*
X133809144Y-97225880D01*
X133804919Y-97222606D01*
X133740909Y-97197034D01*
X133676208Y-97207153D01*
X133637692Y-97234000D01*
X133622025Y-97253024D01*
X133611180Y-97277988D01*
X133604288Y-97315834D01*
X133600479Y-97373502D01*
X133598883Y-97457935D01*
X133598615Y-97545928D01*
X133598563Y-97656323D01*
X133596672Y-97734463D01*
X133590345Y-97787165D01*
X133576983Y-97821242D01*
X133553985Y-97843511D01*
X133518754Y-97860787D01*
X133471697Y-97878738D01*
X133420303Y-97898278D01*
X133426421Y-97551485D01*
X133428884Y-97426468D01*
X133431767Y-97334082D01*
X133435898Y-97267881D01*
X133442107Y-97221420D01*
X133451226Y-97188256D01*
X133464083Y-97161944D01*
X133479584Y-97138729D01*
X133554371Y-97064569D01*
X133645628Y-97021684D01*
X133744883Y-97011412D01*
X133843664Y-97035089D01*
G37*
X133843664Y-97035089D02*
X133906367Y-97071358D01*
X133949961Y-97107358D01*
X133981845Y-97145075D01*
X134003810Y-97191199D01*
X134017649Y-97252421D01*
X134025153Y-97335431D01*
X134028117Y-97446919D01*
X134028461Y-97527062D01*
X134028461Y-97822065D01*
X133862385Y-97896515D01*
X133852615Y-97573402D01*
X133848579Y-97452729D01*
X133844344Y-97365141D01*
X133839097Y-97304650D01*
X133832025Y-97265268D01*
X133822311Y-97241007D01*
X133809144Y-97225880D01*
X133804919Y-97222606D01*
X133740909Y-97197034D01*
X133676208Y-97207153D01*
X133637692Y-97234000D01*
X133622025Y-97253024D01*
X133611180Y-97277988D01*
X133604288Y-97315834D01*
X133600479Y-97373502D01*
X133598883Y-97457935D01*
X133598615Y-97545928D01*
X133598563Y-97656323D01*
X133596672Y-97734463D01*
X133590345Y-97787165D01*
X133576983Y-97821242D01*
X133553985Y-97843511D01*
X133518754Y-97860787D01*
X133471697Y-97878738D01*
X133420303Y-97898278D01*
X133426421Y-97551485D01*
X133428884Y-97426468D01*
X133431767Y-97334082D01*
X133435898Y-97267881D01*
X133442107Y-97221420D01*
X133451226Y-97188256D01*
X133464083Y-97161944D01*
X133479584Y-97138729D01*
X133554371Y-97064569D01*
X133645628Y-97021684D01*
X133744883Y-97011412D01*
X133843664Y-97035089D01*
G36*
X131588886Y-97027256D02*
G01*
X131680464Y-97075409D01*
X131748049Y-97152905D01*
X131772057Y-97202727D01*
X131790738Y-97277533D01*
X131800301Y-97372052D01*
X131801208Y-97475210D01*
X131793921Y-97575935D01*
X131778903Y-97663153D01*
X131756615Y-97725791D01*
X131749765Y-97736579D01*
X131668632Y-97817105D01*
X131572266Y-97865336D01*
X131467701Y-97879450D01*
X131361968Y-97857629D01*
X131332543Y-97844547D01*
X131275241Y-97804231D01*
X131224950Y-97750775D01*
X131220197Y-97743995D01*
X131200878Y-97711321D01*
X131188108Y-97676394D01*
X131180564Y-97630414D01*
X131176924Y-97564584D01*
X131175865Y-97470105D01*
X131175846Y-97448923D01*
X131175894Y-97442182D01*
X131371231Y-97442182D01*
X131372368Y-97531349D01*
X131376841Y-97590520D01*
X131386246Y-97628741D01*
X131402176Y-97655053D01*
X131410308Y-97663846D01*
X131457058Y-97697261D01*
X131502447Y-97695737D01*
X131548340Y-97666752D01*
X131575712Y-97635809D01*
X131591923Y-97590643D01*
X131601026Y-97519420D01*
X131601651Y-97511114D01*
X131603204Y-97382037D01*
X131586965Y-97286172D01*
X131553152Y-97224107D01*
X131501984Y-97196432D01*
X131483720Y-97194923D01*
X131435760Y-97202513D01*
X131402953Y-97228808D01*
X131382895Y-97279095D01*
X131373178Y-97358664D01*
X131371231Y-97442182D01*
X131175894Y-97442182D01*
X131176574Y-97348249D01*
X131179629Y-97277906D01*
X131186322Y-97229163D01*
X131197960Y-97193288D01*
X131215853Y-97161548D01*
X131219808Y-97155648D01*
X131286267Y-97076104D01*
X131358685Y-97029929D01*
X131446849Y-97011599D01*
X131476787Y-97010703D01*
X131588886Y-97027256D01*
G37*
X131588886Y-97027256D02*
X131680464Y-97075409D01*
X131748049Y-97152905D01*
X131772057Y-97202727D01*
X131790738Y-97277533D01*
X131800301Y-97372052D01*
X131801208Y-97475210D01*
X131793921Y-97575935D01*
X131778903Y-97663153D01*
X131756615Y-97725791D01*
X131749765Y-97736579D01*
X131668632Y-97817105D01*
X131572266Y-97865336D01*
X131467701Y-97879450D01*
X131361968Y-97857629D01*
X131332543Y-97844547D01*
X131275241Y-97804231D01*
X131224950Y-97750775D01*
X131220197Y-97743995D01*
X131200878Y-97711321D01*
X131188108Y-97676394D01*
X131180564Y-97630414D01*
X131176924Y-97564584D01*
X131175865Y-97470105D01*
X131175846Y-97448923D01*
X131175894Y-97442182D01*
X131371231Y-97442182D01*
X131372368Y-97531349D01*
X131376841Y-97590520D01*
X131386246Y-97628741D01*
X131402176Y-97655053D01*
X131410308Y-97663846D01*
X131457058Y-97697261D01*
X131502447Y-97695737D01*
X131548340Y-97666752D01*
X131575712Y-97635809D01*
X131591923Y-97590643D01*
X131601026Y-97519420D01*
X131601651Y-97511114D01*
X131603204Y-97382037D01*
X131586965Y-97286172D01*
X131553152Y-97224107D01*
X131501984Y-97196432D01*
X131483720Y-97194923D01*
X131435760Y-97202513D01*
X131402953Y-97228808D01*
X131382895Y-97279095D01*
X131373178Y-97358664D01*
X131371231Y-97442182D01*
X131175894Y-97442182D01*
X131176574Y-97348249D01*
X131179629Y-97277906D01*
X131186322Y-97229163D01*
X131197960Y-97193288D01*
X131215853Y-97161548D01*
X131219808Y-97155648D01*
X131286267Y-97076104D01*
X131358685Y-97029929D01*
X131446849Y-97011599D01*
X131476787Y-97010703D01*
X131588886Y-97027256D01*
G36*
X133106254Y-97039745D02*
G01*
X133183286Y-97091567D01*
X133242816Y-97166412D01*
X133278378Y-97261654D01*
X133285571Y-97331756D01*
X133284754Y-97361009D01*
X133277914Y-97383407D01*
X133259112Y-97403474D01*
X133222408Y-97425733D01*
X133161862Y-97454709D01*
X133071534Y-97494927D01*
X133071077Y-97495129D01*
X132987933Y-97533210D01*
X132919753Y-97567025D01*
X132873505Y-97592933D01*
X132856158Y-97607295D01*
X132856154Y-97607411D01*
X132871443Y-97638685D01*
X132907196Y-97673157D01*
X132948242Y-97697990D01*
X132969037Y-97702923D01*
X133025770Y-97685862D01*
X133074627Y-97643133D01*
X133098465Y-97596155D01*
X133121397Y-97561522D01*
X133166318Y-97522081D01*
X133219123Y-97488009D01*
X133265710Y-97469480D01*
X133275452Y-97468462D01*
X133286418Y-97485215D01*
X133287079Y-97528039D01*
X133279020Y-97585781D01*
X133263827Y-97647289D01*
X133243086Y-97701409D01*
X133242038Y-97703510D01*
X133179621Y-97790660D01*
X133098726Y-97849939D01*
X133006856Y-97879034D01*
X132911513Y-97875634D01*
X132820198Y-97837428D01*
X132816138Y-97834741D01*
X132744306Y-97769642D01*
X132697073Y-97684705D01*
X132670934Y-97573021D01*
X132667426Y-97541643D01*
X132661213Y-97393536D01*
X132668661Y-97324468D01*
X132856154Y-97324468D01*
X132858590Y-97367552D01*
X132871914Y-97380126D01*
X132905132Y-97370719D01*
X132957494Y-97348483D01*
X133016024Y-97320610D01*
X133017479Y-97319872D01*
X133067089Y-97293777D01*
X133087000Y-97276363D01*
X133082090Y-97258107D01*
X133061416Y-97234120D01*
X133008819Y-97199406D01*
X132952177Y-97196856D01*
X132901369Y-97222119D01*
X132866276Y-97270847D01*
X132856154Y-97324468D01*
X132668661Y-97324468D01*
X132673992Y-97275036D01*
X132706778Y-97181055D01*
X132752421Y-97115215D01*
X132834802Y-97048681D01*
X132925546Y-97015676D01*
X133018185Y-97013573D01*
X133106254Y-97039745D01*
G37*
X133106254Y-97039745D02*
X133183286Y-97091567D01*
X133242816Y-97166412D01*
X133278378Y-97261654D01*
X133285571Y-97331756D01*
X133284754Y-97361009D01*
X133277914Y-97383407D01*
X133259112Y-97403474D01*
X133222408Y-97425733D01*
X133161862Y-97454709D01*
X133071534Y-97494927D01*
X133071077Y-97495129D01*
X132987933Y-97533210D01*
X132919753Y-97567025D01*
X132873505Y-97592933D01*
X132856158Y-97607295D01*
X132856154Y-97607411D01*
X132871443Y-97638685D01*
X132907196Y-97673157D01*
X132948242Y-97697990D01*
X132969037Y-97702923D01*
X133025770Y-97685862D01*
X133074627Y-97643133D01*
X133098465Y-97596155D01*
X133121397Y-97561522D01*
X133166318Y-97522081D01*
X133219123Y-97488009D01*
X133265710Y-97469480D01*
X133275452Y-97468462D01*
X133286418Y-97485215D01*
X133287079Y-97528039D01*
X133279020Y-97585781D01*
X133263827Y-97647289D01*
X133243086Y-97701409D01*
X133242038Y-97703510D01*
X133179621Y-97790660D01*
X133098726Y-97849939D01*
X133006856Y-97879034D01*
X132911513Y-97875634D01*
X132820198Y-97837428D01*
X132816138Y-97834741D01*
X132744306Y-97769642D01*
X132697073Y-97684705D01*
X132670934Y-97573021D01*
X132667426Y-97541643D01*
X132661213Y-97393536D01*
X132668661Y-97324468D01*
X132856154Y-97324468D01*
X132858590Y-97367552D01*
X132871914Y-97380126D01*
X132905132Y-97370719D01*
X132957494Y-97348483D01*
X133016024Y-97320610D01*
X133017479Y-97319872D01*
X133067089Y-97293777D01*
X133087000Y-97276363D01*
X133082090Y-97258107D01*
X133061416Y-97234120D01*
X133008819Y-97199406D01*
X132952177Y-97196856D01*
X132901369Y-97222119D01*
X132866276Y-97270847D01*
X132856154Y-97324468D01*
X132668661Y-97324468D01*
X132673992Y-97275036D01*
X132706778Y-97181055D01*
X132752421Y-97115215D01*
X132834802Y-97048681D01*
X132925546Y-97015676D01*
X133018185Y-97013573D01*
X133106254Y-97039745D01*
G36*
X134731846Y-96932120D02*
G01*
X134737572Y-97011980D01*
X134744149Y-97059039D01*
X134753262Y-97079566D01*
X134766598Y-97079829D01*
X134770923Y-97077378D01*
X134828444Y-97059636D01*
X134903268Y-97060672D01*
X134979339Y-97078910D01*
X135026918Y-97102505D01*
X135075702Y-97140198D01*
X135111364Y-97182855D01*
X135135845Y-97237057D01*
X135151087Y-97309384D01*
X135159030Y-97406419D01*
X135161616Y-97534742D01*
X135161662Y-97559358D01*
X135161692Y-97835870D01*
X135100161Y-97857320D01*
X135056459Y-97871912D01*
X135032482Y-97878706D01*
X135031777Y-97878769D01*
X135029415Y-97860345D01*
X135027406Y-97809526D01*
X135025901Y-97732993D01*
X135025053Y-97637430D01*
X135024923Y-97579329D01*
X135024651Y-97464771D01*
X135023252Y-97382667D01*
X135019849Y-97326393D01*
X135013567Y-97289326D01*
X135003529Y-97264844D01*
X134988861Y-97246325D01*
X134979702Y-97237406D01*
X134916789Y-97201466D01*
X134848136Y-97198775D01*
X134785848Y-97229170D01*
X134774329Y-97240144D01*
X134757433Y-97260779D01*
X134745714Y-97285256D01*
X134738233Y-97320647D01*
X134734054Y-97374026D01*
X134732237Y-97452466D01*
X134731846Y-97560617D01*
X134731846Y-97835870D01*
X134670315Y-97857320D01*
X134626613Y-97871912D01*
X134602636Y-97878706D01*
X134601930Y-97878769D01*
X134600126Y-97860069D01*
X134598500Y-97807322D01*
X134597117Y-97725557D01*
X134596042Y-97619805D01*
X134595340Y-97495094D01*
X134595077Y-97356455D01*
X134595077Y-96821806D01*
X134722077Y-96768236D01*
X134731846Y-96932120D01*
G37*
X134731846Y-96932120D02*
X134737572Y-97011980D01*
X134744149Y-97059039D01*
X134753262Y-97079566D01*
X134766598Y-97079829D01*
X134770923Y-97077378D01*
X134828444Y-97059636D01*
X134903268Y-97060672D01*
X134979339Y-97078910D01*
X135026918Y-97102505D01*
X135075702Y-97140198D01*
X135111364Y-97182855D01*
X135135845Y-97237057D01*
X135151087Y-97309384D01*
X135159030Y-97406419D01*
X135161616Y-97534742D01*
X135161662Y-97559358D01*
X135161692Y-97835870D01*
X135100161Y-97857320D01*
X135056459Y-97871912D01*
X135032482Y-97878706D01*
X135031777Y-97878769D01*
X135029415Y-97860345D01*
X135027406Y-97809526D01*
X135025901Y-97732993D01*
X135025053Y-97637430D01*
X135024923Y-97579329D01*
X135024651Y-97464771D01*
X135023252Y-97382667D01*
X135019849Y-97326393D01*
X135013567Y-97289326D01*
X135003529Y-97264844D01*
X134988861Y-97246325D01*
X134979702Y-97237406D01*
X134916789Y-97201466D01*
X134848136Y-97198775D01*
X134785848Y-97229170D01*
X134774329Y-97240144D01*
X134757433Y-97260779D01*
X134745714Y-97285256D01*
X134738233Y-97320647D01*
X134734054Y-97374026D01*
X134732237Y-97452466D01*
X134731846Y-97560617D01*
X134731846Y-97835870D01*
X134670315Y-97857320D01*
X134626613Y-97871912D01*
X134602636Y-97878706D01*
X134601930Y-97878769D01*
X134600126Y-97860069D01*
X134598500Y-97807322D01*
X134597117Y-97725557D01*
X134596042Y-97619805D01*
X134595340Y-97495094D01*
X134595077Y-97356455D01*
X134595077Y-96821806D01*
X134722077Y-96768236D01*
X134731846Y-96932120D01*
G36*
X135625501Y-97066303D02*
G01*
X135702060Y-97094733D01*
X135702936Y-97095279D01*
X135750285Y-97130127D01*
X135785241Y-97170852D01*
X135809825Y-97223925D01*
X135826062Y-97295814D01*
X135835975Y-97392992D01*
X135841586Y-97521928D01*
X135842077Y-97540298D01*
X135849141Y-97817287D01*
X135789695Y-97848028D01*
X135746681Y-97868802D01*
X135720710Y-97878646D01*
X135719509Y-97878769D01*
X135715014Y-97860606D01*
X135711444Y-97811612D01*
X135709248Y-97740031D01*
X135708769Y-97682068D01*
X135708758Y-97588170D01*
X135704466Y-97529203D01*
X135689503Y-97501079D01*
X135657482Y-97499706D01*
X135602014Y-97520998D01*
X135518269Y-97560136D01*
X135456689Y-97592643D01*
X135425017Y-97620845D01*
X135415706Y-97651582D01*
X135415692Y-97653104D01*
X135431057Y-97706054D01*
X135476547Y-97734660D01*
X135546166Y-97738803D01*
X135596313Y-97738084D01*
X135622754Y-97752527D01*
X135639243Y-97787218D01*
X135648733Y-97831416D01*
X135635057Y-97856493D01*
X135629907Y-97860082D01*
X135581425Y-97874496D01*
X135513531Y-97876537D01*
X135443612Y-97866983D01*
X135394068Y-97849522D01*
X135325570Y-97791364D01*
X135286634Y-97710408D01*
X135278923Y-97647160D01*
X135284807Y-97590111D01*
X135306101Y-97543542D01*
X135348265Y-97502181D01*
X135416759Y-97460755D01*
X135517044Y-97413993D01*
X135523154Y-97411350D01*
X135613490Y-97369617D01*
X135669235Y-97335391D01*
X135693129Y-97304635D01*
X135687913Y-97273311D01*
X135656328Y-97237383D01*
X135646883Y-97229116D01*
X135583617Y-97197058D01*
X135518064Y-97198407D01*
X135460972Y-97229838D01*
X135423093Y-97288024D01*
X135419574Y-97299446D01*
X135385300Y-97354837D01*
X135341809Y-97381518D01*
X135278923Y-97407960D01*
X135278923Y-97339548D01*
X135298052Y-97240110D01*
X135354831Y-97148902D01*
X135384378Y-97118389D01*
X135451542Y-97079228D01*
X135536956Y-97061500D01*
X135625501Y-97066303D01*
G37*
X135625501Y-97066303D02*
X135702060Y-97094733D01*
X135702936Y-97095279D01*
X135750285Y-97130127D01*
X135785241Y-97170852D01*
X135809825Y-97223925D01*
X135826062Y-97295814D01*
X135835975Y-97392992D01*
X135841586Y-97521928D01*
X135842077Y-97540298D01*
X135849141Y-97817287D01*
X135789695Y-97848028D01*
X135746681Y-97868802D01*
X135720710Y-97878646D01*
X135719509Y-97878769D01*
X135715014Y-97860606D01*
X135711444Y-97811612D01*
X135709248Y-97740031D01*
X135708769Y-97682068D01*
X135708758Y-97588170D01*
X135704466Y-97529203D01*
X135689503Y-97501079D01*
X135657482Y-97499706D01*
X135602014Y-97520998D01*
X135518269Y-97560136D01*
X135456689Y-97592643D01*
X135425017Y-97620845D01*
X135415706Y-97651582D01*
X135415692Y-97653104D01*
X135431057Y-97706054D01*
X135476547Y-97734660D01*
X135546166Y-97738803D01*
X135596313Y-97738084D01*
X135622754Y-97752527D01*
X135639243Y-97787218D01*
X135648733Y-97831416D01*
X135635057Y-97856493D01*
X135629907Y-97860082D01*
X135581425Y-97874496D01*
X135513531Y-97876537D01*
X135443612Y-97866983D01*
X135394068Y-97849522D01*
X135325570Y-97791364D01*
X135286634Y-97710408D01*
X135278923Y-97647160D01*
X135284807Y-97590111D01*
X135306101Y-97543542D01*
X135348265Y-97502181D01*
X135416759Y-97460755D01*
X135517044Y-97413993D01*
X135523154Y-97411350D01*
X135613490Y-97369617D01*
X135669235Y-97335391D01*
X135693129Y-97304635D01*
X135687913Y-97273311D01*
X135656328Y-97237383D01*
X135646883Y-97229116D01*
X135583617Y-97197058D01*
X135518064Y-97198407D01*
X135460972Y-97229838D01*
X135423093Y-97288024D01*
X135419574Y-97299446D01*
X135385300Y-97354837D01*
X135341809Y-97381518D01*
X135278923Y-97407960D01*
X135278923Y-97339548D01*
X135298052Y-97240110D01*
X135354831Y-97148902D01*
X135384378Y-97118389D01*
X135451542Y-97079228D01*
X135536956Y-97061500D01*
X135625501Y-97066303D01*
G36*
X136285362Y-97064670D02*
G01*
X136374117Y-97097421D01*
X136446022Y-97155350D01*
X136474144Y-97196128D01*
X136504802Y-97270954D01*
X136504165Y-97325058D01*
X136471987Y-97361446D01*
X136460081Y-97367633D01*
X136408675Y-97386925D01*
X136382422Y-97381982D01*
X136373530Y-97349587D01*
X136373077Y-97331692D01*
X136356797Y-97265859D01*
X136314365Y-97219807D01*
X136255388Y-97197564D01*
X136189475Y-97203161D01*
X136135895Y-97232229D01*
X136117798Y-97248810D01*
X136104971Y-97268925D01*
X136096306Y-97299332D01*
X136090696Y-97346788D01*
X136087035Y-97418050D01*
X136084215Y-97519875D01*
X136083484Y-97552115D01*
X136080820Y-97662410D01*
X136077792Y-97740036D01*
X136073250Y-97791396D01*
X136066046Y-97822890D01*
X136055033Y-97840920D01*
X136039060Y-97851888D01*
X136028834Y-97856733D01*
X135985406Y-97873301D01*
X135959842Y-97878769D01*
X135951395Y-97860507D01*
X135946239Y-97805296D01*
X135944346Y-97712499D01*
X135945689Y-97581478D01*
X135946107Y-97561269D01*
X135949058Y-97441733D01*
X135952548Y-97354449D01*
X135957514Y-97292591D01*
X135964893Y-97249336D01*
X135975624Y-97217860D01*
X135990645Y-97191339D01*
X135998502Y-97179975D01*
X136043553Y-97129692D01*
X136093940Y-97090581D01*
X136100108Y-97087167D01*
X136190458Y-97060212D01*
X136285362Y-97064670D01*
G37*
X136285362Y-97064670D02*
X136374117Y-97097421D01*
X136446022Y-97155350D01*
X136474144Y-97196128D01*
X136504802Y-97270954D01*
X136504165Y-97325058D01*
X136471987Y-97361446D01*
X136460081Y-97367633D01*
X136408675Y-97386925D01*
X136382422Y-97381982D01*
X136373530Y-97349587D01*
X136373077Y-97331692D01*
X136356797Y-97265859D01*
X136314365Y-97219807D01*
X136255388Y-97197564D01*
X136189475Y-97203161D01*
X136135895Y-97232229D01*
X136117798Y-97248810D01*
X136104971Y-97268925D01*
X136096306Y-97299332D01*
X136090696Y-97346788D01*
X136087035Y-97418050D01*
X136084215Y-97519875D01*
X136083484Y-97552115D01*
X136080820Y-97662410D01*
X136077792Y-97740036D01*
X136073250Y-97791396D01*
X136066046Y-97822890D01*
X136055033Y-97840920D01*
X136039060Y-97851888D01*
X136028834Y-97856733D01*
X135985406Y-97873301D01*
X135959842Y-97878769D01*
X135951395Y-97860507D01*
X135946239Y-97805296D01*
X135944346Y-97712499D01*
X135945689Y-97581478D01*
X135946107Y-97561269D01*
X135949058Y-97441733D01*
X135952548Y-97354449D01*
X135957514Y-97292591D01*
X135964893Y-97249336D01*
X135975624Y-97217860D01*
X135990645Y-97191339D01*
X135998502Y-97179975D01*
X136043553Y-97129692D01*
X136093940Y-97090581D01*
X136100108Y-97087167D01*
X136190458Y-97060212D01*
X136285362Y-97064670D01*
G36*
X137174081Y-97220289D02*
G01*
X137173833Y-97366320D01*
X137172872Y-97478655D01*
X137170794Y-97562678D01*
X137167193Y-97623769D01*
X137161665Y-97667309D01*
X137153804Y-97698679D01*
X137143207Y-97723262D01*
X137135182Y-97737294D01*
X137068728Y-97813388D01*
X136984470Y-97861084D01*
X136891249Y-97878199D01*
X136797900Y-97862546D01*
X136742312Y-97834418D01*
X136683957Y-97785760D01*
X136644186Y-97726333D01*
X136620190Y-97648507D01*
X136609161Y-97544652D01*
X136607599Y-97468462D01*
X136607809Y-97462986D01*
X136744308Y-97462986D01*
X136745141Y-97550355D01*
X136748961Y-97608192D01*
X136757746Y-97646029D01*
X136773474Y-97673398D01*
X136792266Y-97694042D01*
X136855375Y-97733890D01*
X136923137Y-97737295D01*
X136987179Y-97704025D01*
X136992164Y-97699517D01*
X137013439Y-97676067D01*
X137026779Y-97648166D01*
X137034001Y-97606641D01*
X137036923Y-97542316D01*
X137037385Y-97471200D01*
X137036383Y-97381858D01*
X137032238Y-97322258D01*
X137023236Y-97283089D01*
X137007667Y-97255040D01*
X136994902Y-97240144D01*
X136935600Y-97202575D01*
X136867301Y-97198057D01*
X136802110Y-97226753D01*
X136789528Y-97237406D01*
X136768111Y-97261063D01*
X136754744Y-97289251D01*
X136747566Y-97331245D01*
X136744719Y-97396319D01*
X136744308Y-97462986D01*
X136607809Y-97462986D01*
X136612322Y-97345765D01*
X136628362Y-97253577D01*
X136658528Y-97184269D01*
X136705629Y-97130211D01*
X136742312Y-97102505D01*
X136808990Y-97072572D01*
X136886272Y-97058678D01*
X136958110Y-97062397D01*
X136998308Y-97077400D01*
X137014082Y-97081670D01*
X137024550Y-97065750D01*
X137031856Y-97023089D01*
X137037385Y-96958106D01*
X137043437Y-96885732D01*
X137051844Y-96842187D01*
X137067141Y-96817287D01*
X137093864Y-96800845D01*
X137110654Y-96793564D01*
X137174154Y-96766963D01*
X137174081Y-97220289D01*
G37*
X137174081Y-97220289D02*
X137173833Y-97366320D01*
X137172872Y-97478655D01*
X137170794Y-97562678D01*
X137167193Y-97623769D01*
X137161665Y-97667309D01*
X137153804Y-97698679D01*
X137143207Y-97723262D01*
X137135182Y-97737294D01*
X137068728Y-97813388D01*
X136984470Y-97861084D01*
X136891249Y-97878199D01*
X136797900Y-97862546D01*
X136742312Y-97834418D01*
X136683957Y-97785760D01*
X136644186Y-97726333D01*
X136620190Y-97648507D01*
X136609161Y-97544652D01*
X136607599Y-97468462D01*
X136607809Y-97462986D01*
X136744308Y-97462986D01*
X136745141Y-97550355D01*
X136748961Y-97608192D01*
X136757746Y-97646029D01*
X136773474Y-97673398D01*
X136792266Y-97694042D01*
X136855375Y-97733890D01*
X136923137Y-97737295D01*
X136987179Y-97704025D01*
X136992164Y-97699517D01*
X137013439Y-97676067D01*
X137026779Y-97648166D01*
X137034001Y-97606641D01*
X137036923Y-97542316D01*
X137037385Y-97471200D01*
X137036383Y-97381858D01*
X137032238Y-97322258D01*
X137023236Y-97283089D01*
X137007667Y-97255040D01*
X136994902Y-97240144D01*
X136935600Y-97202575D01*
X136867301Y-97198057D01*
X136802110Y-97226753D01*
X136789528Y-97237406D01*
X136768111Y-97261063D01*
X136754744Y-97289251D01*
X136747566Y-97331245D01*
X136744719Y-97396319D01*
X136744308Y-97462986D01*
X136607809Y-97462986D01*
X136612322Y-97345765D01*
X136628362Y-97253577D01*
X136658528Y-97184269D01*
X136705629Y-97130211D01*
X136742312Y-97102505D01*
X136808990Y-97072572D01*
X136886272Y-97058678D01*
X136958110Y-97062397D01*
X136998308Y-97077400D01*
X137014082Y-97081670D01*
X137024550Y-97065750D01*
X137031856Y-97023089D01*
X137037385Y-96958106D01*
X137043437Y-96885732D01*
X137051844Y-96842187D01*
X137067141Y-96817287D01*
X137093864Y-96800845D01*
X137110654Y-96793564D01*
X137174154Y-96766963D01*
X137174081Y-97220289D01*
G36*
X137967929Y-97076662D02*
G01*
X137970911Y-97128068D01*
X137973247Y-97206192D01*
X137974749Y-97304857D01*
X137975231Y-97408343D01*
X137975231Y-97758533D01*
X137913401Y-97820363D01*
X137870793Y-97858462D01*
X137833390Y-97873895D01*
X137782270Y-97872918D01*
X137761978Y-97870433D01*
X137698554Y-97863200D01*
X137646095Y-97859055D01*
X137633308Y-97858672D01*
X137590199Y-97861176D01*
X137528544Y-97867462D01*
X137504638Y-97870433D01*
X137445922Y-97875028D01*
X137406464Y-97865046D01*
X137367338Y-97834228D01*
X137353215Y-97820363D01*
X137291385Y-97758533D01*
X137291385Y-97103503D01*
X137341150Y-97080829D01*
X137384002Y-97064034D01*
X137409073Y-97058154D01*
X137415501Y-97076736D01*
X137421509Y-97128655D01*
X137426697Y-97208172D01*
X137430664Y-97309546D01*
X137432577Y-97395192D01*
X137437923Y-97732231D01*
X137484560Y-97738825D01*
X137526976Y-97734214D01*
X137547760Y-97719287D01*
X137553570Y-97691377D01*
X137558530Y-97631925D01*
X137562246Y-97548466D01*
X137564324Y-97448532D01*
X137564624Y-97397104D01*
X137564923Y-97101054D01*
X137626454Y-97079604D01*
X137670004Y-97065020D01*
X137693694Y-97058219D01*
X137694377Y-97058154D01*
X137696754Y-97076642D01*
X137699366Y-97127906D01*
X137701995Y-97205649D01*
X137704421Y-97303574D01*
X137706115Y-97395192D01*
X137711461Y-97732231D01*
X137828692Y-97732231D01*
X137834072Y-97424746D01*
X137839451Y-97117261D01*
X137896601Y-97087707D01*
X137938797Y-97067413D01*
X137963770Y-97058204D01*
X137964491Y-97058154D01*
X137967929Y-97076662D01*
G37*
X137967929Y-97076662D02*
X137970911Y-97128068D01*
X137973247Y-97206192D01*
X137974749Y-97304857D01*
X137975231Y-97408343D01*
X137975231Y-97758533D01*
X137913401Y-97820363D01*
X137870793Y-97858462D01*
X137833390Y-97873895D01*
X137782270Y-97872918D01*
X137761978Y-97870433D01*
X137698554Y-97863200D01*
X137646095Y-97859055D01*
X137633308Y-97858672D01*
X137590199Y-97861176D01*
X137528544Y-97867462D01*
X137504638Y-97870433D01*
X137445922Y-97875028D01*
X137406464Y-97865046D01*
X137367338Y-97834228D01*
X137353215Y-97820363D01*
X137291385Y-97758533D01*
X137291385Y-97103503D01*
X137341150Y-97080829D01*
X137384002Y-97064034D01*
X137409073Y-97058154D01*
X137415501Y-97076736D01*
X137421509Y-97128655D01*
X137426697Y-97208172D01*
X137430664Y-97309546D01*
X137432577Y-97395192D01*
X137437923Y-97732231D01*
X137484560Y-97738825D01*
X137526976Y-97734214D01*
X137547760Y-97719287D01*
X137553570Y-97691377D01*
X137558530Y-97631925D01*
X137562246Y-97548466D01*
X137564324Y-97448532D01*
X137564624Y-97397104D01*
X137564923Y-97101054D01*
X137626454Y-97079604D01*
X137670004Y-97065020D01*
X137693694Y-97058219D01*
X137694377Y-97058154D01*
X137696754Y-97076642D01*
X137699366Y-97127906D01*
X137701995Y-97205649D01*
X137704421Y-97303574D01*
X137706115Y-97395192D01*
X137711461Y-97732231D01*
X137828692Y-97732231D01*
X137834072Y-97424746D01*
X137839451Y-97117261D01*
X137896601Y-97087707D01*
X137938797Y-97067413D01*
X137963770Y-97058204D01*
X137964491Y-97058154D01*
X137967929Y-97076662D01*
G36*
X138459333Y-97073528D02*
G01*
X138515590Y-97099117D01*
X138559747Y-97130124D01*
X138592101Y-97164795D01*
X138614438Y-97209520D01*
X138628546Y-97270692D01*
X138636211Y-97354701D01*
X138639220Y-97467940D01*
X138639538Y-97542509D01*
X138639538Y-97833420D01*
X138589773Y-97856095D01*
X138550576Y-97872667D01*
X138531157Y-97878769D01*
X138527442Y-97860610D01*
X138524495Y-97811648D01*
X138522691Y-97740153D01*
X138522308Y-97683385D01*
X138520661Y-97601371D01*
X138516222Y-97536309D01*
X138509740Y-97496467D01*
X138504590Y-97488000D01*
X138469977Y-97496646D01*
X138415640Y-97518823D01*
X138352722Y-97548886D01*
X138292368Y-97581192D01*
X138245721Y-97610098D01*
X138223926Y-97629961D01*
X138223839Y-97630175D01*
X138225714Y-97666935D01*
X138242525Y-97702026D01*
X138272039Y-97730528D01*
X138315116Y-97740061D01*
X138351932Y-97738950D01*
X138404074Y-97738133D01*
X138431444Y-97750349D01*
X138447882Y-97782624D01*
X138449955Y-97788710D01*
X138457081Y-97834739D01*
X138438024Y-97862687D01*
X138388353Y-97876007D01*
X138334697Y-97878470D01*
X138238142Y-97860210D01*
X138188159Y-97834131D01*
X138126429Y-97772868D01*
X138093690Y-97697670D01*
X138090753Y-97618211D01*
X138118424Y-97544167D01*
X138160047Y-97497769D01*
X138201604Y-97471793D01*
X138266922Y-97438907D01*
X138343038Y-97405557D01*
X138355726Y-97400461D01*
X138439333Y-97363565D01*
X138487530Y-97331046D01*
X138503030Y-97298718D01*
X138488550Y-97262394D01*
X138463692Y-97234000D01*
X138404939Y-97199039D01*
X138340293Y-97196417D01*
X138281008Y-97223358D01*
X138238339Y-97277088D01*
X138232739Y-97290950D01*
X138200133Y-97341936D01*
X138152530Y-97379787D01*
X138092461Y-97410850D01*
X138092461Y-97322768D01*
X138095997Y-97268951D01*
X138111156Y-97226534D01*
X138144768Y-97181279D01*
X138177035Y-97146420D01*
X138227209Y-97097062D01*
X138266193Y-97070547D01*
X138308064Y-97059911D01*
X138355460Y-97058154D01*
X138459333Y-97073528D01*
G37*
X138459333Y-97073528D02*
X138515590Y-97099117D01*
X138559747Y-97130124D01*
X138592101Y-97164795D01*
X138614438Y-97209520D01*
X138628546Y-97270692D01*
X138636211Y-97354701D01*
X138639220Y-97467940D01*
X138639538Y-97542509D01*
X138639538Y-97833420D01*
X138589773Y-97856095D01*
X138550576Y-97872667D01*
X138531157Y-97878769D01*
X138527442Y-97860610D01*
X138524495Y-97811648D01*
X138522691Y-97740153D01*
X138522308Y-97683385D01*
X138520661Y-97601371D01*
X138516222Y-97536309D01*
X138509740Y-97496467D01*
X138504590Y-97488000D01*
X138469977Y-97496646D01*
X138415640Y-97518823D01*
X138352722Y-97548886D01*
X138292368Y-97581192D01*
X138245721Y-97610098D01*
X138223926Y-97629961D01*
X138223839Y-97630175D01*
X138225714Y-97666935D01*
X138242525Y-97702026D01*
X138272039Y-97730528D01*
X138315116Y-97740061D01*
X138351932Y-97738950D01*
X138404074Y-97738133D01*
X138431444Y-97750349D01*
X138447882Y-97782624D01*
X138449955Y-97788710D01*
X138457081Y-97834739D01*
X138438024Y-97862687D01*
X138388353Y-97876007D01*
X138334697Y-97878470D01*
X138238142Y-97860210D01*
X138188159Y-97834131D01*
X138126429Y-97772868D01*
X138093690Y-97697670D01*
X138090753Y-97618211D01*
X138118424Y-97544167D01*
X138160047Y-97497769D01*
X138201604Y-97471793D01*
X138266922Y-97438907D01*
X138343038Y-97405557D01*
X138355726Y-97400461D01*
X138439333Y-97363565D01*
X138487530Y-97331046D01*
X138503030Y-97298718D01*
X138488550Y-97262394D01*
X138463692Y-97234000D01*
X138404939Y-97199039D01*
X138340293Y-97196417D01*
X138281008Y-97223358D01*
X138238339Y-97277088D01*
X138232739Y-97290950D01*
X138200133Y-97341936D01*
X138152530Y-97379787D01*
X138092461Y-97410850D01*
X138092461Y-97322768D01*
X138095997Y-97268951D01*
X138111156Y-97226534D01*
X138144768Y-97181279D01*
X138177035Y-97146420D01*
X138227209Y-97097062D01*
X138266193Y-97070547D01*
X138308064Y-97059911D01*
X138355460Y-97058154D01*
X138459333Y-97073528D01*
G36*
X139142807Y-97076782D02*
G01*
X139166161Y-97086988D01*
X139221902Y-97131134D01*
X139269569Y-97194967D01*
X139299048Y-97263087D01*
X139303846Y-97296670D01*
X139287760Y-97343556D01*
X139252475Y-97368365D01*
X139214644Y-97383387D01*
X139197321Y-97386155D01*
X139188886Y-97366066D01*
X139172230Y-97322351D01*
X139164923Y-97302598D01*
X139123948Y-97234271D01*
X139064622Y-97200191D01*
X138988552Y-97201239D01*
X138982918Y-97202581D01*
X138942305Y-97221836D01*
X138912448Y-97259375D01*
X138892055Y-97319809D01*
X138879836Y-97407751D01*
X138874500Y-97527813D01*
X138874000Y-97591698D01*
X138873752Y-97692403D01*
X138872126Y-97761054D01*
X138867801Y-97804673D01*
X138859454Y-97830282D01*
X138845765Y-97844903D01*
X138825411Y-97855558D01*
X138824234Y-97856095D01*
X138785038Y-97872667D01*
X138765619Y-97878769D01*
X138762635Y-97860319D01*
X138760081Y-97809323D01*
X138758140Y-97732308D01*
X138756997Y-97635805D01*
X138756769Y-97565184D01*
X138757932Y-97428525D01*
X138762479Y-97324851D01*
X138771999Y-97248108D01*
X138788081Y-97192246D01*
X138812313Y-97151212D01*
X138846286Y-97118954D01*
X138879833Y-97096440D01*
X138960499Y-97066476D01*
X139054381Y-97059718D01*
X139142807Y-97076782D01*
G37*
X139142807Y-97076782D02*
X139166161Y-97086988D01*
X139221902Y-97131134D01*
X139269569Y-97194967D01*
X139299048Y-97263087D01*
X139303846Y-97296670D01*
X139287760Y-97343556D01*
X139252475Y-97368365D01*
X139214644Y-97383387D01*
X139197321Y-97386155D01*
X139188886Y-97366066D01*
X139172230Y-97322351D01*
X139164923Y-97302598D01*
X139123948Y-97234271D01*
X139064622Y-97200191D01*
X138988552Y-97201239D01*
X138982918Y-97202581D01*
X138942305Y-97221836D01*
X138912448Y-97259375D01*
X138892055Y-97319809D01*
X138879836Y-97407751D01*
X138874500Y-97527813D01*
X138874000Y-97591698D01*
X138873752Y-97692403D01*
X138872126Y-97761054D01*
X138867801Y-97804673D01*
X138859454Y-97830282D01*
X138845765Y-97844903D01*
X138825411Y-97855558D01*
X138824234Y-97856095D01*
X138785038Y-97872667D01*
X138765619Y-97878769D01*
X138762635Y-97860319D01*
X138760081Y-97809323D01*
X138758140Y-97732308D01*
X138756997Y-97635805D01*
X138756769Y-97565184D01*
X138757932Y-97428525D01*
X138762479Y-97324851D01*
X138771999Y-97248108D01*
X138788081Y-97192246D01*
X138812313Y-97151212D01*
X138846286Y-97118954D01*
X138879833Y-97096440D01*
X138960499Y-97066476D01*
X139054381Y-97059718D01*
X139142807Y-97076782D01*
G36*
X139817224Y-97087838D02*
G01*
X139894528Y-97138361D01*
X139931814Y-97183590D01*
X139961353Y-97265663D01*
X139963699Y-97330607D01*
X139958385Y-97417445D01*
X139758115Y-97505103D01*
X139660739Y-97549887D01*
X139597113Y-97585913D01*
X139564029Y-97617117D01*
X139558280Y-97647436D01*
X139576658Y-97680805D01*
X139596923Y-97702923D01*
X139655889Y-97738393D01*
X139720024Y-97740879D01*
X139778926Y-97713235D01*
X139822197Y-97658320D01*
X139829936Y-97638928D01*
X139867006Y-97578364D01*
X139909654Y-97552552D01*
X139968154Y-97530471D01*
X139968154Y-97614184D01*
X139962982Y-97671150D01*
X139942723Y-97719189D01*
X139900262Y-97774346D01*
X139893951Y-97781514D01*
X139846720Y-97830585D01*
X139806121Y-97856920D01*
X139755328Y-97869035D01*
X139713220Y-97873003D01*
X139637902Y-97873991D01*
X139584286Y-97861466D01*
X139550838Y-97842869D01*
X139498268Y-97801975D01*
X139461879Y-97757748D01*
X139438850Y-97702126D01*
X139426359Y-97627047D01*
X139421587Y-97524449D01*
X139421206Y-97472376D01*
X139422501Y-97409948D01*
X139540471Y-97409948D01*
X139541839Y-97443438D01*
X139545249Y-97448923D01*
X139567753Y-97441472D01*
X139616182Y-97421753D01*
X139680908Y-97393718D01*
X139694443Y-97387692D01*
X139776244Y-97346096D01*
X139821312Y-97309538D01*
X139831217Y-97275296D01*
X139807526Y-97240648D01*
X139787960Y-97225339D01*
X139717360Y-97194721D01*
X139651280Y-97199780D01*
X139595959Y-97237151D01*
X139557636Y-97303473D01*
X139545349Y-97356116D01*
X139540471Y-97409948D01*
X139422501Y-97409948D01*
X139423730Y-97350720D01*
X139433032Y-97260710D01*
X139451460Y-97195167D01*
X139481360Y-97146912D01*
X139525080Y-97108767D01*
X139544141Y-97096440D01*
X139630726Y-97064336D01*
X139725522Y-97062316D01*
X139817224Y-97087838D01*
G37*
X139817224Y-97087838D02*
X139894528Y-97138361D01*
X139931814Y-97183590D01*
X139961353Y-97265663D01*
X139963699Y-97330607D01*
X139958385Y-97417445D01*
X139758115Y-97505103D01*
X139660739Y-97549887D01*
X139597113Y-97585913D01*
X139564029Y-97617117D01*
X139558280Y-97647436D01*
X139576658Y-97680805D01*
X139596923Y-97702923D01*
X139655889Y-97738393D01*
X139720024Y-97740879D01*
X139778926Y-97713235D01*
X139822197Y-97658320D01*
X139829936Y-97638928D01*
X139867006Y-97578364D01*
X139909654Y-97552552D01*
X139968154Y-97530471D01*
X139968154Y-97614184D01*
X139962982Y-97671150D01*
X139942723Y-97719189D01*
X139900262Y-97774346D01*
X139893951Y-97781514D01*
X139846720Y-97830585D01*
X139806121Y-97856920D01*
X139755328Y-97869035D01*
X139713220Y-97873003D01*
X139637902Y-97873991D01*
X139584286Y-97861466D01*
X139550838Y-97842869D01*
X139498268Y-97801975D01*
X139461879Y-97757748D01*
X139438850Y-97702126D01*
X139426359Y-97627047D01*
X139421587Y-97524449D01*
X139421206Y-97472376D01*
X139422501Y-97409948D01*
X139540471Y-97409948D01*
X139541839Y-97443438D01*
X139545249Y-97448923D01*
X139567753Y-97441472D01*
X139616182Y-97421753D01*
X139680908Y-97393718D01*
X139694443Y-97387692D01*
X139776244Y-97346096D01*
X139821312Y-97309538D01*
X139831217Y-97275296D01*
X139807526Y-97240648D01*
X139787960Y-97225339D01*
X139717360Y-97194721D01*
X139651280Y-97199780D01*
X139595959Y-97237151D01*
X139557636Y-97303473D01*
X139545349Y-97356116D01*
X139540471Y-97409948D01*
X139422501Y-97409948D01*
X139423730Y-97350720D01*
X139433032Y-97260710D01*
X139451460Y-97195167D01*
X139481360Y-97146912D01*
X139525080Y-97108767D01*
X139544141Y-97096440D01*
X139630726Y-97064336D01*
X139725522Y-97062316D01*
X139817224Y-97087838D01*
G36*
X135711878Y-90727776D02*
G01*
X135817612Y-90728355D01*
X135894132Y-90729922D01*
X135946372Y-90732972D01*
X135979263Y-90737996D01*
X135997737Y-90745489D01*
X136006727Y-90755944D01*
X136011163Y-90769853D01*
X136011594Y-90771654D01*
X136018333Y-90804145D01*
X136030808Y-90868252D01*
X136047719Y-90957151D01*
X136067771Y-91064019D01*
X136089664Y-91182033D01*
X136090429Y-91186178D01*
X136112359Y-91301831D01*
X136132877Y-91404014D01*
X136150659Y-91486598D01*
X136164381Y-91543456D01*
X136172718Y-91568458D01*
X136173116Y-91568901D01*
X136197677Y-91581110D01*
X136248315Y-91601456D01*
X136314095Y-91625545D01*
X136314461Y-91625674D01*
X136397317Y-91656818D01*
X136495000Y-91696491D01*
X136587077Y-91736381D01*
X136591434Y-91738353D01*
X136741407Y-91806420D01*
X137073498Y-91579639D01*
X137175374Y-91510504D01*
X137267657Y-91448697D01*
X137345003Y-91397733D01*
X137402064Y-91361127D01*
X137433495Y-91342394D01*
X137436479Y-91341004D01*
X137459321Y-91347190D01*
X137501982Y-91377035D01*
X137566128Y-91431947D01*
X137653421Y-91513334D01*
X137742535Y-91599922D01*
X137828441Y-91685247D01*
X137905327Y-91763108D01*
X137968564Y-91828697D01*
X138013523Y-91877205D01*
X138035576Y-91903825D01*
X138036396Y-91905195D01*
X138038834Y-91923463D01*
X138029650Y-91953295D01*
X138006574Y-91998721D01*
X137967337Y-92063770D01*
X137909670Y-92152470D01*
X137832795Y-92266657D01*
X137764570Y-92367162D01*
X137703582Y-92457303D01*
X137653356Y-92531849D01*
X137617416Y-92585565D01*
X137599287Y-92613218D01*
X137598146Y-92615095D01*
X137600359Y-92641590D01*
X137617138Y-92693086D01*
X137645142Y-92759851D01*
X137655122Y-92781172D01*
X137698672Y-92876159D01*
X137745134Y-92983937D01*
X137782877Y-93077192D01*
X137810073Y-93146406D01*
X137831675Y-93199006D01*
X137844158Y-93226497D01*
X137845709Y-93228616D01*
X137868668Y-93232124D01*
X137922786Y-93241738D01*
X138000868Y-93256089D01*
X138095719Y-93273807D01*
X138200143Y-93293525D01*
X138306944Y-93313874D01*
X138408926Y-93333486D01*
X138498894Y-93350991D01*
X138569653Y-93365022D01*
X138614006Y-93374209D01*
X138624885Y-93376807D01*
X138636122Y-93383218D01*
X138644605Y-93397697D01*
X138650714Y-93425133D01*
X138654832Y-93470411D01*
X138657341Y-93538420D01*
X138658621Y-93634047D01*
X138659054Y-93762180D01*
X138659077Y-93814701D01*
X138659077Y-94241845D01*
X138556500Y-94262091D01*
X138499431Y-94273070D01*
X138414269Y-94289095D01*
X138311372Y-94308233D01*
X138201096Y-94328551D01*
X138170615Y-94334132D01*
X138068855Y-94353917D01*
X137980205Y-94373373D01*
X137912108Y-94390697D01*
X137872004Y-94404088D01*
X137865323Y-94408079D01*
X137848919Y-94436342D01*
X137825399Y-94491109D01*
X137799316Y-94561588D01*
X137794142Y-94576769D01*
X137759956Y-94670896D01*
X137717523Y-94777101D01*
X137675997Y-94872473D01*
X137675792Y-94872916D01*
X137606640Y-95022525D01*
X138061512Y-95691617D01*
X137769500Y-95984116D01*
X137681180Y-96071170D01*
X137600625Y-96147909D01*
X137532360Y-96210237D01*
X137480908Y-96254056D01*
X137450794Y-96275270D01*
X137446474Y-96276616D01*
X137421111Y-96266016D01*
X137369358Y-96236547D01*
X137296868Y-96191705D01*
X137209294Y-96134984D01*
X137114612Y-96071462D01*
X137018516Y-96006668D01*
X136932837Y-95950287D01*
X136863016Y-95905788D01*
X136814494Y-95876639D01*
X136792782Y-95866308D01*
X136766293Y-95875050D01*
X136716062Y-95898087D01*
X136652451Y-95930631D01*
X136645708Y-95934249D01*
X136560046Y-95977210D01*
X136501306Y-95998279D01*
X136464772Y-95998503D01*
X136445731Y-95978928D01*
X136445620Y-95978654D01*
X136436102Y-95955472D01*
X136413403Y-95900441D01*
X136379282Y-95817822D01*
X136335500Y-95711872D01*
X136283816Y-95586852D01*
X136225992Y-95447020D01*
X136169991Y-95311637D01*
X136108447Y-95162234D01*
X136051939Y-95023832D01*
X136002161Y-94900673D01*
X135960806Y-94797002D01*
X135929568Y-94717059D01*
X135910141Y-94665088D01*
X135904154Y-94645692D01*
X135919168Y-94623443D01*
X135958439Y-94587982D01*
X136010807Y-94548887D01*
X136159941Y-94425245D01*
X136276511Y-94283522D01*
X136359118Y-94126704D01*
X136406366Y-93957775D01*
X136416857Y-93779722D01*
X136409231Y-93697539D01*
X136367682Y-93527031D01*
X136296123Y-93376459D01*
X136198995Y-93247309D01*
X136080734Y-93141064D01*
X135945780Y-93059210D01*
X135798571Y-93003232D01*
X135643544Y-92974615D01*
X135485139Y-92974844D01*
X135327794Y-93005405D01*
X135175946Y-93067782D01*
X135034035Y-93163460D01*
X134974803Y-93217572D01*
X134861203Y-93356520D01*
X134782106Y-93508361D01*
X134736986Y-93668667D01*
X134725316Y-93833012D01*
X134746569Y-93996971D01*
X134800220Y-94156118D01*
X134885740Y-94306025D01*
X135002605Y-94442267D01*
X135133193Y-94548887D01*
X135187588Y-94589642D01*
X135226014Y-94624718D01*
X135239846Y-94645726D01*
X135232603Y-94668635D01*
X135212005Y-94723365D01*
X135179746Y-94805672D01*
X135137521Y-94911315D01*
X135087023Y-95036050D01*
X135029948Y-95175636D01*
X134973854Y-95311670D01*
X134911967Y-95461201D01*
X134854644Y-95599767D01*
X134803644Y-95723107D01*
X134760727Y-95826964D01*
X134727653Y-95907080D01*
X134706181Y-95959195D01*
X134698225Y-95978654D01*
X134679429Y-95998423D01*
X134643074Y-95998365D01*
X134584479Y-95977441D01*
X134498968Y-95934613D01*
X134498292Y-95934249D01*
X134433907Y-95901012D01*
X134381861Y-95876802D01*
X134352512Y-95866404D01*
X134351217Y-95866308D01*
X134329124Y-95876855D01*
X134280348Y-95906184D01*
X134210331Y-95950827D01*
X134124514Y-96007314D01*
X134029388Y-96071462D01*
X133932540Y-96136411D01*
X133845253Y-96192896D01*
X133773181Y-96237421D01*
X133721977Y-96266490D01*
X133697526Y-96276616D01*
X133675010Y-96263307D01*
X133629742Y-96226112D01*
X133566244Y-96169128D01*
X133489039Y-96096449D01*
X133402651Y-96012171D01*
X133374399Y-95984016D01*
X133082287Y-95691416D01*
X133304631Y-95365104D01*
X133372202Y-95264897D01*
X133431507Y-95174963D01*
X133479217Y-95100510D01*
X133512007Y-95046751D01*
X133526548Y-95018894D01*
X133526974Y-95016912D01*
X133519308Y-94990655D01*
X133498689Y-94937837D01*
X133468685Y-94867310D01*
X133447625Y-94820093D01*
X133408248Y-94729694D01*
X133371165Y-94638366D01*
X133342415Y-94561200D01*
X133334605Y-94537692D01*
X133312417Y-94474916D01*
X133290727Y-94426411D01*
X133278813Y-94408079D01*
X133252523Y-94396859D01*
X133195142Y-94380954D01*
X133114118Y-94362167D01*
X133016895Y-94342299D01*
X132973385Y-94334132D01*
X132862896Y-94313829D01*
X132756916Y-94294170D01*
X132665801Y-94277088D01*
X132599908Y-94264518D01*
X132587500Y-94262091D01*
X132484923Y-94241845D01*
X132484923Y-93814701D01*
X132485153Y-93674246D01*
X132486099Y-93567979D01*
X132488141Y-93491013D01*
X132491662Y-93438460D01*
X132497043Y-93405433D01*
X132504666Y-93387045D01*
X132514912Y-93378408D01*
X132519115Y-93376807D01*
X132544470Y-93371127D01*
X132600484Y-93359795D01*
X132679964Y-93344179D01*
X132775712Y-93325647D01*
X132880533Y-93305569D01*
X132987232Y-93285312D01*
X133088613Y-93266246D01*
X133177479Y-93249739D01*
X133246637Y-93237159D01*
X133288889Y-93229875D01*
X133298290Y-93228616D01*
X133306807Y-93211763D01*
X133325660Y-93166870D01*
X133351324Y-93102430D01*
X133361123Y-93077192D01*
X133400648Y-92979686D01*
X133447192Y-92871959D01*
X133488877Y-92781172D01*
X133519550Y-92711753D01*
X133539956Y-92654710D01*
X133546768Y-92619777D01*
X133545682Y-92615095D01*
X133531285Y-92592991D01*
X133498412Y-92543831D01*
X133450590Y-92472848D01*
X133391348Y-92385278D01*
X133324215Y-92286357D01*
X133310941Y-92266830D01*
X133233046Y-92151140D01*
X133175787Y-92063044D01*
X133136881Y-91998486D01*
X133114044Y-91953411D01*
X133104994Y-91923763D01*
X133107448Y-91905485D01*
X133107511Y-91905369D01*
X133126827Y-91881361D01*
X133169551Y-91834947D01*
X133231051Y-91770937D01*
X133306698Y-91694145D01*
X133391861Y-91609382D01*
X133401465Y-91599922D01*
X133508790Y-91495989D01*
X133591615Y-91419675D01*
X133651605Y-91369571D01*
X133690423Y-91344270D01*
X133707520Y-91341004D01*
X133732473Y-91355250D01*
X133784255Y-91388156D01*
X133857520Y-91436208D01*
X133946920Y-91495890D01*
X134047111Y-91563688D01*
X134070501Y-91579639D01*
X134402593Y-91806420D01*
X134552565Y-91738353D01*
X134643770Y-91698685D01*
X134741669Y-91658791D01*
X134825831Y-91626983D01*
X134829538Y-91625674D01*
X134895369Y-91601576D01*
X134946116Y-91581200D01*
X134970842Y-91568936D01*
X134970884Y-91568901D01*
X134978729Y-91546734D01*
X134992066Y-91492217D01*
X135009570Y-91411480D01*
X135029917Y-91310650D01*
X135051782Y-91195856D01*
X135053571Y-91186178D01*
X135075504Y-91067904D01*
X135095640Y-90960542D01*
X135112680Y-90870917D01*
X135125328Y-90805851D01*
X135132284Y-90772168D01*
X135132406Y-90771654D01*
X135136639Y-90757325D01*
X135144871Y-90746507D01*
X135162033Y-90738706D01*
X135193058Y-90733429D01*
X135242878Y-90730182D01*
X135316424Y-90728472D01*
X135418629Y-90727807D01*
X135554425Y-90727693D01*
X135572000Y-90727692D01*
X135711878Y-90727776D01*
G37*
X135711878Y-90727776D02*
X135817612Y-90728355D01*
X135894132Y-90729922D01*
X135946372Y-90732972D01*
X135979263Y-90737996D01*
X135997737Y-90745489D01*
X136006727Y-90755944D01*
X136011163Y-90769853D01*
X136011594Y-90771654D01*
X136018333Y-90804145D01*
X136030808Y-90868252D01*
X136047719Y-90957151D01*
X136067771Y-91064019D01*
X136089664Y-91182033D01*
X136090429Y-91186178D01*
X136112359Y-91301831D01*
X136132877Y-91404014D01*
X136150659Y-91486598D01*
X136164381Y-91543456D01*
X136172718Y-91568458D01*
X136173116Y-91568901D01*
X136197677Y-91581110D01*
X136248315Y-91601456D01*
X136314095Y-91625545D01*
X136314461Y-91625674D01*
X136397317Y-91656818D01*
X136495000Y-91696491D01*
X136587077Y-91736381D01*
X136591434Y-91738353D01*
X136741407Y-91806420D01*
X137073498Y-91579639D01*
X137175374Y-91510504D01*
X137267657Y-91448697D01*
X137345003Y-91397733D01*
X137402064Y-91361127D01*
X137433495Y-91342394D01*
X137436479Y-91341004D01*
X137459321Y-91347190D01*
X137501982Y-91377035D01*
X137566128Y-91431947D01*
X137653421Y-91513334D01*
X137742535Y-91599922D01*
X137828441Y-91685247D01*
X137905327Y-91763108D01*
X137968564Y-91828697D01*
X138013523Y-91877205D01*
X138035576Y-91903825D01*
X138036396Y-91905195D01*
X138038834Y-91923463D01*
X138029650Y-91953295D01*
X138006574Y-91998721D01*
X137967337Y-92063770D01*
X137909670Y-92152470D01*
X137832795Y-92266657D01*
X137764570Y-92367162D01*
X137703582Y-92457303D01*
X137653356Y-92531849D01*
X137617416Y-92585565D01*
X137599287Y-92613218D01*
X137598146Y-92615095D01*
X137600359Y-92641590D01*
X137617138Y-92693086D01*
X137645142Y-92759851D01*
X137655122Y-92781172D01*
X137698672Y-92876159D01*
X137745134Y-92983937D01*
X137782877Y-93077192D01*
X137810073Y-93146406D01*
X137831675Y-93199006D01*
X137844158Y-93226497D01*
X137845709Y-93228616D01*
X137868668Y-93232124D01*
X137922786Y-93241738D01*
X138000868Y-93256089D01*
X138095719Y-93273807D01*
X138200143Y-93293525D01*
X138306944Y-93313874D01*
X138408926Y-93333486D01*
X138498894Y-93350991D01*
X138569653Y-93365022D01*
X138614006Y-93374209D01*
X138624885Y-93376807D01*
X138636122Y-93383218D01*
X138644605Y-93397697D01*
X138650714Y-93425133D01*
X138654832Y-93470411D01*
X138657341Y-93538420D01*
X138658621Y-93634047D01*
X138659054Y-93762180D01*
X138659077Y-93814701D01*
X138659077Y-94241845D01*
X138556500Y-94262091D01*
X138499431Y-94273070D01*
X138414269Y-94289095D01*
X138311372Y-94308233D01*
X138201096Y-94328551D01*
X138170615Y-94334132D01*
X138068855Y-94353917D01*
X137980205Y-94373373D01*
X137912108Y-94390697D01*
X137872004Y-94404088D01*
X137865323Y-94408079D01*
X137848919Y-94436342D01*
X137825399Y-94491109D01*
X137799316Y-94561588D01*
X137794142Y-94576769D01*
X137759956Y-94670896D01*
X137717523Y-94777101D01*
X137675997Y-94872473D01*
X137675792Y-94872916D01*
X137606640Y-95022525D01*
X138061512Y-95691617D01*
X137769500Y-95984116D01*
X137681180Y-96071170D01*
X137600625Y-96147909D01*
X137532360Y-96210237D01*
X137480908Y-96254056D01*
X137450794Y-96275270D01*
X137446474Y-96276616D01*
X137421111Y-96266016D01*
X137369358Y-96236547D01*
X137296868Y-96191705D01*
X137209294Y-96134984D01*
X137114612Y-96071462D01*
X137018516Y-96006668D01*
X136932837Y-95950287D01*
X136863016Y-95905788D01*
X136814494Y-95876639D01*
X136792782Y-95866308D01*
X136766293Y-95875050D01*
X136716062Y-95898087D01*
X136652451Y-95930631D01*
X136645708Y-95934249D01*
X136560046Y-95977210D01*
X136501306Y-95998279D01*
X136464772Y-95998503D01*
X136445731Y-95978928D01*
X136445620Y-95978654D01*
X136436102Y-95955472D01*
X136413403Y-95900441D01*
X136379282Y-95817822D01*
X136335500Y-95711872D01*
X136283816Y-95586852D01*
X136225992Y-95447020D01*
X136169991Y-95311637D01*
X136108447Y-95162234D01*
X136051939Y-95023832D01*
X136002161Y-94900673D01*
X135960806Y-94797002D01*
X135929568Y-94717059D01*
X135910141Y-94665088D01*
X135904154Y-94645692D01*
X135919168Y-94623443D01*
X135958439Y-94587982D01*
X136010807Y-94548887D01*
X136159941Y-94425245D01*
X136276511Y-94283522D01*
X136359118Y-94126704D01*
X136406366Y-93957775D01*
X136416857Y-93779722D01*
X136409231Y-93697539D01*
X136367682Y-93527031D01*
X136296123Y-93376459D01*
X136198995Y-93247309D01*
X136080734Y-93141064D01*
X135945780Y-93059210D01*
X135798571Y-93003232D01*
X135643544Y-92974615D01*
X135485139Y-92974844D01*
X135327794Y-93005405D01*
X135175946Y-93067782D01*
X135034035Y-93163460D01*
X134974803Y-93217572D01*
X134861203Y-93356520D01*
X134782106Y-93508361D01*
X134736986Y-93668667D01*
X134725316Y-93833012D01*
X134746569Y-93996971D01*
X134800220Y-94156118D01*
X134885740Y-94306025D01*
X135002605Y-94442267D01*
X135133193Y-94548887D01*
X135187588Y-94589642D01*
X135226014Y-94624718D01*
X135239846Y-94645726D01*
X135232603Y-94668635D01*
X135212005Y-94723365D01*
X135179746Y-94805672D01*
X135137521Y-94911315D01*
X135087023Y-95036050D01*
X135029948Y-95175636D01*
X134973854Y-95311670D01*
X134911967Y-95461201D01*
X134854644Y-95599767D01*
X134803644Y-95723107D01*
X134760727Y-95826964D01*
X134727653Y-95907080D01*
X134706181Y-95959195D01*
X134698225Y-95978654D01*
X134679429Y-95998423D01*
X134643074Y-95998365D01*
X134584479Y-95977441D01*
X134498968Y-95934613D01*
X134498292Y-95934249D01*
X134433907Y-95901012D01*
X134381861Y-95876802D01*
X134352512Y-95866404D01*
X134351217Y-95866308D01*
X134329124Y-95876855D01*
X134280348Y-95906184D01*
X134210331Y-95950827D01*
X134124514Y-96007314D01*
X134029388Y-96071462D01*
X133932540Y-96136411D01*
X133845253Y-96192896D01*
X133773181Y-96237421D01*
X133721977Y-96266490D01*
X133697526Y-96276616D01*
X133675010Y-96263307D01*
X133629742Y-96226112D01*
X133566244Y-96169128D01*
X133489039Y-96096449D01*
X133402651Y-96012171D01*
X133374399Y-95984016D01*
X133082287Y-95691416D01*
X133304631Y-95365104D01*
X133372202Y-95264897D01*
X133431507Y-95174963D01*
X133479217Y-95100510D01*
X133512007Y-95046751D01*
X133526548Y-95018894D01*
X133526974Y-95016912D01*
X133519308Y-94990655D01*
X133498689Y-94937837D01*
X133468685Y-94867310D01*
X133447625Y-94820093D01*
X133408248Y-94729694D01*
X133371165Y-94638366D01*
X133342415Y-94561200D01*
X133334605Y-94537692D01*
X133312417Y-94474916D01*
X133290727Y-94426411D01*
X133278813Y-94408079D01*
X133252523Y-94396859D01*
X133195142Y-94380954D01*
X133114118Y-94362167D01*
X133016895Y-94342299D01*
X132973385Y-94334132D01*
X132862896Y-94313829D01*
X132756916Y-94294170D01*
X132665801Y-94277088D01*
X132599908Y-94264518D01*
X132587500Y-94262091D01*
X132484923Y-94241845D01*
X132484923Y-93814701D01*
X132485153Y-93674246D01*
X132486099Y-93567979D01*
X132488141Y-93491013D01*
X132491662Y-93438460D01*
X132497043Y-93405433D01*
X132504666Y-93387045D01*
X132514912Y-93378408D01*
X132519115Y-93376807D01*
X132544470Y-93371127D01*
X132600484Y-93359795D01*
X132679964Y-93344179D01*
X132775712Y-93325647D01*
X132880533Y-93305569D01*
X132987232Y-93285312D01*
X133088613Y-93266246D01*
X133177479Y-93249739D01*
X133246637Y-93237159D01*
X133288889Y-93229875D01*
X133298290Y-93228616D01*
X133306807Y-93211763D01*
X133325660Y-93166870D01*
X133351324Y-93102430D01*
X133361123Y-93077192D01*
X133400648Y-92979686D01*
X133447192Y-92871959D01*
X133488877Y-92781172D01*
X133519550Y-92711753D01*
X133539956Y-92654710D01*
X133546768Y-92619777D01*
X133545682Y-92615095D01*
X133531285Y-92592991D01*
X133498412Y-92543831D01*
X133450590Y-92472848D01*
X133391348Y-92385278D01*
X133324215Y-92286357D01*
X133310941Y-92266830D01*
X133233046Y-92151140D01*
X133175787Y-92063044D01*
X133136881Y-91998486D01*
X133114044Y-91953411D01*
X133104994Y-91923763D01*
X133107448Y-91905485D01*
X133107511Y-91905369D01*
X133126827Y-91881361D01*
X133169551Y-91834947D01*
X133231051Y-91770937D01*
X133306698Y-91694145D01*
X133391861Y-91609382D01*
X133401465Y-91599922D01*
X133508790Y-91495989D01*
X133591615Y-91419675D01*
X133651605Y-91369571D01*
X133690423Y-91344270D01*
X133707520Y-91341004D01*
X133732473Y-91355250D01*
X133784255Y-91388156D01*
X133857520Y-91436208D01*
X133946920Y-91495890D01*
X134047111Y-91563688D01*
X134070501Y-91579639D01*
X134402593Y-91806420D01*
X134552565Y-91738353D01*
X134643770Y-91698685D01*
X134741669Y-91658791D01*
X134825831Y-91626983D01*
X134829538Y-91625674D01*
X134895369Y-91601576D01*
X134946116Y-91581200D01*
X134970842Y-91568936D01*
X134970884Y-91568901D01*
X134978729Y-91546734D01*
X134992066Y-91492217D01*
X135009570Y-91411480D01*
X135029917Y-91310650D01*
X135051782Y-91195856D01*
X135053571Y-91186178D01*
X135075504Y-91067904D01*
X135095640Y-90960542D01*
X135112680Y-90870917D01*
X135125328Y-90805851D01*
X135132284Y-90772168D01*
X135132406Y-90771654D01*
X135136639Y-90757325D01*
X135144871Y-90746507D01*
X135162033Y-90738706D01*
X135193058Y-90733429D01*
X135242878Y-90730182D01*
X135316424Y-90728472D01*
X135418629Y-90727807D01*
X135554425Y-90727693D01*
X135572000Y-90727692D01*
X135711878Y-90727776D01*
D12*
%TO.C,J1*%
X157984000Y-114065000D02*
X157984000Y-115395000D01*
X156654000Y-114065000D02*
X157984000Y-114065000D01*
X155384000Y-114065000D02*
X155384000Y-116725000D01*
X155384000Y-116725000D02*
X142624000Y-116725000D01*
X155384000Y-114065000D02*
X142624000Y-114065000D01*
X142624000Y-114065000D02*
X142624000Y-116725000D01*
%TO.C,U9*%
X139619000Y-77738000D02*
X139619000Y-79138000D01*
X141939000Y-79138000D02*
X141939000Y-77238000D01*
%TO.C,U8*%
X154876000Y-64341000D02*
X154876000Y-68024000D01*
X148780000Y-64341000D02*
X154876000Y-64341000D01*
X148780000Y-68024000D02*
X148780000Y-64341000D01*
X154876000Y-68024000D02*
X148780000Y-68024000D01*
X149796000Y-64341000D02*
G75*
G02*
X153860000Y-64341000I2032000J0D01*
G01*
%TO.C,U4*%
X156400000Y-111585000D02*
X158600000Y-111585000D01*
X156400000Y-111585000D02*
X154200000Y-111585000D01*
X156400000Y-104815000D02*
X158600000Y-104815000D01*
X156400000Y-104815000D02*
X152800000Y-104815000D01*
%TO.C,U3*%
X156400000Y-102585000D02*
X158600000Y-102585000D01*
X156400000Y-102585000D02*
X154200000Y-102585000D01*
X156400000Y-95815000D02*
X158600000Y-95815000D01*
X156400000Y-95815000D02*
X152800000Y-95815000D01*
%TO.C,U7*%
X142560000Y-71400000D02*
X142560000Y-67950000D01*
X142560000Y-71400000D02*
X142560000Y-73350000D01*
X137440000Y-71400000D02*
X137440000Y-69450000D01*
X137440000Y-71400000D02*
X137440000Y-73350000D01*
%TO.C,U6*%
X150790000Y-124085000D02*
X150790000Y-124810000D01*
X156010000Y-119590000D02*
X155285000Y-119590000D01*
X156010000Y-120315000D02*
X156010000Y-119590000D01*
X156010000Y-124810000D02*
X155285000Y-124810000D01*
X156010000Y-124085000D02*
X156010000Y-124810000D01*
X150790000Y-119590000D02*
X151515000Y-119590000D01*
X150790000Y-120315000D02*
X150790000Y-119590000D01*
%TO.C,U5*%
X140070000Y-100110000D02*
X140070000Y-94100000D01*
X146890000Y-97860000D02*
X146890000Y-94100000D01*
X140070000Y-94100000D02*
X141330000Y-94100000D01*
X146890000Y-94100000D02*
X145630000Y-94100000D01*
%TO.C,U2*%
X134800000Y-121290000D02*
X132800000Y-121290000D01*
X133800000Y-123510000D02*
X132800000Y-123510000D01*
%TO.C,U1*%
X164445000Y-71680000D02*
X164445000Y-71300000D01*
X170865000Y-71680000D02*
X164445000Y-71680000D01*
X170865000Y-89920000D02*
X164445000Y-89920000D01*
X170865000Y-71680000D02*
X170865000Y-89920000D01*
X145120000Y-89920000D02*
X145120000Y-88920000D01*
X145900000Y-89920000D02*
X145120000Y-89920000D01*
X145120000Y-71680000D02*
X145120000Y-72680000D01*
X145900000Y-71680000D02*
X145120000Y-71680000D01*
%TO.C,Q2*%
X143656000Y-122820000D02*
X145116000Y-122820000D01*
X143656000Y-125980000D02*
X145816000Y-125980000D01*
X143656000Y-125980000D02*
X143656000Y-125050000D01*
X143656000Y-122820000D02*
X143656000Y-123750000D01*
%TO.C,Q1*%
X143656000Y-119220000D02*
X145116000Y-119220000D01*
X143656000Y-122380000D02*
X145816000Y-122380000D01*
X143656000Y-122380000D02*
X143656000Y-121450000D01*
X143656000Y-119220000D02*
X143656000Y-120150000D01*
%TO.C,J5*%
X136930000Y-81673000D02*
X135600000Y-81673000D01*
X136930000Y-80343000D02*
X136930000Y-81673000D01*
X136930000Y-79073000D02*
X134270000Y-79073000D01*
X134270000Y-79073000D02*
X134270000Y-76473000D01*
X136930000Y-79073000D02*
X136930000Y-76473000D01*
X136930000Y-76473000D02*
X134270000Y-76473000D01*
%TO.C,J4*%
X171700000Y-128700000D02*
X171700000Y-119300000D01*
X165900000Y-119300000D02*
X167900000Y-119300000D01*
X169800000Y-119300000D02*
X171700000Y-119300000D01*
X165900000Y-128700000D02*
X167900000Y-128700000D01*
X169800000Y-128700000D02*
X171700000Y-128700000D01*
%TO.C,J3*%
X134270000Y-100070000D02*
X135600000Y-100070000D01*
X134270000Y-101400000D02*
X134270000Y-100070000D01*
X134270000Y-102670000D02*
X136930000Y-102670000D01*
X136930000Y-102670000D02*
X136930000Y-105270000D01*
X134270000Y-102670000D02*
X134270000Y-105270000D01*
X134270000Y-105270000D02*
X136930000Y-105270000D01*
%TO.C,D4*%
X145700000Y-105650000D02*
X143150000Y-105650000D01*
X145700000Y-103950000D02*
X143150000Y-103950000D01*
X145700000Y-105650000D02*
X145700000Y-103950000D01*
%TO.C,D3*%
X146100000Y-103950000D02*
X148650000Y-103950000D01*
X146100000Y-105650000D02*
X148650000Y-105650000D01*
X146100000Y-103950000D02*
X146100000Y-105650000D01*
%TO.C,D2*%
X142700000Y-105950000D02*
X145250000Y-105950000D01*
X142700000Y-107650000D02*
X145250000Y-107650000D01*
X142700000Y-105950000D02*
X142700000Y-107650000D01*
%TO.C,D1*%
X134830000Y-84997000D02*
X134830000Y-87282000D01*
X136300000Y-84997000D02*
X134830000Y-84997000D01*
X136300000Y-87282000D02*
X136300000Y-84997000D01*
%TO.C,C9*%
X142258578Y-101490000D02*
X141741422Y-101490000D01*
X142258578Y-102910000D02*
X141741422Y-102910000D01*
%TO.C,C7*%
X145541422Y-102910000D02*
X146058578Y-102910000D01*
X145541422Y-101490000D02*
X146058578Y-101490000D01*
%TO.C,C4*%
X133637221Y-125110000D02*
X133962779Y-125110000D01*
X133637221Y-124090000D02*
X133962779Y-124090000D01*
%TO.C,C3*%
X162141422Y-68110000D02*
X162658578Y-68110000D01*
X162141422Y-66690000D02*
X162658578Y-66690000D01*
%TO.C,C2*%
X162237221Y-69910000D02*
X162562779Y-69910000D01*
X162237221Y-68890000D02*
X162562779Y-68890000D01*
%TO.C,J1*%
D10*
X158650666Y-114847380D02*
X158650666Y-115561666D01*
X158603047Y-115704523D01*
X158507809Y-115799761D01*
X158364952Y-115847380D01*
X158269714Y-115847380D01*
X159650666Y-115847380D02*
X159079238Y-115847380D01*
X159364952Y-115847380D02*
X159364952Y-114847380D01*
X159269714Y-114990238D01*
X159174476Y-115085476D01*
X159079238Y-115133095D01*
%TO.C,C16*%
X138358142Y-76255142D02*
X138310523Y-76302761D01*
X138167666Y-76350380D01*
X138072428Y-76350380D01*
X137929571Y-76302761D01*
X137834333Y-76207523D01*
X137786714Y-76112285D01*
X137739095Y-75921809D01*
X137739095Y-75778952D01*
X137786714Y-75588476D01*
X137834333Y-75493238D01*
X137929571Y-75398000D01*
X138072428Y-75350380D01*
X138167666Y-75350380D01*
X138310523Y-75398000D01*
X138358142Y-75445619D01*
X139310523Y-76350380D02*
X138739095Y-76350380D01*
X139024809Y-76350380D02*
X139024809Y-75350380D01*
X138929571Y-75493238D01*
X138834333Y-75588476D01*
X138739095Y-75636095D01*
X140167666Y-75350380D02*
X139977190Y-75350380D01*
X139881952Y-75398000D01*
X139834333Y-75445619D01*
X139739095Y-75588476D01*
X139691476Y-75778952D01*
X139691476Y-76159904D01*
X139739095Y-76255142D01*
X139786714Y-76302761D01*
X139881952Y-76350380D01*
X140072428Y-76350380D01*
X140167666Y-76302761D01*
X140215285Y-76255142D01*
X140262904Y-76159904D01*
X140262904Y-75921809D01*
X140215285Y-75826571D01*
X140167666Y-75778952D01*
X140072428Y-75731333D01*
X139881952Y-75731333D01*
X139786714Y-75778952D01*
X139739095Y-75826571D01*
X139691476Y-75921809D01*
%TO.C,U9*%
X137985095Y-76620380D02*
X137985095Y-77429904D01*
X138032714Y-77525142D01*
X138080333Y-77572761D01*
X138175571Y-77620380D01*
X138366047Y-77620380D01*
X138461285Y-77572761D01*
X138508904Y-77525142D01*
X138556523Y-77429904D01*
X138556523Y-76620380D01*
X139080333Y-77620380D02*
X139270809Y-77620380D01*
X139366047Y-77572761D01*
X139413666Y-77525142D01*
X139508904Y-77382285D01*
X139556523Y-77191809D01*
X139556523Y-76810857D01*
X139508904Y-76715619D01*
X139461285Y-76668000D01*
X139366047Y-76620380D01*
X139175571Y-76620380D01*
X139080333Y-76668000D01*
X139032714Y-76715619D01*
X138985095Y-76810857D01*
X138985095Y-77048952D01*
X139032714Y-77144190D01*
X139080333Y-77191809D01*
X139175571Y-77239428D01*
X139366047Y-77239428D01*
X139461285Y-77191809D01*
X139508904Y-77144190D01*
X139556523Y-77048952D01*
%TO.C,U8*%
X146748095Y-65317380D02*
X146748095Y-66126904D01*
X146795714Y-66222142D01*
X146843333Y-66269761D01*
X146938571Y-66317380D01*
X147129047Y-66317380D01*
X147224285Y-66269761D01*
X147271904Y-66222142D01*
X147319523Y-66126904D01*
X147319523Y-65317380D01*
X147938571Y-65745952D02*
X147843333Y-65698333D01*
X147795714Y-65650714D01*
X147748095Y-65555476D01*
X147748095Y-65507857D01*
X147795714Y-65412619D01*
X147843333Y-65365000D01*
X147938571Y-65317380D01*
X148129047Y-65317380D01*
X148224285Y-65365000D01*
X148271904Y-65412619D01*
X148319523Y-65507857D01*
X148319523Y-65555476D01*
X148271904Y-65650714D01*
X148224285Y-65698333D01*
X148129047Y-65745952D01*
X147938571Y-65745952D01*
X147843333Y-65793571D01*
X147795714Y-65841190D01*
X147748095Y-65936428D01*
X147748095Y-66126904D01*
X147795714Y-66222142D01*
X147843333Y-66269761D01*
X147938571Y-66317380D01*
X148129047Y-66317380D01*
X148224285Y-66269761D01*
X148271904Y-66222142D01*
X148319523Y-66126904D01*
X148319523Y-65936428D01*
X148271904Y-65841190D01*
X148224285Y-65793571D01*
X148129047Y-65745952D01*
%TO.C,R16*%
X160075142Y-123848380D02*
X159741809Y-123372190D01*
X159503714Y-123848380D02*
X159503714Y-122848380D01*
X159884666Y-122848380D01*
X159979904Y-122896000D01*
X160027523Y-122943619D01*
X160075142Y-123038857D01*
X160075142Y-123181714D01*
X160027523Y-123276952D01*
X159979904Y-123324571D01*
X159884666Y-123372190D01*
X159503714Y-123372190D01*
X161027523Y-123848380D02*
X160456095Y-123848380D01*
X160741809Y-123848380D02*
X160741809Y-122848380D01*
X160646571Y-122991238D01*
X160551333Y-123086476D01*
X160456095Y-123134095D01*
X161884666Y-122848380D02*
X161694190Y-122848380D01*
X161598952Y-122896000D01*
X161551333Y-122943619D01*
X161456095Y-123086476D01*
X161408476Y-123276952D01*
X161408476Y-123657904D01*
X161456095Y-123753142D01*
X161503714Y-123800761D01*
X161598952Y-123848380D01*
X161789428Y-123848380D01*
X161884666Y-123800761D01*
X161932285Y-123753142D01*
X161979904Y-123657904D01*
X161979904Y-123419809D01*
X161932285Y-123324571D01*
X161884666Y-123276952D01*
X161789428Y-123229333D01*
X161598952Y-123229333D01*
X161503714Y-123276952D01*
X161456095Y-123324571D01*
X161408476Y-123419809D01*
%TO.C,R15*%
X160075142Y-125118380D02*
X159741809Y-124642190D01*
X159503714Y-125118380D02*
X159503714Y-124118380D01*
X159884666Y-124118380D01*
X159979904Y-124166000D01*
X160027523Y-124213619D01*
X160075142Y-124308857D01*
X160075142Y-124451714D01*
X160027523Y-124546952D01*
X159979904Y-124594571D01*
X159884666Y-124642190D01*
X159503714Y-124642190D01*
X161027523Y-125118380D02*
X160456095Y-125118380D01*
X160741809Y-125118380D02*
X160741809Y-124118380D01*
X160646571Y-124261238D01*
X160551333Y-124356476D01*
X160456095Y-124404095D01*
X161932285Y-124118380D02*
X161456095Y-124118380D01*
X161408476Y-124594571D01*
X161456095Y-124546952D01*
X161551333Y-124499333D01*
X161789428Y-124499333D01*
X161884666Y-124546952D01*
X161932285Y-124594571D01*
X161979904Y-124689809D01*
X161979904Y-124927904D01*
X161932285Y-125023142D01*
X161884666Y-125070761D01*
X161789428Y-125118380D01*
X161551333Y-125118380D01*
X161456095Y-125070761D01*
X161408476Y-125023142D01*
%TO.C,R14*%
X153090142Y-70508380D02*
X152756809Y-70032190D01*
X152518714Y-70508380D02*
X152518714Y-69508380D01*
X152899666Y-69508380D01*
X152994904Y-69556000D01*
X153042523Y-69603619D01*
X153090142Y-69698857D01*
X153090142Y-69841714D01*
X153042523Y-69936952D01*
X152994904Y-69984571D01*
X152899666Y-70032190D01*
X152518714Y-70032190D01*
X154042523Y-70508380D02*
X153471095Y-70508380D01*
X153756809Y-70508380D02*
X153756809Y-69508380D01*
X153661571Y-69651238D01*
X153566333Y-69746476D01*
X153471095Y-69794095D01*
X154899666Y-69841714D02*
X154899666Y-70508380D01*
X154661571Y-69460761D02*
X154423476Y-70175047D01*
X155042523Y-70175047D01*
%TO.C,C15*%
X149915142Y-70413142D02*
X149867523Y-70460761D01*
X149724666Y-70508380D01*
X149629428Y-70508380D01*
X149486571Y-70460761D01*
X149391333Y-70365523D01*
X149343714Y-70270285D01*
X149296095Y-70079809D01*
X149296095Y-69936952D01*
X149343714Y-69746476D01*
X149391333Y-69651238D01*
X149486571Y-69556000D01*
X149629428Y-69508380D01*
X149724666Y-69508380D01*
X149867523Y-69556000D01*
X149915142Y-69603619D01*
X150867523Y-70508380D02*
X150296095Y-70508380D01*
X150581809Y-70508380D02*
X150581809Y-69508380D01*
X150486571Y-69651238D01*
X150391333Y-69746476D01*
X150296095Y-69794095D01*
X151772285Y-69508380D02*
X151296095Y-69508380D01*
X151248476Y-69984571D01*
X151296095Y-69936952D01*
X151391333Y-69889333D01*
X151629428Y-69889333D01*
X151724666Y-69936952D01*
X151772285Y-69984571D01*
X151819904Y-70079809D01*
X151819904Y-70317904D01*
X151772285Y-70413142D01*
X151724666Y-70460761D01*
X151629428Y-70508380D01*
X151391333Y-70508380D01*
X151296095Y-70460761D01*
X151248476Y-70413142D01*
%TO.C,C10*%
X160075142Y-126674142D02*
X160027523Y-126721761D01*
X159884666Y-126769380D01*
X159789428Y-126769380D01*
X159646571Y-126721761D01*
X159551333Y-126626523D01*
X159503714Y-126531285D01*
X159456095Y-126340809D01*
X159456095Y-126197952D01*
X159503714Y-126007476D01*
X159551333Y-125912238D01*
X159646571Y-125817000D01*
X159789428Y-125769380D01*
X159884666Y-125769380D01*
X160027523Y-125817000D01*
X160075142Y-125864619D01*
X161027523Y-126769380D02*
X160456095Y-126769380D01*
X160741809Y-126769380D02*
X160741809Y-125769380D01*
X160646571Y-125912238D01*
X160551333Y-126007476D01*
X160456095Y-126055095D01*
X161646571Y-125769380D02*
X161741809Y-125769380D01*
X161837047Y-125817000D01*
X161884666Y-125864619D01*
X161932285Y-125959857D01*
X161979904Y-126150333D01*
X161979904Y-126388428D01*
X161932285Y-126578904D01*
X161884666Y-126674142D01*
X161837047Y-126721761D01*
X161741809Y-126769380D01*
X161646571Y-126769380D01*
X161551333Y-126721761D01*
X161503714Y-126674142D01*
X161456095Y-126578904D01*
X161408476Y-126388428D01*
X161408476Y-126150333D01*
X161456095Y-125959857D01*
X161503714Y-125864619D01*
X161551333Y-125817000D01*
X161646571Y-125769380D01*
%TO.C,C8*%
X149899142Y-127626666D02*
X149946761Y-127674285D01*
X149994380Y-127817142D01*
X149994380Y-127912380D01*
X149946761Y-128055238D01*
X149851523Y-128150476D01*
X149756285Y-128198095D01*
X149565809Y-128245714D01*
X149422952Y-128245714D01*
X149232476Y-128198095D01*
X149137238Y-128150476D01*
X149042000Y-128055238D01*
X148994380Y-127912380D01*
X148994380Y-127817142D01*
X149042000Y-127674285D01*
X149089619Y-127626666D01*
X149422952Y-127055238D02*
X149375333Y-127150476D01*
X149327714Y-127198095D01*
X149232476Y-127245714D01*
X149184857Y-127245714D01*
X149089619Y-127198095D01*
X149042000Y-127150476D01*
X148994380Y-127055238D01*
X148994380Y-126864761D01*
X149042000Y-126769523D01*
X149089619Y-126721904D01*
X149184857Y-126674285D01*
X149232476Y-126674285D01*
X149327714Y-126721904D01*
X149375333Y-126769523D01*
X149422952Y-126864761D01*
X149422952Y-127055238D01*
X149470571Y-127150476D01*
X149518190Y-127198095D01*
X149613428Y-127245714D01*
X149803904Y-127245714D01*
X149899142Y-127198095D01*
X149946761Y-127150476D01*
X149994380Y-127055238D01*
X149994380Y-126864761D01*
X149946761Y-126769523D01*
X149899142Y-126721904D01*
X149803904Y-126674285D01*
X149613428Y-126674285D01*
X149518190Y-126721904D01*
X149470571Y-126769523D01*
X149422952Y-126864761D01*
%TO.C,U4*%
X155638095Y-103452380D02*
X155638095Y-104261904D01*
X155685714Y-104357142D01*
X155733333Y-104404761D01*
X155828571Y-104452380D01*
X156019047Y-104452380D01*
X156114285Y-104404761D01*
X156161904Y-104357142D01*
X156209523Y-104261904D01*
X156209523Y-103452380D01*
X157114285Y-103785714D02*
X157114285Y-104452380D01*
X156876190Y-103404761D02*
X156638095Y-104119047D01*
X157257142Y-104119047D01*
%TO.C,U3*%
X155638095Y-94452380D02*
X155638095Y-95261904D01*
X155685714Y-95357142D01*
X155733333Y-95404761D01*
X155828571Y-95452380D01*
X156019047Y-95452380D01*
X156114285Y-95404761D01*
X156161904Y-95357142D01*
X156209523Y-95261904D01*
X156209523Y-94452380D01*
X156590476Y-94452380D02*
X157209523Y-94452380D01*
X156876190Y-94833333D01*
X157019047Y-94833333D01*
X157114285Y-94880952D01*
X157161904Y-94928571D01*
X157209523Y-95023809D01*
X157209523Y-95261904D01*
X157161904Y-95357142D01*
X157114285Y-95404761D01*
X157019047Y-95452380D01*
X156733333Y-95452380D01*
X156638095Y-95404761D01*
X156590476Y-95357142D01*
%TO.C,U7*%
X140238095Y-66452380D02*
X140238095Y-67261904D01*
X140285714Y-67357142D01*
X140333333Y-67404761D01*
X140428571Y-67452380D01*
X140619047Y-67452380D01*
X140714285Y-67404761D01*
X140761904Y-67357142D01*
X140809523Y-67261904D01*
X140809523Y-66452380D01*
X141190476Y-66452380D02*
X141857142Y-66452380D01*
X141428571Y-67452380D01*
%TO.C,U6*%
X148907095Y-119165380D02*
X148907095Y-119974904D01*
X148954714Y-120070142D01*
X149002333Y-120117761D01*
X149097571Y-120165380D01*
X149288047Y-120165380D01*
X149383285Y-120117761D01*
X149430904Y-120070142D01*
X149478523Y-119974904D01*
X149478523Y-119165380D01*
X150383285Y-119165380D02*
X150192809Y-119165380D01*
X150097571Y-119213000D01*
X150049952Y-119260619D01*
X149954714Y-119403476D01*
X149907095Y-119593952D01*
X149907095Y-119974904D01*
X149954714Y-120070142D01*
X150002333Y-120117761D01*
X150097571Y-120165380D01*
X150288047Y-120165380D01*
X150383285Y-120117761D01*
X150430904Y-120070142D01*
X150478523Y-119974904D01*
X150478523Y-119736809D01*
X150430904Y-119641571D01*
X150383285Y-119593952D01*
X150288047Y-119546333D01*
X150097571Y-119546333D01*
X150002333Y-119593952D01*
X149954714Y-119641571D01*
X149907095Y-119736809D01*
%TO.C,U5*%
X139238095Y-92652380D02*
X139238095Y-93461904D01*
X139285714Y-93557142D01*
X139333333Y-93604761D01*
X139428571Y-93652380D01*
X139619047Y-93652380D01*
X139714285Y-93604761D01*
X139761904Y-93557142D01*
X139809523Y-93461904D01*
X139809523Y-92652380D01*
X140761904Y-92652380D02*
X140285714Y-92652380D01*
X140238095Y-93128571D01*
X140285714Y-93080952D01*
X140380952Y-93033333D01*
X140619047Y-93033333D01*
X140714285Y-93080952D01*
X140761904Y-93128571D01*
X140809523Y-93223809D01*
X140809523Y-93461904D01*
X140761904Y-93557142D01*
X140714285Y-93604761D01*
X140619047Y-93652380D01*
X140380952Y-93652380D01*
X140285714Y-93604761D01*
X140238095Y-93557142D01*
%TO.C,U2*%
X131252380Y-123161904D02*
X132061904Y-123161904D01*
X132157142Y-123114285D01*
X132204761Y-123066666D01*
X132252380Y-122971428D01*
X132252380Y-122780952D01*
X132204761Y-122685714D01*
X132157142Y-122638095D01*
X132061904Y-122590476D01*
X131252380Y-122590476D01*
X131347619Y-122161904D02*
X131300000Y-122114285D01*
X131252380Y-122019047D01*
X131252380Y-121780952D01*
X131300000Y-121685714D01*
X131347619Y-121638095D01*
X131442857Y-121590476D01*
X131538095Y-121590476D01*
X131680952Y-121638095D01*
X132252380Y-122209523D01*
X132252380Y-121590476D01*
%TO.C,U1*%
X145808095Y-69642380D02*
X145808095Y-70451904D01*
X145855714Y-70547142D01*
X145903333Y-70594761D01*
X145998571Y-70642380D01*
X146189047Y-70642380D01*
X146284285Y-70594761D01*
X146331904Y-70547142D01*
X146379523Y-70451904D01*
X146379523Y-69642380D01*
X147379523Y-70642380D02*
X146808095Y-70642380D01*
X147093809Y-70642380D02*
X147093809Y-69642380D01*
X146998571Y-69785238D01*
X146903333Y-69880476D01*
X146808095Y-69928095D01*
%TO.C,R13*%
X134246380Y-75143857D02*
X133770190Y-75477190D01*
X134246380Y-75715285D02*
X133246380Y-75715285D01*
X133246380Y-75334333D01*
X133294000Y-75239095D01*
X133341619Y-75191476D01*
X133436857Y-75143857D01*
X133579714Y-75143857D01*
X133674952Y-75191476D01*
X133722571Y-75239095D01*
X133770190Y-75334333D01*
X133770190Y-75715285D01*
X134246380Y-74191476D02*
X134246380Y-74762904D01*
X134246380Y-74477190D02*
X133246380Y-74477190D01*
X133389238Y-74572428D01*
X133484476Y-74667666D01*
X133532095Y-74762904D01*
X133246380Y-73858142D02*
X133246380Y-73239095D01*
X133627333Y-73572428D01*
X133627333Y-73429571D01*
X133674952Y-73334333D01*
X133722571Y-73286714D01*
X133817809Y-73239095D01*
X134055904Y-73239095D01*
X134151142Y-73286714D01*
X134198761Y-73334333D01*
X134246380Y-73429571D01*
X134246380Y-73715285D01*
X134198761Y-73810523D01*
X134151142Y-73858142D01*
%TO.C,R12*%
X134246380Y-72222857D02*
X133770190Y-72556190D01*
X134246380Y-72794285D02*
X133246380Y-72794285D01*
X133246380Y-72413333D01*
X133294000Y-72318095D01*
X133341619Y-72270476D01*
X133436857Y-72222857D01*
X133579714Y-72222857D01*
X133674952Y-72270476D01*
X133722571Y-72318095D01*
X133770190Y-72413333D01*
X133770190Y-72794285D01*
X134246380Y-71270476D02*
X134246380Y-71841904D01*
X134246380Y-71556190D02*
X133246380Y-71556190D01*
X133389238Y-71651428D01*
X133484476Y-71746666D01*
X133532095Y-71841904D01*
X133341619Y-70889523D02*
X133294000Y-70841904D01*
X133246380Y-70746666D01*
X133246380Y-70508571D01*
X133294000Y-70413333D01*
X133341619Y-70365714D01*
X133436857Y-70318095D01*
X133532095Y-70318095D01*
X133674952Y-70365714D01*
X134246380Y-70937142D01*
X134246380Y-70318095D01*
%TO.C,R11*%
X138358142Y-82954380D02*
X138024809Y-82478190D01*
X137786714Y-82954380D02*
X137786714Y-81954380D01*
X138167666Y-81954380D01*
X138262904Y-82002000D01*
X138310523Y-82049619D01*
X138358142Y-82144857D01*
X138358142Y-82287714D01*
X138310523Y-82382952D01*
X138262904Y-82430571D01*
X138167666Y-82478190D01*
X137786714Y-82478190D01*
X139310523Y-82954380D02*
X138739095Y-82954380D01*
X139024809Y-82954380D02*
X139024809Y-81954380D01*
X138929571Y-82097238D01*
X138834333Y-82192476D01*
X138739095Y-82240095D01*
X140262904Y-82954380D02*
X139691476Y-82954380D01*
X139977190Y-82954380D02*
X139977190Y-81954380D01*
X139881952Y-82097238D01*
X139786714Y-82192476D01*
X139691476Y-82240095D01*
%TO.C,R10*%
X138358142Y-85494380D02*
X138024809Y-85018190D01*
X137786714Y-85494380D02*
X137786714Y-84494380D01*
X138167666Y-84494380D01*
X138262904Y-84542000D01*
X138310523Y-84589619D01*
X138358142Y-84684857D01*
X138358142Y-84827714D01*
X138310523Y-84922952D01*
X138262904Y-84970571D01*
X138167666Y-85018190D01*
X137786714Y-85018190D01*
X139310523Y-85494380D02*
X138739095Y-85494380D01*
X139024809Y-85494380D02*
X139024809Y-84494380D01*
X138929571Y-84637238D01*
X138834333Y-84732476D01*
X138739095Y-84780095D01*
X139929571Y-84494380D02*
X140024809Y-84494380D01*
X140120047Y-84542000D01*
X140167666Y-84589619D01*
X140215285Y-84684857D01*
X140262904Y-84875333D01*
X140262904Y-85113428D01*
X140215285Y-85303904D01*
X140167666Y-85399142D01*
X140120047Y-85446761D01*
X140024809Y-85494380D01*
X139929571Y-85494380D01*
X139834333Y-85446761D01*
X139786714Y-85399142D01*
X139739095Y-85303904D01*
X139691476Y-85113428D01*
X139691476Y-84875333D01*
X139739095Y-84684857D01*
X139786714Y-84589619D01*
X139834333Y-84542000D01*
X139929571Y-84494380D01*
%TO.C,R9*%
X149068380Y-124966666D02*
X148592190Y-125300000D01*
X149068380Y-125538095D02*
X148068380Y-125538095D01*
X148068380Y-125157142D01*
X148116000Y-125061904D01*
X148163619Y-125014285D01*
X148258857Y-124966666D01*
X148401714Y-124966666D01*
X148496952Y-125014285D01*
X148544571Y-125061904D01*
X148592190Y-125157142D01*
X148592190Y-125538095D01*
X149068380Y-124490476D02*
X149068380Y-124300000D01*
X149020761Y-124204761D01*
X148973142Y-124157142D01*
X148830285Y-124061904D01*
X148639809Y-124014285D01*
X148258857Y-124014285D01*
X148163619Y-124061904D01*
X148116000Y-124109523D01*
X148068380Y-124204761D01*
X148068380Y-124395238D01*
X148116000Y-124490476D01*
X148163619Y-124538095D01*
X148258857Y-124585714D01*
X148496952Y-124585714D01*
X148592190Y-124538095D01*
X148639809Y-124490476D01*
X148687428Y-124395238D01*
X148687428Y-124204761D01*
X148639809Y-124109523D01*
X148592190Y-124061904D01*
X148496952Y-124014285D01*
%TO.C,R8*%
X149068380Y-122566666D02*
X148592190Y-122900000D01*
X149068380Y-123138095D02*
X148068380Y-123138095D01*
X148068380Y-122757142D01*
X148116000Y-122661904D01*
X148163619Y-122614285D01*
X148258857Y-122566666D01*
X148401714Y-122566666D01*
X148496952Y-122614285D01*
X148544571Y-122661904D01*
X148592190Y-122757142D01*
X148592190Y-123138095D01*
X148496952Y-121995238D02*
X148449333Y-122090476D01*
X148401714Y-122138095D01*
X148306476Y-122185714D01*
X148258857Y-122185714D01*
X148163619Y-122138095D01*
X148116000Y-122090476D01*
X148068380Y-121995238D01*
X148068380Y-121804761D01*
X148116000Y-121709523D01*
X148163619Y-121661904D01*
X148258857Y-121614285D01*
X148306476Y-121614285D01*
X148401714Y-121661904D01*
X148449333Y-121709523D01*
X148496952Y-121804761D01*
X148496952Y-121995238D01*
X148544571Y-122090476D01*
X148592190Y-122138095D01*
X148687428Y-122185714D01*
X148877904Y-122185714D01*
X148973142Y-122138095D01*
X149020761Y-122090476D01*
X149068380Y-121995238D01*
X149068380Y-121804761D01*
X149020761Y-121709523D01*
X148973142Y-121661904D01*
X148877904Y-121614285D01*
X148687428Y-121614285D01*
X148592190Y-121661904D01*
X148544571Y-121709523D01*
X148496952Y-121804761D01*
%TO.C,R7*%
X151252380Y-127566666D02*
X150776190Y-127900000D01*
X151252380Y-128138095D02*
X150252380Y-128138095D01*
X150252380Y-127757142D01*
X150300000Y-127661904D01*
X150347619Y-127614285D01*
X150442857Y-127566666D01*
X150585714Y-127566666D01*
X150680952Y-127614285D01*
X150728571Y-127661904D01*
X150776190Y-127757142D01*
X150776190Y-128138095D01*
X150252380Y-127233333D02*
X150252380Y-126566666D01*
X151252380Y-126995238D01*
%TO.C,R6*%
X147652380Y-127566666D02*
X147176190Y-127900000D01*
X147652380Y-128138095D02*
X146652380Y-128138095D01*
X146652380Y-127757142D01*
X146700000Y-127661904D01*
X146747619Y-127614285D01*
X146842857Y-127566666D01*
X146985714Y-127566666D01*
X147080952Y-127614285D01*
X147128571Y-127661904D01*
X147176190Y-127757142D01*
X147176190Y-128138095D01*
X146652380Y-126709523D02*
X146652380Y-126900000D01*
X146700000Y-126995238D01*
X146747619Y-127042857D01*
X146890476Y-127138095D01*
X147080952Y-127185714D01*
X147461904Y-127185714D01*
X147557142Y-127138095D01*
X147604761Y-127090476D01*
X147652380Y-126995238D01*
X147652380Y-126804761D01*
X147604761Y-126709523D01*
X147557142Y-126661904D01*
X147461904Y-126614285D01*
X147223809Y-126614285D01*
X147128571Y-126661904D01*
X147080952Y-126709523D01*
X147033333Y-126804761D01*
X147033333Y-126995238D01*
X147080952Y-127090476D01*
X147128571Y-127138095D01*
X147223809Y-127185714D01*
%TO.C,R5*%
X148852380Y-127566666D02*
X148376190Y-127900000D01*
X148852380Y-128138095D02*
X147852380Y-128138095D01*
X147852380Y-127757142D01*
X147900000Y-127661904D01*
X147947619Y-127614285D01*
X148042857Y-127566666D01*
X148185714Y-127566666D01*
X148280952Y-127614285D01*
X148328571Y-127661904D01*
X148376190Y-127757142D01*
X148376190Y-128138095D01*
X147852380Y-126661904D02*
X147852380Y-127138095D01*
X148328571Y-127185714D01*
X148280952Y-127138095D01*
X148233333Y-127042857D01*
X148233333Y-126804761D01*
X148280952Y-126709523D01*
X148328571Y-126661904D01*
X148423809Y-126614285D01*
X148661904Y-126614285D01*
X148757142Y-126661904D01*
X148804761Y-126709523D01*
X148852380Y-126804761D01*
X148852380Y-127042857D01*
X148804761Y-127138095D01*
X148757142Y-127185714D01*
%TO.C,R4*%
X133230380Y-117974666D02*
X132754190Y-118308000D01*
X133230380Y-118546095D02*
X132230380Y-118546095D01*
X132230380Y-118165142D01*
X132278000Y-118069904D01*
X132325619Y-118022285D01*
X132420857Y-117974666D01*
X132563714Y-117974666D01*
X132658952Y-118022285D01*
X132706571Y-118069904D01*
X132754190Y-118165142D01*
X132754190Y-118546095D01*
X132563714Y-117117523D02*
X133230380Y-117117523D01*
X132182761Y-117355619D02*
X132897047Y-117593714D01*
X132897047Y-116974666D01*
%TO.C,R3*%
X135262380Y-117974666D02*
X134786190Y-118308000D01*
X135262380Y-118546095D02*
X134262380Y-118546095D01*
X134262380Y-118165142D01*
X134310000Y-118069904D01*
X134357619Y-118022285D01*
X134452857Y-117974666D01*
X134595714Y-117974666D01*
X134690952Y-118022285D01*
X134738571Y-118069904D01*
X134786190Y-118165142D01*
X134786190Y-118546095D01*
X134262380Y-117641333D02*
X134262380Y-117022285D01*
X134643333Y-117355619D01*
X134643333Y-117212761D01*
X134690952Y-117117523D01*
X134738571Y-117069904D01*
X134833809Y-117022285D01*
X135071904Y-117022285D01*
X135167142Y-117069904D01*
X135214761Y-117117523D01*
X135262380Y-117212761D01*
X135262380Y-117498476D01*
X135214761Y-117593714D01*
X135167142Y-117641333D01*
%TO.C,R2*%
X133848333Y-89754380D02*
X133515000Y-89278190D01*
X133276904Y-89754380D02*
X133276904Y-88754380D01*
X133657857Y-88754380D01*
X133753095Y-88802000D01*
X133800714Y-88849619D01*
X133848333Y-88944857D01*
X133848333Y-89087714D01*
X133800714Y-89182952D01*
X133753095Y-89230571D01*
X133657857Y-89278190D01*
X133276904Y-89278190D01*
X134229285Y-88849619D02*
X134276904Y-88802000D01*
X134372142Y-88754380D01*
X134610238Y-88754380D01*
X134705476Y-88802000D01*
X134753095Y-88849619D01*
X134800714Y-88944857D01*
X134800714Y-89040095D01*
X134753095Y-89182952D01*
X134181666Y-89754380D01*
X134800714Y-89754380D01*
%TO.C,R1*%
X160252380Y-66766666D02*
X159776190Y-67100000D01*
X160252380Y-67338095D02*
X159252380Y-67338095D01*
X159252380Y-66957142D01*
X159300000Y-66861904D01*
X159347619Y-66814285D01*
X159442857Y-66766666D01*
X159585714Y-66766666D01*
X159680952Y-66814285D01*
X159728571Y-66861904D01*
X159776190Y-66957142D01*
X159776190Y-67338095D01*
X160252380Y-65814285D02*
X160252380Y-66385714D01*
X160252380Y-66100000D02*
X159252380Y-66100000D01*
X159395238Y-66195238D01*
X159490476Y-66290476D01*
X159538095Y-66385714D01*
%TO.C,Q2*%
X142334761Y-123689619D02*
X142239523Y-123642000D01*
X142144285Y-123546761D01*
X142001428Y-123403904D01*
X141906190Y-123356285D01*
X141810952Y-123356285D01*
X141858571Y-123594380D02*
X141763333Y-123546761D01*
X141668095Y-123451523D01*
X141620476Y-123261047D01*
X141620476Y-122927714D01*
X141668095Y-122737238D01*
X141763333Y-122642000D01*
X141858571Y-122594380D01*
X142049047Y-122594380D01*
X142144285Y-122642000D01*
X142239523Y-122737238D01*
X142287142Y-122927714D01*
X142287142Y-123261047D01*
X142239523Y-123451523D01*
X142144285Y-123546761D01*
X142049047Y-123594380D01*
X141858571Y-123594380D01*
X142668095Y-122689619D02*
X142715714Y-122642000D01*
X142810952Y-122594380D01*
X143049047Y-122594380D01*
X143144285Y-122642000D01*
X143191904Y-122689619D01*
X143239523Y-122784857D01*
X143239523Y-122880095D01*
X143191904Y-123022952D01*
X142620476Y-123594380D01*
X143239523Y-123594380D01*
%TO.C,Q1*%
X142334761Y-120006619D02*
X142239523Y-119959000D01*
X142144285Y-119863761D01*
X142001428Y-119720904D01*
X141906190Y-119673285D01*
X141810952Y-119673285D01*
X141858571Y-119911380D02*
X141763333Y-119863761D01*
X141668095Y-119768523D01*
X141620476Y-119578047D01*
X141620476Y-119244714D01*
X141668095Y-119054238D01*
X141763333Y-118959000D01*
X141858571Y-118911380D01*
X142049047Y-118911380D01*
X142144285Y-118959000D01*
X142239523Y-119054238D01*
X142287142Y-119244714D01*
X142287142Y-119578047D01*
X142239523Y-119768523D01*
X142144285Y-119863761D01*
X142049047Y-119911380D01*
X141858571Y-119911380D01*
X143239523Y-119911380D02*
X142668095Y-119911380D01*
X142953809Y-119911380D02*
X142953809Y-118911380D01*
X142858571Y-119054238D01*
X142763333Y-119149476D01*
X142668095Y-119197095D01*
%TO.C,J5*%
X134095666Y-82335380D02*
X134095666Y-83049666D01*
X134048047Y-83192523D01*
X133952809Y-83287761D01*
X133809952Y-83335380D01*
X133714714Y-83335380D01*
X135048047Y-82335380D02*
X134571857Y-82335380D01*
X134524238Y-82811571D01*
X134571857Y-82763952D01*
X134667095Y-82716333D01*
X134905190Y-82716333D01*
X135000428Y-82763952D01*
X135048047Y-82811571D01*
X135095666Y-82906809D01*
X135095666Y-83144904D01*
X135048047Y-83240142D01*
X135000428Y-83287761D01*
X134905190Y-83335380D01*
X134667095Y-83335380D01*
X134571857Y-83287761D01*
X134524238Y-83240142D01*
%TO.C,J4*%
X162666666Y-117452380D02*
X162666666Y-118166666D01*
X162619047Y-118309523D01*
X162523809Y-118404761D01*
X162380952Y-118452380D01*
X162285714Y-118452380D01*
X163571428Y-117785714D02*
X163571428Y-118452380D01*
X163333333Y-117404761D02*
X163095238Y-118119047D01*
X163714285Y-118119047D01*
%TO.C,J3*%
X135266666Y-98522380D02*
X135266666Y-99236666D01*
X135219047Y-99379523D01*
X135123809Y-99474761D01*
X134980952Y-99522380D01*
X134885714Y-99522380D01*
X135647619Y-98522380D02*
X136266666Y-98522380D01*
X135933333Y-98903333D01*
X136076190Y-98903333D01*
X136171428Y-98950952D01*
X136219047Y-98998571D01*
X136266666Y-99093809D01*
X136266666Y-99331904D01*
X136219047Y-99427142D01*
X136171428Y-99474761D01*
X136076190Y-99522380D01*
X135790476Y-99522380D01*
X135695238Y-99474761D01*
X135647619Y-99427142D01*
%TO.C,D4*%
X140861904Y-105252380D02*
X140861904Y-104252380D01*
X141100000Y-104252380D01*
X141242857Y-104300000D01*
X141338095Y-104395238D01*
X141385714Y-104490476D01*
X141433333Y-104680952D01*
X141433333Y-104823809D01*
X141385714Y-105014285D01*
X141338095Y-105109523D01*
X141242857Y-105204761D01*
X141100000Y-105252380D01*
X140861904Y-105252380D01*
X142290476Y-104585714D02*
X142290476Y-105252380D01*
X142052380Y-104204761D02*
X141814285Y-104919047D01*
X142433333Y-104919047D01*
%TO.C,D3*%
X146861904Y-107052380D02*
X146861904Y-106052380D01*
X147100000Y-106052380D01*
X147242857Y-106100000D01*
X147338095Y-106195238D01*
X147385714Y-106290476D01*
X147433333Y-106480952D01*
X147433333Y-106623809D01*
X147385714Y-106814285D01*
X147338095Y-106909523D01*
X147242857Y-107004761D01*
X147100000Y-107052380D01*
X146861904Y-107052380D01*
X147766666Y-106052380D02*
X148385714Y-106052380D01*
X148052380Y-106433333D01*
X148195238Y-106433333D01*
X148290476Y-106480952D01*
X148338095Y-106528571D01*
X148385714Y-106623809D01*
X148385714Y-106861904D01*
X148338095Y-106957142D01*
X148290476Y-107004761D01*
X148195238Y-107052380D01*
X147909523Y-107052380D01*
X147814285Y-107004761D01*
X147766666Y-106957142D01*
%TO.C,D2*%
X140861904Y-107252380D02*
X140861904Y-106252380D01*
X141100000Y-106252380D01*
X141242857Y-106300000D01*
X141338095Y-106395238D01*
X141385714Y-106490476D01*
X141433333Y-106680952D01*
X141433333Y-106823809D01*
X141385714Y-107014285D01*
X141338095Y-107109523D01*
X141242857Y-107204761D01*
X141100000Y-107252380D01*
X140861904Y-107252380D01*
X141814285Y-106347619D02*
X141861904Y-106300000D01*
X141957142Y-106252380D01*
X142195238Y-106252380D01*
X142290476Y-106300000D01*
X142338095Y-106347619D01*
X142385714Y-106442857D01*
X142385714Y-106538095D01*
X142338095Y-106680952D01*
X141766666Y-107252380D01*
X142385714Y-107252380D01*
%TO.C,D1*%
X133276904Y-86354380D02*
X133276904Y-85354380D01*
X133515000Y-85354380D01*
X133657857Y-85402000D01*
X133753095Y-85497238D01*
X133800714Y-85592476D01*
X133848333Y-85782952D01*
X133848333Y-85925809D01*
X133800714Y-86116285D01*
X133753095Y-86211523D01*
X133657857Y-86306761D01*
X133515000Y-86354380D01*
X133276904Y-86354380D01*
X134800714Y-86354380D02*
X134229285Y-86354380D01*
X134515000Y-86354380D02*
X134515000Y-85354380D01*
X134419761Y-85497238D01*
X134324523Y-85592476D01*
X134229285Y-85640095D01*
%TO.C,C14*%
X134151142Y-69301857D02*
X134198761Y-69349476D01*
X134246380Y-69492333D01*
X134246380Y-69587571D01*
X134198761Y-69730428D01*
X134103523Y-69825666D01*
X134008285Y-69873285D01*
X133817809Y-69920904D01*
X133674952Y-69920904D01*
X133484476Y-69873285D01*
X133389238Y-69825666D01*
X133294000Y-69730428D01*
X133246380Y-69587571D01*
X133246380Y-69492333D01*
X133294000Y-69349476D01*
X133341619Y-69301857D01*
X134246380Y-68349476D02*
X134246380Y-68920904D01*
X134246380Y-68635190D02*
X133246380Y-68635190D01*
X133389238Y-68730428D01*
X133484476Y-68825666D01*
X133532095Y-68920904D01*
X133579714Y-67492333D02*
X134246380Y-67492333D01*
X133198761Y-67730428D02*
X133913047Y-67968523D01*
X133913047Y-67349476D01*
%TO.C,C13*%
X132881142Y-72222857D02*
X132928761Y-72270476D01*
X132976380Y-72413333D01*
X132976380Y-72508571D01*
X132928761Y-72651428D01*
X132833523Y-72746666D01*
X132738285Y-72794285D01*
X132547809Y-72841904D01*
X132404952Y-72841904D01*
X132214476Y-72794285D01*
X132119238Y-72746666D01*
X132024000Y-72651428D01*
X131976380Y-72508571D01*
X131976380Y-72413333D01*
X132024000Y-72270476D01*
X132071619Y-72222857D01*
X132976380Y-71270476D02*
X132976380Y-71841904D01*
X132976380Y-71556190D02*
X131976380Y-71556190D01*
X132119238Y-71651428D01*
X132214476Y-71746666D01*
X132262095Y-71841904D01*
X131976380Y-70937142D02*
X131976380Y-70318095D01*
X132357333Y-70651428D01*
X132357333Y-70508571D01*
X132404952Y-70413333D01*
X132452571Y-70365714D01*
X132547809Y-70318095D01*
X132785904Y-70318095D01*
X132881142Y-70365714D01*
X132928761Y-70413333D01*
X132976380Y-70508571D01*
X132976380Y-70794285D01*
X132928761Y-70889523D01*
X132881142Y-70937142D01*
%TO.C,C12*%
X138358142Y-84129142D02*
X138310523Y-84176761D01*
X138167666Y-84224380D01*
X138072428Y-84224380D01*
X137929571Y-84176761D01*
X137834333Y-84081523D01*
X137786714Y-83986285D01*
X137739095Y-83795809D01*
X137739095Y-83652952D01*
X137786714Y-83462476D01*
X137834333Y-83367238D01*
X137929571Y-83272000D01*
X138072428Y-83224380D01*
X138167666Y-83224380D01*
X138310523Y-83272000D01*
X138358142Y-83319619D01*
X139310523Y-84224380D02*
X138739095Y-84224380D01*
X139024809Y-84224380D02*
X139024809Y-83224380D01*
X138929571Y-83367238D01*
X138834333Y-83462476D01*
X138739095Y-83510095D01*
X139691476Y-83319619D02*
X139739095Y-83272000D01*
X139834333Y-83224380D01*
X140072428Y-83224380D01*
X140167666Y-83272000D01*
X140215285Y-83319619D01*
X140262904Y-83414857D01*
X140262904Y-83510095D01*
X140215285Y-83652952D01*
X139643857Y-84224380D01*
X140262904Y-84224380D01*
%TO.C,C11*%
X138358142Y-81589142D02*
X138310523Y-81636761D01*
X138167666Y-81684380D01*
X138072428Y-81684380D01*
X137929571Y-81636761D01*
X137834333Y-81541523D01*
X137786714Y-81446285D01*
X137739095Y-81255809D01*
X137739095Y-81112952D01*
X137786714Y-80922476D01*
X137834333Y-80827238D01*
X137929571Y-80732000D01*
X138072428Y-80684380D01*
X138167666Y-80684380D01*
X138310523Y-80732000D01*
X138358142Y-80779619D01*
X139310523Y-81684380D02*
X138739095Y-81684380D01*
X139024809Y-81684380D02*
X139024809Y-80684380D01*
X138929571Y-80827238D01*
X138834333Y-80922476D01*
X138739095Y-80970095D01*
X140262904Y-81684380D02*
X139691476Y-81684380D01*
X139977190Y-81684380D02*
X139977190Y-80684380D01*
X139881952Y-80827238D01*
X139786714Y-80922476D01*
X139691476Y-80970095D01*
%TO.C,C9*%
X139233333Y-102557142D02*
X139185714Y-102604761D01*
X139042857Y-102652380D01*
X138947619Y-102652380D01*
X138804761Y-102604761D01*
X138709523Y-102509523D01*
X138661904Y-102414285D01*
X138614285Y-102223809D01*
X138614285Y-102080952D01*
X138661904Y-101890476D01*
X138709523Y-101795238D01*
X138804761Y-101700000D01*
X138947619Y-101652380D01*
X139042857Y-101652380D01*
X139185714Y-101700000D01*
X139233333Y-101747619D01*
X139709523Y-102652380D02*
X139900000Y-102652380D01*
X139995238Y-102604761D01*
X140042857Y-102557142D01*
X140138095Y-102414285D01*
X140185714Y-102223809D01*
X140185714Y-101842857D01*
X140138095Y-101747619D01*
X140090476Y-101700000D01*
X139995238Y-101652380D01*
X139804761Y-101652380D01*
X139709523Y-101700000D01*
X139661904Y-101747619D01*
X139614285Y-101842857D01*
X139614285Y-102080952D01*
X139661904Y-102176190D01*
X139709523Y-102223809D01*
X139804761Y-102271428D01*
X139995238Y-102271428D01*
X140090476Y-102223809D01*
X140138095Y-102176190D01*
X140185714Y-102080952D01*
%TO.C,C7*%
X148433333Y-102557142D02*
X148385714Y-102604761D01*
X148242857Y-102652380D01*
X148147619Y-102652380D01*
X148004761Y-102604761D01*
X147909523Y-102509523D01*
X147861904Y-102414285D01*
X147814285Y-102223809D01*
X147814285Y-102080952D01*
X147861904Y-101890476D01*
X147909523Y-101795238D01*
X148004761Y-101700000D01*
X148147619Y-101652380D01*
X148242857Y-101652380D01*
X148385714Y-101700000D01*
X148433333Y-101747619D01*
X148766666Y-101652380D02*
X149433333Y-101652380D01*
X149004761Y-102652380D01*
%TO.C,C6*%
X162333333Y-95657142D02*
X162285714Y-95704761D01*
X162142857Y-95752380D01*
X162047619Y-95752380D01*
X161904761Y-95704761D01*
X161809523Y-95609523D01*
X161761904Y-95514285D01*
X161714285Y-95323809D01*
X161714285Y-95180952D01*
X161761904Y-94990476D01*
X161809523Y-94895238D01*
X161904761Y-94800000D01*
X162047619Y-94752380D01*
X162142857Y-94752380D01*
X162285714Y-94800000D01*
X162333333Y-94847619D01*
X163190476Y-94752380D02*
X163000000Y-94752380D01*
X162904761Y-94800000D01*
X162857142Y-94847619D01*
X162761904Y-94990476D01*
X162714285Y-95180952D01*
X162714285Y-95561904D01*
X162761904Y-95657142D01*
X162809523Y-95704761D01*
X162904761Y-95752380D01*
X163095238Y-95752380D01*
X163190476Y-95704761D01*
X163238095Y-95657142D01*
X163285714Y-95561904D01*
X163285714Y-95323809D01*
X163238095Y-95228571D01*
X163190476Y-95180952D01*
X163095238Y-95133333D01*
X162904761Y-95133333D01*
X162809523Y-95180952D01*
X162761904Y-95228571D01*
X162714285Y-95323809D01*
%TO.C,C5*%
X159533333Y-103457142D02*
X159485714Y-103504761D01*
X159342857Y-103552380D01*
X159247619Y-103552380D01*
X159104761Y-103504761D01*
X159009523Y-103409523D01*
X158961904Y-103314285D01*
X158914285Y-103123809D01*
X158914285Y-102980952D01*
X158961904Y-102790476D01*
X159009523Y-102695238D01*
X159104761Y-102600000D01*
X159247619Y-102552380D01*
X159342857Y-102552380D01*
X159485714Y-102600000D01*
X159533333Y-102647619D01*
X160438095Y-102552380D02*
X159961904Y-102552380D01*
X159914285Y-103028571D01*
X159961904Y-102980952D01*
X160057142Y-102933333D01*
X160295238Y-102933333D01*
X160390476Y-102980952D01*
X160438095Y-103028571D01*
X160485714Y-103123809D01*
X160485714Y-103361904D01*
X160438095Y-103457142D01*
X160390476Y-103504761D01*
X160295238Y-103552380D01*
X160057142Y-103552380D01*
X159961904Y-103504761D01*
X159914285Y-103457142D01*
%TO.C,C4*%
X135633333Y-126157142D02*
X135585714Y-126204761D01*
X135442857Y-126252380D01*
X135347619Y-126252380D01*
X135204761Y-126204761D01*
X135109523Y-126109523D01*
X135061904Y-126014285D01*
X135014285Y-125823809D01*
X135014285Y-125680952D01*
X135061904Y-125490476D01*
X135109523Y-125395238D01*
X135204761Y-125300000D01*
X135347619Y-125252380D01*
X135442857Y-125252380D01*
X135585714Y-125300000D01*
X135633333Y-125347619D01*
X136490476Y-125585714D02*
X136490476Y-126252380D01*
X136252380Y-125204761D02*
X136014285Y-125919047D01*
X136633333Y-125919047D01*
%TO.C,C3*%
X164833333Y-67757142D02*
X164785714Y-67804761D01*
X164642857Y-67852380D01*
X164547619Y-67852380D01*
X164404761Y-67804761D01*
X164309523Y-67709523D01*
X164261904Y-67614285D01*
X164214285Y-67423809D01*
X164214285Y-67280952D01*
X164261904Y-67090476D01*
X164309523Y-66995238D01*
X164404761Y-66900000D01*
X164547619Y-66852380D01*
X164642857Y-66852380D01*
X164785714Y-66900000D01*
X164833333Y-66947619D01*
X165166666Y-66852380D02*
X165785714Y-66852380D01*
X165452380Y-67233333D01*
X165595238Y-67233333D01*
X165690476Y-67280952D01*
X165738095Y-67328571D01*
X165785714Y-67423809D01*
X165785714Y-67661904D01*
X165738095Y-67757142D01*
X165690476Y-67804761D01*
X165595238Y-67852380D01*
X165309523Y-67852380D01*
X165214285Y-67804761D01*
X165166666Y-67757142D01*
%TO.C,C2*%
X164833333Y-69757142D02*
X164785714Y-69804761D01*
X164642857Y-69852380D01*
X164547619Y-69852380D01*
X164404761Y-69804761D01*
X164309523Y-69709523D01*
X164261904Y-69614285D01*
X164214285Y-69423809D01*
X164214285Y-69280952D01*
X164261904Y-69090476D01*
X164309523Y-68995238D01*
X164404761Y-68900000D01*
X164547619Y-68852380D01*
X164642857Y-68852380D01*
X164785714Y-68900000D01*
X164833333Y-68947619D01*
X165214285Y-68947619D02*
X165261904Y-68900000D01*
X165357142Y-68852380D01*
X165595238Y-68852380D01*
X165690476Y-68900000D01*
X165738095Y-68947619D01*
X165785714Y-69042857D01*
X165785714Y-69138095D01*
X165738095Y-69280952D01*
X165166666Y-69852380D01*
X165785714Y-69852380D01*
%TO.C,C1*%
X158757142Y-66766666D02*
X158804761Y-66814285D01*
X158852380Y-66957142D01*
X158852380Y-67052380D01*
X158804761Y-67195238D01*
X158709523Y-67290476D01*
X158614285Y-67338095D01*
X158423809Y-67385714D01*
X158280952Y-67385714D01*
X158090476Y-67338095D01*
X157995238Y-67290476D01*
X157900000Y-67195238D01*
X157852380Y-67052380D01*
X157852380Y-66957142D01*
X157900000Y-66814285D01*
X157947619Y-66766666D01*
X158852380Y-65814285D02*
X158852380Y-66385714D01*
X158852380Y-66100000D02*
X157852380Y-66100000D01*
X157995238Y-66195238D01*
X158090476Y-66290476D01*
X158138095Y-66385714D01*
%TD*%
M02*
