%TF.GenerationSoftware,KiCad,Pcbnew,(5.1.6)-1*%
%TF.CreationDate,2020-11-13T23:46:34+08:00*%
%TF.ProjectId,matrix-clock,6d617472-6978-42d6-936c-6f636b2e6b69,rev?*%
%TF.SameCoordinates,Original*%
%TF.FileFunction,Soldermask,Top*%
%TF.FilePolarity,Negative*%
%FSLAX46Y46*%
G04 Gerber Fmt 4.6, Leading zero omitted, Abs format (unit mm)*
G04 Created by KiCad (PCBNEW (5.1.6)-1) date 2020-11-13 23:46:34*
%MOMM*%
%LPD*%
G01*
G04 APERTURE LIST*
%ADD10C,0.250000*%
%ADD11R,3.450000X3.450000*%
%ADD12R,1.600000X2.100000*%
%ADD13R,3.900000X2.100000*%
%ADD14R,1.000000X2.100000*%
%ADD15R,2.100000X1.000000*%
%ADD16R,5.100000X5.100000*%
%ADD17R,1.000000X0.900000*%
%ADD18O,1.800000X1.800000*%
%ADD19R,1.800000X1.800000*%
%ADD20R,1.550000X0.700000*%
%ADD21R,1.550000X0.400000*%
%ADD22O,2.200000X1.100000*%
%ADD23C,0.750000*%
%ADD24O,1.700000X1.100000*%
%ADD25R,0.700000X0.550000*%
G04 APERTURE END LIST*
D10*
X134490476Y-110314285D02*
X134823809Y-110314285D01*
X134966666Y-110942857D02*
X134490476Y-110942857D01*
X134490476Y-109742857D01*
X134966666Y-109742857D01*
X135347619Y-110885714D02*
X135490476Y-110942857D01*
X135728571Y-110942857D01*
X135823809Y-110885714D01*
X135871428Y-110828571D01*
X135919047Y-110714285D01*
X135919047Y-110600000D01*
X135871428Y-110485714D01*
X135823809Y-110428571D01*
X135728571Y-110371428D01*
X135538095Y-110314285D01*
X135442857Y-110257142D01*
X135395238Y-110200000D01*
X135347619Y-110085714D01*
X135347619Y-109971428D01*
X135395238Y-109857142D01*
X135442857Y-109800000D01*
X135538095Y-109742857D01*
X135776190Y-109742857D01*
X135919047Y-109800000D01*
X136347619Y-110942857D02*
X136347619Y-109742857D01*
X136728571Y-109742857D01*
X136823809Y-109800000D01*
X136871428Y-109857142D01*
X136919047Y-109971428D01*
X136919047Y-110142857D01*
X136871428Y-110257142D01*
X136823809Y-110314285D01*
X136728571Y-110371428D01*
X136347619Y-110371428D01*
X137252380Y-109742857D02*
X137871428Y-109742857D01*
X137538095Y-110200000D01*
X137680952Y-110200000D01*
X137776190Y-110257142D01*
X137823809Y-110314285D01*
X137871428Y-110428571D01*
X137871428Y-110714285D01*
X137823809Y-110828571D01*
X137776190Y-110885714D01*
X137680952Y-110942857D01*
X137395238Y-110942857D01*
X137300000Y-110885714D01*
X137252380Y-110828571D01*
X138252380Y-109857142D02*
X138300000Y-109800000D01*
X138395238Y-109742857D01*
X138633333Y-109742857D01*
X138728571Y-109800000D01*
X138776190Y-109857142D01*
X138823809Y-109971428D01*
X138823809Y-110085714D01*
X138776190Y-110257142D01*
X138204761Y-110942857D01*
X138823809Y-110942857D01*
X139252380Y-110485714D02*
X140014285Y-110485714D01*
X140966666Y-110942857D02*
X140490476Y-110942857D01*
X140490476Y-109742857D01*
X141680952Y-110885714D02*
X141585714Y-110942857D01*
X141395238Y-110942857D01*
X141300000Y-110885714D01*
X141252380Y-110771428D01*
X141252380Y-110314285D01*
X141300000Y-110200000D01*
X141395238Y-110142857D01*
X141585714Y-110142857D01*
X141680952Y-110200000D01*
X141728571Y-110314285D01*
X141728571Y-110428571D01*
X141252380Y-110542857D01*
X142585714Y-110942857D02*
X142585714Y-109742857D01*
X142585714Y-110885714D02*
X142490476Y-110942857D01*
X142300000Y-110942857D01*
X142204761Y-110885714D01*
X142157142Y-110828571D01*
X142109523Y-110714285D01*
X142109523Y-110371428D01*
X142157142Y-110257142D01*
X142204761Y-110200000D01*
X142300000Y-110142857D01*
X142490476Y-110142857D01*
X142585714Y-110200000D01*
X143061904Y-110942857D02*
X143061904Y-109742857D01*
X143395238Y-110600000D01*
X143728571Y-109742857D01*
X143728571Y-110942857D01*
X144633333Y-110942857D02*
X144633333Y-110314285D01*
X144585714Y-110200000D01*
X144490476Y-110142857D01*
X144300000Y-110142857D01*
X144204761Y-110200000D01*
X144633333Y-110885714D02*
X144538095Y-110942857D01*
X144300000Y-110942857D01*
X144204761Y-110885714D01*
X144157142Y-110771428D01*
X144157142Y-110657142D01*
X144204761Y-110542857D01*
X144300000Y-110485714D01*
X144538095Y-110485714D01*
X144633333Y-110428571D01*
X144966666Y-110142857D02*
X145347619Y-110142857D01*
X145109523Y-109742857D02*
X145109523Y-110771428D01*
X145157142Y-110885714D01*
X145252380Y-110942857D01*
X145347619Y-110942857D01*
X145680952Y-110942857D02*
X145680952Y-110142857D01*
X145680952Y-110371428D02*
X145728571Y-110257142D01*
X145776190Y-110200000D01*
X145871428Y-110142857D01*
X145966666Y-110142857D01*
X146300000Y-110942857D02*
X146300000Y-110142857D01*
X146300000Y-109742857D02*
X146252380Y-109800000D01*
X146300000Y-109857142D01*
X146347619Y-109800000D01*
X146300000Y-109742857D01*
X146300000Y-109857142D01*
X146680952Y-110942857D02*
X147204761Y-110142857D01*
X146680952Y-110142857D02*
X147204761Y-110942857D01*
%TO.C,U3*%
G36*
G01*
X158475000Y-96500000D02*
X158475000Y-96250000D01*
G75*
G02*
X158600000Y-96125000I125000J0D01*
G01*
X159925000Y-96125000D01*
G75*
G02*
X160050000Y-96250000I0J-125000D01*
G01*
X160050000Y-96500000D01*
G75*
G02*
X159925000Y-96625000I-125000J0D01*
G01*
X158600000Y-96625000D01*
G75*
G02*
X158475000Y-96500000I0J125000D01*
G01*
G37*
G36*
G01*
X158475000Y-97150000D02*
X158475000Y-96900000D01*
G75*
G02*
X158600000Y-96775000I125000J0D01*
G01*
X159925000Y-96775000D01*
G75*
G02*
X160050000Y-96900000I0J-125000D01*
G01*
X160050000Y-97150000D01*
G75*
G02*
X159925000Y-97275000I-125000J0D01*
G01*
X158600000Y-97275000D01*
G75*
G02*
X158475000Y-97150000I0J125000D01*
G01*
G37*
G36*
G01*
X158475000Y-97800000D02*
X158475000Y-97550000D01*
G75*
G02*
X158600000Y-97425000I125000J0D01*
G01*
X159925000Y-97425000D01*
G75*
G02*
X160050000Y-97550000I0J-125000D01*
G01*
X160050000Y-97800000D01*
G75*
G02*
X159925000Y-97925000I-125000J0D01*
G01*
X158600000Y-97925000D01*
G75*
G02*
X158475000Y-97800000I0J125000D01*
G01*
G37*
G36*
G01*
X158475000Y-98450000D02*
X158475000Y-98200000D01*
G75*
G02*
X158600000Y-98075000I125000J0D01*
G01*
X159925000Y-98075000D01*
G75*
G02*
X160050000Y-98200000I0J-125000D01*
G01*
X160050000Y-98450000D01*
G75*
G02*
X159925000Y-98575000I-125000J0D01*
G01*
X158600000Y-98575000D01*
G75*
G02*
X158475000Y-98450000I0J125000D01*
G01*
G37*
G36*
G01*
X158475000Y-99100000D02*
X158475000Y-98850000D01*
G75*
G02*
X158600000Y-98725000I125000J0D01*
G01*
X159925000Y-98725000D01*
G75*
G02*
X160050000Y-98850000I0J-125000D01*
G01*
X160050000Y-99100000D01*
G75*
G02*
X159925000Y-99225000I-125000J0D01*
G01*
X158600000Y-99225000D01*
G75*
G02*
X158475000Y-99100000I0J125000D01*
G01*
G37*
G36*
G01*
X158475000Y-99750000D02*
X158475000Y-99500000D01*
G75*
G02*
X158600000Y-99375000I125000J0D01*
G01*
X159925000Y-99375000D01*
G75*
G02*
X160050000Y-99500000I0J-125000D01*
G01*
X160050000Y-99750000D01*
G75*
G02*
X159925000Y-99875000I-125000J0D01*
G01*
X158600000Y-99875000D01*
G75*
G02*
X158475000Y-99750000I0J125000D01*
G01*
G37*
G36*
G01*
X158475000Y-100400000D02*
X158475000Y-100150000D01*
G75*
G02*
X158600000Y-100025000I125000J0D01*
G01*
X159925000Y-100025000D01*
G75*
G02*
X160050000Y-100150000I0J-125000D01*
G01*
X160050000Y-100400000D01*
G75*
G02*
X159925000Y-100525000I-125000J0D01*
G01*
X158600000Y-100525000D01*
G75*
G02*
X158475000Y-100400000I0J125000D01*
G01*
G37*
G36*
G01*
X158475000Y-101050000D02*
X158475000Y-100800000D01*
G75*
G02*
X158600000Y-100675000I125000J0D01*
G01*
X159925000Y-100675000D01*
G75*
G02*
X160050000Y-100800000I0J-125000D01*
G01*
X160050000Y-101050000D01*
G75*
G02*
X159925000Y-101175000I-125000J0D01*
G01*
X158600000Y-101175000D01*
G75*
G02*
X158475000Y-101050000I0J125000D01*
G01*
G37*
G36*
G01*
X158475000Y-101700000D02*
X158475000Y-101450000D01*
G75*
G02*
X158600000Y-101325000I125000J0D01*
G01*
X159925000Y-101325000D01*
G75*
G02*
X160050000Y-101450000I0J-125000D01*
G01*
X160050000Y-101700000D01*
G75*
G02*
X159925000Y-101825000I-125000J0D01*
G01*
X158600000Y-101825000D01*
G75*
G02*
X158475000Y-101700000I0J125000D01*
G01*
G37*
G36*
G01*
X158475000Y-102350000D02*
X158475000Y-102100000D01*
G75*
G02*
X158600000Y-101975000I125000J0D01*
G01*
X159925000Y-101975000D01*
G75*
G02*
X160050000Y-102100000I0J-125000D01*
G01*
X160050000Y-102350000D01*
G75*
G02*
X159925000Y-102475000I-125000J0D01*
G01*
X158600000Y-102475000D01*
G75*
G02*
X158475000Y-102350000I0J125000D01*
G01*
G37*
G36*
G01*
X152750000Y-102350000D02*
X152750000Y-102100000D01*
G75*
G02*
X152875000Y-101975000I125000J0D01*
G01*
X154200000Y-101975000D01*
G75*
G02*
X154325000Y-102100000I0J-125000D01*
G01*
X154325000Y-102350000D01*
G75*
G02*
X154200000Y-102475000I-125000J0D01*
G01*
X152875000Y-102475000D01*
G75*
G02*
X152750000Y-102350000I0J125000D01*
G01*
G37*
G36*
G01*
X152750000Y-101700000D02*
X152750000Y-101450000D01*
G75*
G02*
X152875000Y-101325000I125000J0D01*
G01*
X154200000Y-101325000D01*
G75*
G02*
X154325000Y-101450000I0J-125000D01*
G01*
X154325000Y-101700000D01*
G75*
G02*
X154200000Y-101825000I-125000J0D01*
G01*
X152875000Y-101825000D01*
G75*
G02*
X152750000Y-101700000I0J125000D01*
G01*
G37*
G36*
G01*
X152750000Y-101050000D02*
X152750000Y-100800000D01*
G75*
G02*
X152875000Y-100675000I125000J0D01*
G01*
X154200000Y-100675000D01*
G75*
G02*
X154325000Y-100800000I0J-125000D01*
G01*
X154325000Y-101050000D01*
G75*
G02*
X154200000Y-101175000I-125000J0D01*
G01*
X152875000Y-101175000D01*
G75*
G02*
X152750000Y-101050000I0J125000D01*
G01*
G37*
G36*
G01*
X152750000Y-100400000D02*
X152750000Y-100150000D01*
G75*
G02*
X152875000Y-100025000I125000J0D01*
G01*
X154200000Y-100025000D01*
G75*
G02*
X154325000Y-100150000I0J-125000D01*
G01*
X154325000Y-100400000D01*
G75*
G02*
X154200000Y-100525000I-125000J0D01*
G01*
X152875000Y-100525000D01*
G75*
G02*
X152750000Y-100400000I0J125000D01*
G01*
G37*
G36*
G01*
X152750000Y-99750000D02*
X152750000Y-99500000D01*
G75*
G02*
X152875000Y-99375000I125000J0D01*
G01*
X154200000Y-99375000D01*
G75*
G02*
X154325000Y-99500000I0J-125000D01*
G01*
X154325000Y-99750000D01*
G75*
G02*
X154200000Y-99875000I-125000J0D01*
G01*
X152875000Y-99875000D01*
G75*
G02*
X152750000Y-99750000I0J125000D01*
G01*
G37*
G36*
G01*
X152750000Y-99100000D02*
X152750000Y-98850000D01*
G75*
G02*
X152875000Y-98725000I125000J0D01*
G01*
X154200000Y-98725000D01*
G75*
G02*
X154325000Y-98850000I0J-125000D01*
G01*
X154325000Y-99100000D01*
G75*
G02*
X154200000Y-99225000I-125000J0D01*
G01*
X152875000Y-99225000D01*
G75*
G02*
X152750000Y-99100000I0J125000D01*
G01*
G37*
G36*
G01*
X152750000Y-98450000D02*
X152750000Y-98200000D01*
G75*
G02*
X152875000Y-98075000I125000J0D01*
G01*
X154200000Y-98075000D01*
G75*
G02*
X154325000Y-98200000I0J-125000D01*
G01*
X154325000Y-98450000D01*
G75*
G02*
X154200000Y-98575000I-125000J0D01*
G01*
X152875000Y-98575000D01*
G75*
G02*
X152750000Y-98450000I0J125000D01*
G01*
G37*
G36*
G01*
X152750000Y-97800000D02*
X152750000Y-97550000D01*
G75*
G02*
X152875000Y-97425000I125000J0D01*
G01*
X154200000Y-97425000D01*
G75*
G02*
X154325000Y-97550000I0J-125000D01*
G01*
X154325000Y-97800000D01*
G75*
G02*
X154200000Y-97925000I-125000J0D01*
G01*
X152875000Y-97925000D01*
G75*
G02*
X152750000Y-97800000I0J125000D01*
G01*
G37*
G36*
G01*
X152750000Y-97150000D02*
X152750000Y-96900000D01*
G75*
G02*
X152875000Y-96775000I125000J0D01*
G01*
X154200000Y-96775000D01*
G75*
G02*
X154325000Y-96900000I0J-125000D01*
G01*
X154325000Y-97150000D01*
G75*
G02*
X154200000Y-97275000I-125000J0D01*
G01*
X152875000Y-97275000D01*
G75*
G02*
X152750000Y-97150000I0J125000D01*
G01*
G37*
G36*
G01*
X152750000Y-96500000D02*
X152750000Y-96250000D01*
G75*
G02*
X152875000Y-96125000I125000J0D01*
G01*
X154200000Y-96125000D01*
G75*
G02*
X154325000Y-96250000I0J-125000D01*
G01*
X154325000Y-96500000D01*
G75*
G02*
X154200000Y-96625000I-125000J0D01*
G01*
X152875000Y-96625000D01*
G75*
G02*
X152750000Y-96500000I0J125000D01*
G01*
G37*
%TD*%
%TO.C,U7*%
G36*
G01*
X141730000Y-72850000D02*
X142080000Y-72850000D01*
G75*
G02*
X142255000Y-73025000I0J-175000D01*
G01*
X142255000Y-74725000D01*
G75*
G02*
X142080000Y-74900000I-175000J0D01*
G01*
X141730000Y-74900000D01*
G75*
G02*
X141555000Y-74725000I0J175000D01*
G01*
X141555000Y-73025000D01*
G75*
G02*
X141730000Y-72850000I175000J0D01*
G01*
G37*
G36*
G01*
X140460000Y-72850000D02*
X140810000Y-72850000D01*
G75*
G02*
X140985000Y-73025000I0J-175000D01*
G01*
X140985000Y-74725000D01*
G75*
G02*
X140810000Y-74900000I-175000J0D01*
G01*
X140460000Y-74900000D01*
G75*
G02*
X140285000Y-74725000I0J175000D01*
G01*
X140285000Y-73025000D01*
G75*
G02*
X140460000Y-72850000I175000J0D01*
G01*
G37*
G36*
G01*
X139190000Y-72850000D02*
X139540000Y-72850000D01*
G75*
G02*
X139715000Y-73025000I0J-175000D01*
G01*
X139715000Y-74725000D01*
G75*
G02*
X139540000Y-74900000I-175000J0D01*
G01*
X139190000Y-74900000D01*
G75*
G02*
X139015000Y-74725000I0J175000D01*
G01*
X139015000Y-73025000D01*
G75*
G02*
X139190000Y-72850000I175000J0D01*
G01*
G37*
G36*
G01*
X137920000Y-72850000D02*
X138270000Y-72850000D01*
G75*
G02*
X138445000Y-73025000I0J-175000D01*
G01*
X138445000Y-74725000D01*
G75*
G02*
X138270000Y-74900000I-175000J0D01*
G01*
X137920000Y-74900000D01*
G75*
G02*
X137745000Y-74725000I0J175000D01*
G01*
X137745000Y-73025000D01*
G75*
G02*
X137920000Y-72850000I175000J0D01*
G01*
G37*
G36*
G01*
X137920000Y-67900000D02*
X138270000Y-67900000D01*
G75*
G02*
X138445000Y-68075000I0J-175000D01*
G01*
X138445000Y-69775000D01*
G75*
G02*
X138270000Y-69950000I-175000J0D01*
G01*
X137920000Y-69950000D01*
G75*
G02*
X137745000Y-69775000I0J175000D01*
G01*
X137745000Y-68075000D01*
G75*
G02*
X137920000Y-67900000I175000J0D01*
G01*
G37*
G36*
G01*
X139190000Y-67900000D02*
X139540000Y-67900000D01*
G75*
G02*
X139715000Y-68075000I0J-175000D01*
G01*
X139715000Y-69775000D01*
G75*
G02*
X139540000Y-69950000I-175000J0D01*
G01*
X139190000Y-69950000D01*
G75*
G02*
X139015000Y-69775000I0J175000D01*
G01*
X139015000Y-68075000D01*
G75*
G02*
X139190000Y-67900000I175000J0D01*
G01*
G37*
G36*
G01*
X140460000Y-67900000D02*
X140810000Y-67900000D01*
G75*
G02*
X140985000Y-68075000I0J-175000D01*
G01*
X140985000Y-69775000D01*
G75*
G02*
X140810000Y-69950000I-175000J0D01*
G01*
X140460000Y-69950000D01*
G75*
G02*
X140285000Y-69775000I0J175000D01*
G01*
X140285000Y-68075000D01*
G75*
G02*
X140460000Y-67900000I175000J0D01*
G01*
G37*
G36*
G01*
X141730000Y-67900000D02*
X142080000Y-67900000D01*
G75*
G02*
X142255000Y-68075000I0J-175000D01*
G01*
X142255000Y-69775000D01*
G75*
G02*
X142080000Y-69950000I-175000J0D01*
G01*
X141730000Y-69950000D01*
G75*
G02*
X141555000Y-69775000I0J175000D01*
G01*
X141555000Y-68075000D01*
G75*
G02*
X141730000Y-67900000I175000J0D01*
G01*
G37*
%TD*%
D11*
%TO.C,U6*%
X153400000Y-122200000D03*
G36*
G01*
X151312500Y-123875000D02*
X150587500Y-123875000D01*
G75*
G02*
X150500000Y-123787500I0J87500D01*
G01*
X150500000Y-123612500D01*
G75*
G02*
X150587500Y-123525000I87500J0D01*
G01*
X151312500Y-123525000D01*
G75*
G02*
X151400000Y-123612500I0J-87500D01*
G01*
X151400000Y-123787500D01*
G75*
G02*
X151312500Y-123875000I-87500J0D01*
G01*
G37*
G36*
G01*
X151312500Y-123375000D02*
X150587500Y-123375000D01*
G75*
G02*
X150500000Y-123287500I0J87500D01*
G01*
X150500000Y-123112500D01*
G75*
G02*
X150587500Y-123025000I87500J0D01*
G01*
X151312500Y-123025000D01*
G75*
G02*
X151400000Y-123112500I0J-87500D01*
G01*
X151400000Y-123287500D01*
G75*
G02*
X151312500Y-123375000I-87500J0D01*
G01*
G37*
G36*
G01*
X151312500Y-122875000D02*
X150587500Y-122875000D01*
G75*
G02*
X150500000Y-122787500I0J87500D01*
G01*
X150500000Y-122612500D01*
G75*
G02*
X150587500Y-122525000I87500J0D01*
G01*
X151312500Y-122525000D01*
G75*
G02*
X151400000Y-122612500I0J-87500D01*
G01*
X151400000Y-122787500D01*
G75*
G02*
X151312500Y-122875000I-87500J0D01*
G01*
G37*
G36*
G01*
X151312500Y-122375000D02*
X150587500Y-122375000D01*
G75*
G02*
X150500000Y-122287500I0J87500D01*
G01*
X150500000Y-122112500D01*
G75*
G02*
X150587500Y-122025000I87500J0D01*
G01*
X151312500Y-122025000D01*
G75*
G02*
X151400000Y-122112500I0J-87500D01*
G01*
X151400000Y-122287500D01*
G75*
G02*
X151312500Y-122375000I-87500J0D01*
G01*
G37*
G36*
G01*
X151312500Y-121875000D02*
X150587500Y-121875000D01*
G75*
G02*
X150500000Y-121787500I0J87500D01*
G01*
X150500000Y-121612500D01*
G75*
G02*
X150587500Y-121525000I87500J0D01*
G01*
X151312500Y-121525000D01*
G75*
G02*
X151400000Y-121612500I0J-87500D01*
G01*
X151400000Y-121787500D01*
G75*
G02*
X151312500Y-121875000I-87500J0D01*
G01*
G37*
G36*
G01*
X151312500Y-121375000D02*
X150587500Y-121375000D01*
G75*
G02*
X150500000Y-121287500I0J87500D01*
G01*
X150500000Y-121112500D01*
G75*
G02*
X150587500Y-121025000I87500J0D01*
G01*
X151312500Y-121025000D01*
G75*
G02*
X151400000Y-121112500I0J-87500D01*
G01*
X151400000Y-121287500D01*
G75*
G02*
X151312500Y-121375000I-87500J0D01*
G01*
G37*
G36*
G01*
X151312500Y-120875000D02*
X150587500Y-120875000D01*
G75*
G02*
X150500000Y-120787500I0J87500D01*
G01*
X150500000Y-120612500D01*
G75*
G02*
X150587500Y-120525000I87500J0D01*
G01*
X151312500Y-120525000D01*
G75*
G02*
X151400000Y-120612500I0J-87500D01*
G01*
X151400000Y-120787500D01*
G75*
G02*
X151312500Y-120875000I-87500J0D01*
G01*
G37*
G36*
G01*
X151987500Y-120200000D02*
X151812500Y-120200000D01*
G75*
G02*
X151725000Y-120112500I0J87500D01*
G01*
X151725000Y-119387500D01*
G75*
G02*
X151812500Y-119300000I87500J0D01*
G01*
X151987500Y-119300000D01*
G75*
G02*
X152075000Y-119387500I0J-87500D01*
G01*
X152075000Y-120112500D01*
G75*
G02*
X151987500Y-120200000I-87500J0D01*
G01*
G37*
G36*
G01*
X152487500Y-120200000D02*
X152312500Y-120200000D01*
G75*
G02*
X152225000Y-120112500I0J87500D01*
G01*
X152225000Y-119387500D01*
G75*
G02*
X152312500Y-119300000I87500J0D01*
G01*
X152487500Y-119300000D01*
G75*
G02*
X152575000Y-119387500I0J-87500D01*
G01*
X152575000Y-120112500D01*
G75*
G02*
X152487500Y-120200000I-87500J0D01*
G01*
G37*
G36*
G01*
X152987500Y-120200000D02*
X152812500Y-120200000D01*
G75*
G02*
X152725000Y-120112500I0J87500D01*
G01*
X152725000Y-119387500D01*
G75*
G02*
X152812500Y-119300000I87500J0D01*
G01*
X152987500Y-119300000D01*
G75*
G02*
X153075000Y-119387500I0J-87500D01*
G01*
X153075000Y-120112500D01*
G75*
G02*
X152987500Y-120200000I-87500J0D01*
G01*
G37*
G36*
G01*
X153487500Y-120200000D02*
X153312500Y-120200000D01*
G75*
G02*
X153225000Y-120112500I0J87500D01*
G01*
X153225000Y-119387500D01*
G75*
G02*
X153312500Y-119300000I87500J0D01*
G01*
X153487500Y-119300000D01*
G75*
G02*
X153575000Y-119387500I0J-87500D01*
G01*
X153575000Y-120112500D01*
G75*
G02*
X153487500Y-120200000I-87500J0D01*
G01*
G37*
G36*
G01*
X153987500Y-120200000D02*
X153812500Y-120200000D01*
G75*
G02*
X153725000Y-120112500I0J87500D01*
G01*
X153725000Y-119387500D01*
G75*
G02*
X153812500Y-119300000I87500J0D01*
G01*
X153987500Y-119300000D01*
G75*
G02*
X154075000Y-119387500I0J-87500D01*
G01*
X154075000Y-120112500D01*
G75*
G02*
X153987500Y-120200000I-87500J0D01*
G01*
G37*
G36*
G01*
X154487500Y-120200000D02*
X154312500Y-120200000D01*
G75*
G02*
X154225000Y-120112500I0J87500D01*
G01*
X154225000Y-119387500D01*
G75*
G02*
X154312500Y-119300000I87500J0D01*
G01*
X154487500Y-119300000D01*
G75*
G02*
X154575000Y-119387500I0J-87500D01*
G01*
X154575000Y-120112500D01*
G75*
G02*
X154487500Y-120200000I-87500J0D01*
G01*
G37*
G36*
G01*
X154987500Y-120200000D02*
X154812500Y-120200000D01*
G75*
G02*
X154725000Y-120112500I0J87500D01*
G01*
X154725000Y-119387500D01*
G75*
G02*
X154812500Y-119300000I87500J0D01*
G01*
X154987500Y-119300000D01*
G75*
G02*
X155075000Y-119387500I0J-87500D01*
G01*
X155075000Y-120112500D01*
G75*
G02*
X154987500Y-120200000I-87500J0D01*
G01*
G37*
G36*
G01*
X156212500Y-120875000D02*
X155487500Y-120875000D01*
G75*
G02*
X155400000Y-120787500I0J87500D01*
G01*
X155400000Y-120612500D01*
G75*
G02*
X155487500Y-120525000I87500J0D01*
G01*
X156212500Y-120525000D01*
G75*
G02*
X156300000Y-120612500I0J-87500D01*
G01*
X156300000Y-120787500D01*
G75*
G02*
X156212500Y-120875000I-87500J0D01*
G01*
G37*
G36*
G01*
X156212500Y-121375000D02*
X155487500Y-121375000D01*
G75*
G02*
X155400000Y-121287500I0J87500D01*
G01*
X155400000Y-121112500D01*
G75*
G02*
X155487500Y-121025000I87500J0D01*
G01*
X156212500Y-121025000D01*
G75*
G02*
X156300000Y-121112500I0J-87500D01*
G01*
X156300000Y-121287500D01*
G75*
G02*
X156212500Y-121375000I-87500J0D01*
G01*
G37*
G36*
G01*
X156212500Y-121875000D02*
X155487500Y-121875000D01*
G75*
G02*
X155400000Y-121787500I0J87500D01*
G01*
X155400000Y-121612500D01*
G75*
G02*
X155487500Y-121525000I87500J0D01*
G01*
X156212500Y-121525000D01*
G75*
G02*
X156300000Y-121612500I0J-87500D01*
G01*
X156300000Y-121787500D01*
G75*
G02*
X156212500Y-121875000I-87500J0D01*
G01*
G37*
G36*
G01*
X156212500Y-122375000D02*
X155487500Y-122375000D01*
G75*
G02*
X155400000Y-122287500I0J87500D01*
G01*
X155400000Y-122112500D01*
G75*
G02*
X155487500Y-122025000I87500J0D01*
G01*
X156212500Y-122025000D01*
G75*
G02*
X156300000Y-122112500I0J-87500D01*
G01*
X156300000Y-122287500D01*
G75*
G02*
X156212500Y-122375000I-87500J0D01*
G01*
G37*
G36*
G01*
X156212500Y-122875000D02*
X155487500Y-122875000D01*
G75*
G02*
X155400000Y-122787500I0J87500D01*
G01*
X155400000Y-122612500D01*
G75*
G02*
X155487500Y-122525000I87500J0D01*
G01*
X156212500Y-122525000D01*
G75*
G02*
X156300000Y-122612500I0J-87500D01*
G01*
X156300000Y-122787500D01*
G75*
G02*
X156212500Y-122875000I-87500J0D01*
G01*
G37*
G36*
G01*
X156212500Y-123375000D02*
X155487500Y-123375000D01*
G75*
G02*
X155400000Y-123287500I0J87500D01*
G01*
X155400000Y-123112500D01*
G75*
G02*
X155487500Y-123025000I87500J0D01*
G01*
X156212500Y-123025000D01*
G75*
G02*
X156300000Y-123112500I0J-87500D01*
G01*
X156300000Y-123287500D01*
G75*
G02*
X156212500Y-123375000I-87500J0D01*
G01*
G37*
G36*
G01*
X156212500Y-123875000D02*
X155487500Y-123875000D01*
G75*
G02*
X155400000Y-123787500I0J87500D01*
G01*
X155400000Y-123612500D01*
G75*
G02*
X155487500Y-123525000I87500J0D01*
G01*
X156212500Y-123525000D01*
G75*
G02*
X156300000Y-123612500I0J-87500D01*
G01*
X156300000Y-123787500D01*
G75*
G02*
X156212500Y-123875000I-87500J0D01*
G01*
G37*
G36*
G01*
X154987500Y-125100000D02*
X154812500Y-125100000D01*
G75*
G02*
X154725000Y-125012500I0J87500D01*
G01*
X154725000Y-124287500D01*
G75*
G02*
X154812500Y-124200000I87500J0D01*
G01*
X154987500Y-124200000D01*
G75*
G02*
X155075000Y-124287500I0J-87500D01*
G01*
X155075000Y-125012500D01*
G75*
G02*
X154987500Y-125100000I-87500J0D01*
G01*
G37*
G36*
G01*
X154487500Y-125100000D02*
X154312500Y-125100000D01*
G75*
G02*
X154225000Y-125012500I0J87500D01*
G01*
X154225000Y-124287500D01*
G75*
G02*
X154312500Y-124200000I87500J0D01*
G01*
X154487500Y-124200000D01*
G75*
G02*
X154575000Y-124287500I0J-87500D01*
G01*
X154575000Y-125012500D01*
G75*
G02*
X154487500Y-125100000I-87500J0D01*
G01*
G37*
G36*
G01*
X153987500Y-125100000D02*
X153812500Y-125100000D01*
G75*
G02*
X153725000Y-125012500I0J87500D01*
G01*
X153725000Y-124287500D01*
G75*
G02*
X153812500Y-124200000I87500J0D01*
G01*
X153987500Y-124200000D01*
G75*
G02*
X154075000Y-124287500I0J-87500D01*
G01*
X154075000Y-125012500D01*
G75*
G02*
X153987500Y-125100000I-87500J0D01*
G01*
G37*
G36*
G01*
X153487500Y-125100000D02*
X153312500Y-125100000D01*
G75*
G02*
X153225000Y-125012500I0J87500D01*
G01*
X153225000Y-124287500D01*
G75*
G02*
X153312500Y-124200000I87500J0D01*
G01*
X153487500Y-124200000D01*
G75*
G02*
X153575000Y-124287500I0J-87500D01*
G01*
X153575000Y-125012500D01*
G75*
G02*
X153487500Y-125100000I-87500J0D01*
G01*
G37*
G36*
G01*
X152987500Y-125100000D02*
X152812500Y-125100000D01*
G75*
G02*
X152725000Y-125012500I0J87500D01*
G01*
X152725000Y-124287500D01*
G75*
G02*
X152812500Y-124200000I87500J0D01*
G01*
X152987500Y-124200000D01*
G75*
G02*
X153075000Y-124287500I0J-87500D01*
G01*
X153075000Y-125012500D01*
G75*
G02*
X152987500Y-125100000I-87500J0D01*
G01*
G37*
G36*
G01*
X152487500Y-125100000D02*
X152312500Y-125100000D01*
G75*
G02*
X152225000Y-125012500I0J87500D01*
G01*
X152225000Y-124287500D01*
G75*
G02*
X152312500Y-124200000I87500J0D01*
G01*
X152487500Y-124200000D01*
G75*
G02*
X152575000Y-124287500I0J-87500D01*
G01*
X152575000Y-125012500D01*
G75*
G02*
X152487500Y-125100000I-87500J0D01*
G01*
G37*
G36*
G01*
X151987500Y-125100000D02*
X151812500Y-125100000D01*
G75*
G02*
X151725000Y-125012500I0J87500D01*
G01*
X151725000Y-124287500D01*
G75*
G02*
X151812500Y-124200000I87500J0D01*
G01*
X151987500Y-124200000D01*
G75*
G02*
X152075000Y-124287500I0J-87500D01*
G01*
X152075000Y-125012500D01*
G75*
G02*
X151987500Y-125100000I-87500J0D01*
G01*
G37*
%TD*%
D12*
%TO.C,U5*%
X141180000Y-99160000D03*
X145780000Y-99160000D03*
X143480000Y-99160000D03*
D13*
X143480000Y-92860000D03*
%TD*%
%TO.C,U4*%
G36*
G01*
X158475000Y-105400000D02*
X158475000Y-105150000D01*
G75*
G02*
X158600000Y-105025000I125000J0D01*
G01*
X159925000Y-105025000D01*
G75*
G02*
X160050000Y-105150000I0J-125000D01*
G01*
X160050000Y-105400000D01*
G75*
G02*
X159925000Y-105525000I-125000J0D01*
G01*
X158600000Y-105525000D01*
G75*
G02*
X158475000Y-105400000I0J125000D01*
G01*
G37*
G36*
G01*
X158475000Y-106050000D02*
X158475000Y-105800000D01*
G75*
G02*
X158600000Y-105675000I125000J0D01*
G01*
X159925000Y-105675000D01*
G75*
G02*
X160050000Y-105800000I0J-125000D01*
G01*
X160050000Y-106050000D01*
G75*
G02*
X159925000Y-106175000I-125000J0D01*
G01*
X158600000Y-106175000D01*
G75*
G02*
X158475000Y-106050000I0J125000D01*
G01*
G37*
G36*
G01*
X158475000Y-106700000D02*
X158475000Y-106450000D01*
G75*
G02*
X158600000Y-106325000I125000J0D01*
G01*
X159925000Y-106325000D01*
G75*
G02*
X160050000Y-106450000I0J-125000D01*
G01*
X160050000Y-106700000D01*
G75*
G02*
X159925000Y-106825000I-125000J0D01*
G01*
X158600000Y-106825000D01*
G75*
G02*
X158475000Y-106700000I0J125000D01*
G01*
G37*
G36*
G01*
X158475000Y-107350000D02*
X158475000Y-107100000D01*
G75*
G02*
X158600000Y-106975000I125000J0D01*
G01*
X159925000Y-106975000D01*
G75*
G02*
X160050000Y-107100000I0J-125000D01*
G01*
X160050000Y-107350000D01*
G75*
G02*
X159925000Y-107475000I-125000J0D01*
G01*
X158600000Y-107475000D01*
G75*
G02*
X158475000Y-107350000I0J125000D01*
G01*
G37*
G36*
G01*
X158475000Y-108000000D02*
X158475000Y-107750000D01*
G75*
G02*
X158600000Y-107625000I125000J0D01*
G01*
X159925000Y-107625000D01*
G75*
G02*
X160050000Y-107750000I0J-125000D01*
G01*
X160050000Y-108000000D01*
G75*
G02*
X159925000Y-108125000I-125000J0D01*
G01*
X158600000Y-108125000D01*
G75*
G02*
X158475000Y-108000000I0J125000D01*
G01*
G37*
G36*
G01*
X158475000Y-108650000D02*
X158475000Y-108400000D01*
G75*
G02*
X158600000Y-108275000I125000J0D01*
G01*
X159925000Y-108275000D01*
G75*
G02*
X160050000Y-108400000I0J-125000D01*
G01*
X160050000Y-108650000D01*
G75*
G02*
X159925000Y-108775000I-125000J0D01*
G01*
X158600000Y-108775000D01*
G75*
G02*
X158475000Y-108650000I0J125000D01*
G01*
G37*
G36*
G01*
X158475000Y-109300000D02*
X158475000Y-109050000D01*
G75*
G02*
X158600000Y-108925000I125000J0D01*
G01*
X159925000Y-108925000D01*
G75*
G02*
X160050000Y-109050000I0J-125000D01*
G01*
X160050000Y-109300000D01*
G75*
G02*
X159925000Y-109425000I-125000J0D01*
G01*
X158600000Y-109425000D01*
G75*
G02*
X158475000Y-109300000I0J125000D01*
G01*
G37*
G36*
G01*
X158475000Y-109950000D02*
X158475000Y-109700000D01*
G75*
G02*
X158600000Y-109575000I125000J0D01*
G01*
X159925000Y-109575000D01*
G75*
G02*
X160050000Y-109700000I0J-125000D01*
G01*
X160050000Y-109950000D01*
G75*
G02*
X159925000Y-110075000I-125000J0D01*
G01*
X158600000Y-110075000D01*
G75*
G02*
X158475000Y-109950000I0J125000D01*
G01*
G37*
G36*
G01*
X158475000Y-110600000D02*
X158475000Y-110350000D01*
G75*
G02*
X158600000Y-110225000I125000J0D01*
G01*
X159925000Y-110225000D01*
G75*
G02*
X160050000Y-110350000I0J-125000D01*
G01*
X160050000Y-110600000D01*
G75*
G02*
X159925000Y-110725000I-125000J0D01*
G01*
X158600000Y-110725000D01*
G75*
G02*
X158475000Y-110600000I0J125000D01*
G01*
G37*
G36*
G01*
X158475000Y-111250000D02*
X158475000Y-111000000D01*
G75*
G02*
X158600000Y-110875000I125000J0D01*
G01*
X159925000Y-110875000D01*
G75*
G02*
X160050000Y-111000000I0J-125000D01*
G01*
X160050000Y-111250000D01*
G75*
G02*
X159925000Y-111375000I-125000J0D01*
G01*
X158600000Y-111375000D01*
G75*
G02*
X158475000Y-111250000I0J125000D01*
G01*
G37*
G36*
G01*
X152750000Y-111250000D02*
X152750000Y-111000000D01*
G75*
G02*
X152875000Y-110875000I125000J0D01*
G01*
X154200000Y-110875000D01*
G75*
G02*
X154325000Y-111000000I0J-125000D01*
G01*
X154325000Y-111250000D01*
G75*
G02*
X154200000Y-111375000I-125000J0D01*
G01*
X152875000Y-111375000D01*
G75*
G02*
X152750000Y-111250000I0J125000D01*
G01*
G37*
G36*
G01*
X152750000Y-110600000D02*
X152750000Y-110350000D01*
G75*
G02*
X152875000Y-110225000I125000J0D01*
G01*
X154200000Y-110225000D01*
G75*
G02*
X154325000Y-110350000I0J-125000D01*
G01*
X154325000Y-110600000D01*
G75*
G02*
X154200000Y-110725000I-125000J0D01*
G01*
X152875000Y-110725000D01*
G75*
G02*
X152750000Y-110600000I0J125000D01*
G01*
G37*
G36*
G01*
X152750000Y-109950000D02*
X152750000Y-109700000D01*
G75*
G02*
X152875000Y-109575000I125000J0D01*
G01*
X154200000Y-109575000D01*
G75*
G02*
X154325000Y-109700000I0J-125000D01*
G01*
X154325000Y-109950000D01*
G75*
G02*
X154200000Y-110075000I-125000J0D01*
G01*
X152875000Y-110075000D01*
G75*
G02*
X152750000Y-109950000I0J125000D01*
G01*
G37*
G36*
G01*
X152750000Y-109300000D02*
X152750000Y-109050000D01*
G75*
G02*
X152875000Y-108925000I125000J0D01*
G01*
X154200000Y-108925000D01*
G75*
G02*
X154325000Y-109050000I0J-125000D01*
G01*
X154325000Y-109300000D01*
G75*
G02*
X154200000Y-109425000I-125000J0D01*
G01*
X152875000Y-109425000D01*
G75*
G02*
X152750000Y-109300000I0J125000D01*
G01*
G37*
G36*
G01*
X152750000Y-108650000D02*
X152750000Y-108400000D01*
G75*
G02*
X152875000Y-108275000I125000J0D01*
G01*
X154200000Y-108275000D01*
G75*
G02*
X154325000Y-108400000I0J-125000D01*
G01*
X154325000Y-108650000D01*
G75*
G02*
X154200000Y-108775000I-125000J0D01*
G01*
X152875000Y-108775000D01*
G75*
G02*
X152750000Y-108650000I0J125000D01*
G01*
G37*
G36*
G01*
X152750000Y-108000000D02*
X152750000Y-107750000D01*
G75*
G02*
X152875000Y-107625000I125000J0D01*
G01*
X154200000Y-107625000D01*
G75*
G02*
X154325000Y-107750000I0J-125000D01*
G01*
X154325000Y-108000000D01*
G75*
G02*
X154200000Y-108125000I-125000J0D01*
G01*
X152875000Y-108125000D01*
G75*
G02*
X152750000Y-108000000I0J125000D01*
G01*
G37*
G36*
G01*
X152750000Y-107350000D02*
X152750000Y-107100000D01*
G75*
G02*
X152875000Y-106975000I125000J0D01*
G01*
X154200000Y-106975000D01*
G75*
G02*
X154325000Y-107100000I0J-125000D01*
G01*
X154325000Y-107350000D01*
G75*
G02*
X154200000Y-107475000I-125000J0D01*
G01*
X152875000Y-107475000D01*
G75*
G02*
X152750000Y-107350000I0J125000D01*
G01*
G37*
G36*
G01*
X152750000Y-106700000D02*
X152750000Y-106450000D01*
G75*
G02*
X152875000Y-106325000I125000J0D01*
G01*
X154200000Y-106325000D01*
G75*
G02*
X154325000Y-106450000I0J-125000D01*
G01*
X154325000Y-106700000D01*
G75*
G02*
X154200000Y-106825000I-125000J0D01*
G01*
X152875000Y-106825000D01*
G75*
G02*
X152750000Y-106700000I0J125000D01*
G01*
G37*
G36*
G01*
X152750000Y-106050000D02*
X152750000Y-105800000D01*
G75*
G02*
X152875000Y-105675000I125000J0D01*
G01*
X154200000Y-105675000D01*
G75*
G02*
X154325000Y-105800000I0J-125000D01*
G01*
X154325000Y-106050000D01*
G75*
G02*
X154200000Y-106175000I-125000J0D01*
G01*
X152875000Y-106175000D01*
G75*
G02*
X152750000Y-106050000I0J125000D01*
G01*
G37*
G36*
G01*
X152750000Y-105400000D02*
X152750000Y-105150000D01*
G75*
G02*
X152875000Y-105025000I125000J0D01*
G01*
X154200000Y-105025000D01*
G75*
G02*
X154325000Y-105150000I0J-125000D01*
G01*
X154325000Y-105400000D01*
G75*
G02*
X154200000Y-105525000I-125000J0D01*
G01*
X152875000Y-105525000D01*
G75*
G02*
X152750000Y-105400000I0J125000D01*
G01*
G37*
%TD*%
%TO.C,U2*%
G36*
G01*
X134200000Y-121750000D02*
X134200000Y-123050000D01*
G75*
G02*
X134000000Y-123250000I-200000J0D01*
G01*
X133600000Y-123250000D01*
G75*
G02*
X133400000Y-123050000I0J200000D01*
G01*
X133400000Y-121750000D01*
G75*
G02*
X133600000Y-121550000I200000J0D01*
G01*
X134000000Y-121550000D01*
G75*
G02*
X134200000Y-121750000I0J-200000D01*
G01*
G37*
G36*
G01*
X133200000Y-122787500D02*
X133200000Y-123012500D01*
G75*
G02*
X133087500Y-123125000I-112500J0D01*
G01*
X132662500Y-123125000D01*
G75*
G02*
X132550000Y-123012500I0J112500D01*
G01*
X132550000Y-122787500D01*
G75*
G02*
X132662500Y-122675000I112500J0D01*
G01*
X133087500Y-122675000D01*
G75*
G02*
X133200000Y-122787500I0J-112500D01*
G01*
G37*
G36*
G01*
X133200000Y-121787500D02*
X133200000Y-122012500D01*
G75*
G02*
X133087500Y-122125000I-112500J0D01*
G01*
X132662500Y-122125000D01*
G75*
G02*
X132550000Y-122012500I0J112500D01*
G01*
X132550000Y-121787500D01*
G75*
G02*
X132662500Y-121675000I112500J0D01*
G01*
X133087500Y-121675000D01*
G75*
G02*
X133200000Y-121787500I0J-112500D01*
G01*
G37*
G36*
G01*
X135050000Y-121787500D02*
X135050000Y-122012500D01*
G75*
G02*
X134937500Y-122125000I-112500J0D01*
G01*
X134512500Y-122125000D01*
G75*
G02*
X134400000Y-122012500I0J112500D01*
G01*
X134400000Y-121787500D01*
G75*
G02*
X134512500Y-121675000I112500J0D01*
G01*
X134937500Y-121675000D01*
G75*
G02*
X135050000Y-121787500I0J-112500D01*
G01*
G37*
G36*
G01*
X135050000Y-122787500D02*
X135050000Y-123012500D01*
G75*
G02*
X134937500Y-123125000I-112500J0D01*
G01*
X134512500Y-123125000D01*
G75*
G02*
X134400000Y-123012500I0J112500D01*
G01*
X134400000Y-122787500D01*
G75*
G02*
X134512500Y-122675000I112500J0D01*
G01*
X134937500Y-122675000D01*
G75*
G02*
X135050000Y-122787500I0J-112500D01*
G01*
G37*
%TD*%
D14*
%TO.C,U1*%
X163255000Y-89300000D03*
X161985000Y-89300000D03*
X160715000Y-89300000D03*
X159445000Y-89300000D03*
X158175000Y-89300000D03*
X156905000Y-89300000D03*
X155635000Y-89300000D03*
X154365000Y-89300000D03*
X153095000Y-89300000D03*
X151825000Y-89300000D03*
X150555000Y-89300000D03*
X149285000Y-89300000D03*
X148015000Y-89300000D03*
X146745000Y-89300000D03*
D15*
X145745000Y-86515000D03*
X145745000Y-85245000D03*
X145745000Y-83975000D03*
X145745000Y-82705000D03*
X145745000Y-81435000D03*
X145745000Y-80165000D03*
X145745000Y-78895000D03*
X145745000Y-77625000D03*
X145745000Y-76355000D03*
X145745000Y-75085000D03*
D14*
X146745000Y-72300000D03*
X148015000Y-72300000D03*
X149285000Y-72300000D03*
X150555000Y-72300000D03*
X151825000Y-72300000D03*
X153095000Y-72300000D03*
X154365000Y-72300000D03*
X155635000Y-72300000D03*
X156905000Y-72300000D03*
X158175000Y-72300000D03*
X159445000Y-72300000D03*
X160715000Y-72300000D03*
X161985000Y-72300000D03*
X163255000Y-72300000D03*
D16*
X155755000Y-79800000D03*
%TD*%
%TO.C,R13*%
G36*
G01*
X136597500Y-73575000D02*
X136202500Y-73575000D01*
G75*
G02*
X136030000Y-73402500I0J172500D01*
G01*
X136030000Y-73057500D01*
G75*
G02*
X136202500Y-72885000I172500J0D01*
G01*
X136597500Y-72885000D01*
G75*
G02*
X136770000Y-73057500I0J-172500D01*
G01*
X136770000Y-73402500D01*
G75*
G02*
X136597500Y-73575000I-172500J0D01*
G01*
G37*
G36*
G01*
X136597500Y-74545000D02*
X136202500Y-74545000D01*
G75*
G02*
X136030000Y-74372500I0J172500D01*
G01*
X136030000Y-74027500D01*
G75*
G02*
X136202500Y-73855000I172500J0D01*
G01*
X136597500Y-73855000D01*
G75*
G02*
X136770000Y-74027500I0J-172500D01*
G01*
X136770000Y-74372500D01*
G75*
G02*
X136597500Y-74545000I-172500J0D01*
G01*
G37*
%TD*%
%TO.C,R12*%
G36*
G01*
X136597500Y-71460000D02*
X136202500Y-71460000D01*
G75*
G02*
X136030000Y-71287500I0J172500D01*
G01*
X136030000Y-70942500D01*
G75*
G02*
X136202500Y-70770000I172500J0D01*
G01*
X136597500Y-70770000D01*
G75*
G02*
X136770000Y-70942500I0J-172500D01*
G01*
X136770000Y-71287500D01*
G75*
G02*
X136597500Y-71460000I-172500J0D01*
G01*
G37*
G36*
G01*
X136597500Y-72430000D02*
X136202500Y-72430000D01*
G75*
G02*
X136030000Y-72257500I0J172500D01*
G01*
X136030000Y-71912500D01*
G75*
G02*
X136202500Y-71740000I172500J0D01*
G01*
X136597500Y-71740000D01*
G75*
G02*
X136770000Y-71912500I0J-172500D01*
G01*
X136770000Y-72257500D01*
G75*
G02*
X136597500Y-72430000I-172500J0D01*
G01*
G37*
%TD*%
%TO.C,R11*%
G36*
G01*
X134260000Y-71402500D02*
X134260000Y-71797500D01*
G75*
G02*
X134087500Y-71970000I-172500J0D01*
G01*
X133742500Y-71970000D01*
G75*
G02*
X133570000Y-71797500I0J172500D01*
G01*
X133570000Y-71402500D01*
G75*
G02*
X133742500Y-71230000I172500J0D01*
G01*
X134087500Y-71230000D01*
G75*
G02*
X134260000Y-71402500I0J-172500D01*
G01*
G37*
G36*
G01*
X135230000Y-71402500D02*
X135230000Y-71797500D01*
G75*
G02*
X135057500Y-71970000I-172500J0D01*
G01*
X134712500Y-71970000D01*
G75*
G02*
X134540000Y-71797500I0J172500D01*
G01*
X134540000Y-71402500D01*
G75*
G02*
X134712500Y-71230000I172500J0D01*
G01*
X135057500Y-71230000D01*
G75*
G02*
X135230000Y-71402500I0J-172500D01*
G01*
G37*
%TD*%
%TO.C,R10*%
G36*
G01*
X134260000Y-69002500D02*
X134260000Y-69397500D01*
G75*
G02*
X134087500Y-69570000I-172500J0D01*
G01*
X133742500Y-69570000D01*
G75*
G02*
X133570000Y-69397500I0J172500D01*
G01*
X133570000Y-69002500D01*
G75*
G02*
X133742500Y-68830000I172500J0D01*
G01*
X134087500Y-68830000D01*
G75*
G02*
X134260000Y-69002500I0J-172500D01*
G01*
G37*
G36*
G01*
X135230000Y-69002500D02*
X135230000Y-69397500D01*
G75*
G02*
X135057500Y-69570000I-172500J0D01*
G01*
X134712500Y-69570000D01*
G75*
G02*
X134540000Y-69397500I0J172500D01*
G01*
X134540000Y-69002500D01*
G75*
G02*
X134712500Y-68830000I172500J0D01*
G01*
X135057500Y-68830000D01*
G75*
G02*
X135230000Y-69002500I0J-172500D01*
G01*
G37*
%TD*%
%TO.C,R9*%
G36*
G01*
X146397500Y-124460000D02*
X146002500Y-124460000D01*
G75*
G02*
X145830000Y-124287500I0J172500D01*
G01*
X145830000Y-123942500D01*
G75*
G02*
X146002500Y-123770000I172500J0D01*
G01*
X146397500Y-123770000D01*
G75*
G02*
X146570000Y-123942500I0J-172500D01*
G01*
X146570000Y-124287500D01*
G75*
G02*
X146397500Y-124460000I-172500J0D01*
G01*
G37*
G36*
G01*
X146397500Y-125430000D02*
X146002500Y-125430000D01*
G75*
G02*
X145830000Y-125257500I0J172500D01*
G01*
X145830000Y-124912500D01*
G75*
G02*
X146002500Y-124740000I172500J0D01*
G01*
X146397500Y-124740000D01*
G75*
G02*
X146570000Y-124912500I0J-172500D01*
G01*
X146570000Y-125257500D01*
G75*
G02*
X146397500Y-125430000I-172500J0D01*
G01*
G37*
%TD*%
%TO.C,R8*%
G36*
G01*
X146002500Y-122540000D02*
X146397500Y-122540000D01*
G75*
G02*
X146570000Y-122712500I0J-172500D01*
G01*
X146570000Y-123057500D01*
G75*
G02*
X146397500Y-123230000I-172500J0D01*
G01*
X146002500Y-123230000D01*
G75*
G02*
X145830000Y-123057500I0J172500D01*
G01*
X145830000Y-122712500D01*
G75*
G02*
X146002500Y-122540000I172500J0D01*
G01*
G37*
G36*
G01*
X146002500Y-121570000D02*
X146397500Y-121570000D01*
G75*
G02*
X146570000Y-121742500I0J-172500D01*
G01*
X146570000Y-122087500D01*
G75*
G02*
X146397500Y-122260000I-172500J0D01*
G01*
X146002500Y-122260000D01*
G75*
G02*
X145830000Y-122087500I0J172500D01*
G01*
X145830000Y-121742500D01*
G75*
G02*
X146002500Y-121570000I172500J0D01*
G01*
G37*
%TD*%
%TO.C,R7*%
G36*
G01*
X155797500Y-127260000D02*
X155402500Y-127260000D01*
G75*
G02*
X155230000Y-127087500I0J172500D01*
G01*
X155230000Y-126742500D01*
G75*
G02*
X155402500Y-126570000I172500J0D01*
G01*
X155797500Y-126570000D01*
G75*
G02*
X155970000Y-126742500I0J-172500D01*
G01*
X155970000Y-127087500D01*
G75*
G02*
X155797500Y-127260000I-172500J0D01*
G01*
G37*
G36*
G01*
X155797500Y-128230000D02*
X155402500Y-128230000D01*
G75*
G02*
X155230000Y-128057500I0J172500D01*
G01*
X155230000Y-127712500D01*
G75*
G02*
X155402500Y-127540000I172500J0D01*
G01*
X155797500Y-127540000D01*
G75*
G02*
X155970000Y-127712500I0J-172500D01*
G01*
X155970000Y-128057500D01*
G75*
G02*
X155797500Y-128230000I-172500J0D01*
G01*
G37*
%TD*%
%TO.C,R6*%
G36*
G01*
X152197500Y-127260000D02*
X151802500Y-127260000D01*
G75*
G02*
X151630000Y-127087500I0J172500D01*
G01*
X151630000Y-126742500D01*
G75*
G02*
X151802500Y-126570000I172500J0D01*
G01*
X152197500Y-126570000D01*
G75*
G02*
X152370000Y-126742500I0J-172500D01*
G01*
X152370000Y-127087500D01*
G75*
G02*
X152197500Y-127260000I-172500J0D01*
G01*
G37*
G36*
G01*
X152197500Y-128230000D02*
X151802500Y-128230000D01*
G75*
G02*
X151630000Y-128057500I0J172500D01*
G01*
X151630000Y-127712500D01*
G75*
G02*
X151802500Y-127540000I172500J0D01*
G01*
X152197500Y-127540000D01*
G75*
G02*
X152370000Y-127712500I0J-172500D01*
G01*
X152370000Y-128057500D01*
G75*
G02*
X152197500Y-128230000I-172500J0D01*
G01*
G37*
%TD*%
%TO.C,R5*%
G36*
G01*
X153397500Y-127260000D02*
X153002500Y-127260000D01*
G75*
G02*
X152830000Y-127087500I0J172500D01*
G01*
X152830000Y-126742500D01*
G75*
G02*
X153002500Y-126570000I172500J0D01*
G01*
X153397500Y-126570000D01*
G75*
G02*
X153570000Y-126742500I0J-172500D01*
G01*
X153570000Y-127087500D01*
G75*
G02*
X153397500Y-127260000I-172500J0D01*
G01*
G37*
G36*
G01*
X153397500Y-128230000D02*
X153002500Y-128230000D01*
G75*
G02*
X152830000Y-128057500I0J172500D01*
G01*
X152830000Y-127712500D01*
G75*
G02*
X153002500Y-127540000I172500J0D01*
G01*
X153397500Y-127540000D01*
G75*
G02*
X153570000Y-127712500I0J-172500D01*
G01*
X153570000Y-128057500D01*
G75*
G02*
X153397500Y-128230000I-172500J0D01*
G01*
G37*
%TD*%
%TO.C,R4*%
G36*
G01*
X132602500Y-119940000D02*
X132997500Y-119940000D01*
G75*
G02*
X133170000Y-120112500I0J-172500D01*
G01*
X133170000Y-120457500D01*
G75*
G02*
X132997500Y-120630000I-172500J0D01*
G01*
X132602500Y-120630000D01*
G75*
G02*
X132430000Y-120457500I0J172500D01*
G01*
X132430000Y-120112500D01*
G75*
G02*
X132602500Y-119940000I172500J0D01*
G01*
G37*
G36*
G01*
X132602500Y-118970000D02*
X132997500Y-118970000D01*
G75*
G02*
X133170000Y-119142500I0J-172500D01*
G01*
X133170000Y-119487500D01*
G75*
G02*
X132997500Y-119660000I-172500J0D01*
G01*
X132602500Y-119660000D01*
G75*
G02*
X132430000Y-119487500I0J172500D01*
G01*
X132430000Y-119142500D01*
G75*
G02*
X132602500Y-118970000I172500J0D01*
G01*
G37*
%TD*%
%TO.C,R3*%
G36*
G01*
X134602500Y-119940000D02*
X134997500Y-119940000D01*
G75*
G02*
X135170000Y-120112500I0J-172500D01*
G01*
X135170000Y-120457500D01*
G75*
G02*
X134997500Y-120630000I-172500J0D01*
G01*
X134602500Y-120630000D01*
G75*
G02*
X134430000Y-120457500I0J172500D01*
G01*
X134430000Y-120112500D01*
G75*
G02*
X134602500Y-119940000I172500J0D01*
G01*
G37*
G36*
G01*
X134602500Y-118970000D02*
X134997500Y-118970000D01*
G75*
G02*
X135170000Y-119142500I0J-172500D01*
G01*
X135170000Y-119487500D01*
G75*
G02*
X134997500Y-119660000I-172500J0D01*
G01*
X134602500Y-119660000D01*
G75*
G02*
X134430000Y-119487500I0J172500D01*
G01*
X134430000Y-119142500D01*
G75*
G02*
X134602500Y-118970000I172500J0D01*
G01*
G37*
%TD*%
%TO.C,R2*%
G36*
G01*
X142302500Y-86240000D02*
X142697500Y-86240000D01*
G75*
G02*
X142870000Y-86412500I0J-172500D01*
G01*
X142870000Y-86757500D01*
G75*
G02*
X142697500Y-86930000I-172500J0D01*
G01*
X142302500Y-86930000D01*
G75*
G02*
X142130000Y-86757500I0J172500D01*
G01*
X142130000Y-86412500D01*
G75*
G02*
X142302500Y-86240000I172500J0D01*
G01*
G37*
G36*
G01*
X142302500Y-85270000D02*
X142697500Y-85270000D01*
G75*
G02*
X142870000Y-85442500I0J-172500D01*
G01*
X142870000Y-85787500D01*
G75*
G02*
X142697500Y-85960000I-172500J0D01*
G01*
X142302500Y-85960000D01*
G75*
G02*
X142130000Y-85787500I0J172500D01*
G01*
X142130000Y-85442500D01*
G75*
G02*
X142302500Y-85270000I172500J0D01*
G01*
G37*
%TD*%
%TO.C,R1*%
G36*
G01*
X159602500Y-69140000D02*
X159997500Y-69140000D01*
G75*
G02*
X160170000Y-69312500I0J-172500D01*
G01*
X160170000Y-69657500D01*
G75*
G02*
X159997500Y-69830000I-172500J0D01*
G01*
X159602500Y-69830000D01*
G75*
G02*
X159430000Y-69657500I0J172500D01*
G01*
X159430000Y-69312500D01*
G75*
G02*
X159602500Y-69140000I172500J0D01*
G01*
G37*
G36*
G01*
X159602500Y-68170000D02*
X159997500Y-68170000D01*
G75*
G02*
X160170000Y-68342500I0J-172500D01*
G01*
X160170000Y-68687500D01*
G75*
G02*
X159997500Y-68860000I-172500J0D01*
G01*
X159602500Y-68860000D01*
G75*
G02*
X159430000Y-68687500I0J172500D01*
G01*
X159430000Y-68342500D01*
G75*
G02*
X159602500Y-68170000I172500J0D01*
G01*
G37*
%TD*%
D17*
%TO.C,Q2*%
X142400000Y-124400000D03*
X144400000Y-123450000D03*
X144400000Y-125350000D03*
%TD*%
%TO.C,Q1*%
X142400000Y-120800000D03*
X144400000Y-119850000D03*
X144400000Y-121750000D03*
%TD*%
D18*
%TO.C,J5*%
X135660000Y-77600000D03*
D19*
X138200000Y-77600000D03*
%TD*%
D20*
%TO.C,J4*%
X163755000Y-120750000D03*
X163755000Y-121550000D03*
X163755000Y-126450000D03*
X163755000Y-127250000D03*
X163755000Y-127250000D03*
X163755000Y-126450000D03*
X163755000Y-121550000D03*
X163755000Y-120750000D03*
D21*
X163755000Y-125750000D03*
X163755000Y-125250000D03*
X163755000Y-124750000D03*
X163755000Y-123750000D03*
X163755000Y-123250000D03*
X163755000Y-122750000D03*
X163755000Y-122250000D03*
X163755000Y-124250000D03*
D22*
X164670000Y-119680000D03*
X164670000Y-128320000D03*
D23*
X165200000Y-126890000D03*
D24*
X168850000Y-128320000D03*
D23*
X165200000Y-121110000D03*
D24*
X168850000Y-119680000D03*
%TD*%
D18*
%TO.C,J3*%
X135600000Y-103940000D03*
D19*
X135600000Y-101400000D03*
%TD*%
D18*
%TO.C,J2*%
X168940000Y-97820000D03*
X166400000Y-97820000D03*
X168940000Y-100360000D03*
X166400000Y-100360000D03*
X168940000Y-102900000D03*
X166400000Y-102900000D03*
X168940000Y-105440000D03*
X166400000Y-105440000D03*
X168940000Y-107980000D03*
X166400000Y-107980000D03*
X168940000Y-110520000D03*
X166400000Y-110520000D03*
X168940000Y-113060000D03*
X166400000Y-113060000D03*
X168940000Y-115600000D03*
D19*
X166400000Y-115600000D03*
%TD*%
D18*
%TO.C,J1*%
X141900000Y-115400000D03*
X144440000Y-115400000D03*
X146980000Y-115400000D03*
X149520000Y-115400000D03*
X152060000Y-115400000D03*
D19*
X154600000Y-115400000D03*
%TD*%
D25*
%TO.C,D4*%
X143150000Y-104800000D03*
X145250000Y-104800000D03*
%TD*%
%TO.C,D3*%
X148650000Y-104800000D03*
X146550000Y-104800000D03*
%TD*%
%TO.C,D2*%
X145250000Y-106800000D03*
X143150000Y-106800000D03*
%TD*%
%TO.C,D1*%
G36*
G01*
X142268750Y-83480000D02*
X142831250Y-83480000D01*
G75*
G02*
X143075000Y-83723750I0J-243750D01*
G01*
X143075000Y-84211250D01*
G75*
G02*
X142831250Y-84455000I-243750J0D01*
G01*
X142268750Y-84455000D01*
G75*
G02*
X142025000Y-84211250I0J243750D01*
G01*
X142025000Y-83723750D01*
G75*
G02*
X142268750Y-83480000I243750J0D01*
G01*
G37*
G36*
G01*
X142268750Y-81905000D02*
X142831250Y-81905000D01*
G75*
G02*
X143075000Y-82148750I0J-243750D01*
G01*
X143075000Y-82636250D01*
G75*
G02*
X142831250Y-82880000I-243750J0D01*
G01*
X142268750Y-82880000D01*
G75*
G02*
X142025000Y-82636250I0J243750D01*
G01*
X142025000Y-82148750D01*
G75*
G02*
X142268750Y-81905000I243750J0D01*
G01*
G37*
%TD*%
%TO.C,C14*%
G36*
G01*
X136202500Y-69540000D02*
X136597500Y-69540000D01*
G75*
G02*
X136770000Y-69712500I0J-172500D01*
G01*
X136770000Y-70057500D01*
G75*
G02*
X136597500Y-70230000I-172500J0D01*
G01*
X136202500Y-70230000D01*
G75*
G02*
X136030000Y-70057500I0J172500D01*
G01*
X136030000Y-69712500D01*
G75*
G02*
X136202500Y-69540000I172500J0D01*
G01*
G37*
G36*
G01*
X136202500Y-68570000D02*
X136597500Y-68570000D01*
G75*
G02*
X136770000Y-68742500I0J-172500D01*
G01*
X136770000Y-69087500D01*
G75*
G02*
X136597500Y-69260000I-172500J0D01*
G01*
X136202500Y-69260000D01*
G75*
G02*
X136030000Y-69087500I0J172500D01*
G01*
X136030000Y-68742500D01*
G75*
G02*
X136202500Y-68570000I172500J0D01*
G01*
G37*
%TD*%
%TO.C,C13*%
G36*
G01*
X134260000Y-73802500D02*
X134260000Y-74197500D01*
G75*
G02*
X134087500Y-74370000I-172500J0D01*
G01*
X133742500Y-74370000D01*
G75*
G02*
X133570000Y-74197500I0J172500D01*
G01*
X133570000Y-73802500D01*
G75*
G02*
X133742500Y-73630000I172500J0D01*
G01*
X134087500Y-73630000D01*
G75*
G02*
X134260000Y-73802500I0J-172500D01*
G01*
G37*
G36*
G01*
X135230000Y-73802500D02*
X135230000Y-74197500D01*
G75*
G02*
X135057500Y-74370000I-172500J0D01*
G01*
X134712500Y-74370000D01*
G75*
G02*
X134540000Y-74197500I0J172500D01*
G01*
X134540000Y-73802500D01*
G75*
G02*
X134712500Y-73630000I172500J0D01*
G01*
X135057500Y-73630000D01*
G75*
G02*
X135230000Y-73802500I0J-172500D01*
G01*
G37*
%TD*%
%TO.C,C12*%
G36*
G01*
X134540000Y-72997500D02*
X134540000Y-72602500D01*
G75*
G02*
X134712500Y-72430000I172500J0D01*
G01*
X135057500Y-72430000D01*
G75*
G02*
X135230000Y-72602500I0J-172500D01*
G01*
X135230000Y-72997500D01*
G75*
G02*
X135057500Y-73170000I-172500J0D01*
G01*
X134712500Y-73170000D01*
G75*
G02*
X134540000Y-72997500I0J172500D01*
G01*
G37*
G36*
G01*
X133570000Y-72997500D02*
X133570000Y-72602500D01*
G75*
G02*
X133742500Y-72430000I172500J0D01*
G01*
X134087500Y-72430000D01*
G75*
G02*
X134260000Y-72602500I0J-172500D01*
G01*
X134260000Y-72997500D01*
G75*
G02*
X134087500Y-73170000I-172500J0D01*
G01*
X133742500Y-73170000D01*
G75*
G02*
X133570000Y-72997500I0J172500D01*
G01*
G37*
%TD*%
%TO.C,C11*%
G36*
G01*
X134540000Y-70597500D02*
X134540000Y-70202500D01*
G75*
G02*
X134712500Y-70030000I172500J0D01*
G01*
X135057500Y-70030000D01*
G75*
G02*
X135230000Y-70202500I0J-172500D01*
G01*
X135230000Y-70597500D01*
G75*
G02*
X135057500Y-70770000I-172500J0D01*
G01*
X134712500Y-70770000D01*
G75*
G02*
X134540000Y-70597500I0J172500D01*
G01*
G37*
G36*
G01*
X133570000Y-70597500D02*
X133570000Y-70202500D01*
G75*
G02*
X133742500Y-70030000I172500J0D01*
G01*
X134087500Y-70030000D01*
G75*
G02*
X134260000Y-70202500I0J-172500D01*
G01*
X134260000Y-70597500D01*
G75*
G02*
X134087500Y-70770000I-172500J0D01*
G01*
X133742500Y-70770000D01*
G75*
G02*
X133570000Y-70597500I0J172500D01*
G01*
G37*
%TD*%
%TO.C,C10*%
G36*
G01*
X154597500Y-127260000D02*
X154202500Y-127260000D01*
G75*
G02*
X154030000Y-127087500I0J172500D01*
G01*
X154030000Y-126742500D01*
G75*
G02*
X154202500Y-126570000I172500J0D01*
G01*
X154597500Y-126570000D01*
G75*
G02*
X154770000Y-126742500I0J-172500D01*
G01*
X154770000Y-127087500D01*
G75*
G02*
X154597500Y-127260000I-172500J0D01*
G01*
G37*
G36*
G01*
X154597500Y-128230000D02*
X154202500Y-128230000D01*
G75*
G02*
X154030000Y-128057500I0J172500D01*
G01*
X154030000Y-127712500D01*
G75*
G02*
X154202500Y-127540000I172500J0D01*
G01*
X154597500Y-127540000D01*
G75*
G02*
X154770000Y-127712500I0J-172500D01*
G01*
X154770000Y-128057500D01*
G75*
G02*
X154597500Y-128230000I-172500J0D01*
G01*
G37*
%TD*%
%TO.C,C9*%
G36*
G01*
X141600000Y-101718750D02*
X141600000Y-102681250D01*
G75*
G02*
X141331250Y-102950000I-268750J0D01*
G01*
X140793750Y-102950000D01*
G75*
G02*
X140525000Y-102681250I0J268750D01*
G01*
X140525000Y-101718750D01*
G75*
G02*
X140793750Y-101450000I268750J0D01*
G01*
X141331250Y-101450000D01*
G75*
G02*
X141600000Y-101718750I0J-268750D01*
G01*
G37*
G36*
G01*
X143475000Y-101718750D02*
X143475000Y-102681250D01*
G75*
G02*
X143206250Y-102950000I-268750J0D01*
G01*
X142668750Y-102950000D01*
G75*
G02*
X142400000Y-102681250I0J268750D01*
G01*
X142400000Y-101718750D01*
G75*
G02*
X142668750Y-101450000I268750J0D01*
G01*
X143206250Y-101450000D01*
G75*
G02*
X143475000Y-101718750I0J-268750D01*
G01*
G37*
%TD*%
%TO.C,C8*%
G36*
G01*
X157318750Y-127100000D02*
X157881250Y-127100000D01*
G75*
G02*
X158125000Y-127343750I0J-243750D01*
G01*
X158125000Y-127831250D01*
G75*
G02*
X157881250Y-128075000I-243750J0D01*
G01*
X157318750Y-128075000D01*
G75*
G02*
X157075000Y-127831250I0J243750D01*
G01*
X157075000Y-127343750D01*
G75*
G02*
X157318750Y-127100000I243750J0D01*
G01*
G37*
G36*
G01*
X157318750Y-125525000D02*
X157881250Y-125525000D01*
G75*
G02*
X158125000Y-125768750I0J-243750D01*
G01*
X158125000Y-126256250D01*
G75*
G02*
X157881250Y-126500000I-243750J0D01*
G01*
X157318750Y-126500000D01*
G75*
G02*
X157075000Y-126256250I0J243750D01*
G01*
X157075000Y-125768750D01*
G75*
G02*
X157318750Y-125525000I243750J0D01*
G01*
G37*
%TD*%
%TO.C,C7*%
G36*
G01*
X146200000Y-102681250D02*
X146200000Y-101718750D01*
G75*
G02*
X146468750Y-101450000I268750J0D01*
G01*
X147006250Y-101450000D01*
G75*
G02*
X147275000Y-101718750I0J-268750D01*
G01*
X147275000Y-102681250D01*
G75*
G02*
X147006250Y-102950000I-268750J0D01*
G01*
X146468750Y-102950000D01*
G75*
G02*
X146200000Y-102681250I0J268750D01*
G01*
G37*
G36*
G01*
X144325000Y-102681250D02*
X144325000Y-101718750D01*
G75*
G02*
X144593750Y-101450000I268750J0D01*
G01*
X145131250Y-101450000D01*
G75*
G02*
X145400000Y-101718750I0J-268750D01*
G01*
X145400000Y-102681250D01*
G75*
G02*
X145131250Y-102950000I-268750J0D01*
G01*
X144593750Y-102950000D01*
G75*
G02*
X144325000Y-102681250I0J268750D01*
G01*
G37*
%TD*%
%TO.C,C6*%
G36*
G01*
X158660000Y-103602500D02*
X158660000Y-103997500D01*
G75*
G02*
X158487500Y-104170000I-172500J0D01*
G01*
X158142500Y-104170000D01*
G75*
G02*
X157970000Y-103997500I0J172500D01*
G01*
X157970000Y-103602500D01*
G75*
G02*
X158142500Y-103430000I172500J0D01*
G01*
X158487500Y-103430000D01*
G75*
G02*
X158660000Y-103602500I0J-172500D01*
G01*
G37*
G36*
G01*
X159630000Y-103602500D02*
X159630000Y-103997500D01*
G75*
G02*
X159457500Y-104170000I-172500J0D01*
G01*
X159112500Y-104170000D01*
G75*
G02*
X158940000Y-103997500I0J172500D01*
G01*
X158940000Y-103602500D01*
G75*
G02*
X159112500Y-103430000I172500J0D01*
G01*
X159457500Y-103430000D01*
G75*
G02*
X159630000Y-103602500I0J-172500D01*
G01*
G37*
%TD*%
%TO.C,C5*%
G36*
G01*
X153060000Y-103602500D02*
X153060000Y-103997500D01*
G75*
G02*
X152887500Y-104170000I-172500J0D01*
G01*
X152542500Y-104170000D01*
G75*
G02*
X152370000Y-103997500I0J172500D01*
G01*
X152370000Y-103602500D01*
G75*
G02*
X152542500Y-103430000I172500J0D01*
G01*
X152887500Y-103430000D01*
G75*
G02*
X153060000Y-103602500I0J-172500D01*
G01*
G37*
G36*
G01*
X154030000Y-103602500D02*
X154030000Y-103997500D01*
G75*
G02*
X153857500Y-104170000I-172500J0D01*
G01*
X153512500Y-104170000D01*
G75*
G02*
X153340000Y-103997500I0J172500D01*
G01*
X153340000Y-103602500D01*
G75*
G02*
X153512500Y-103430000I172500J0D01*
G01*
X153857500Y-103430000D01*
G75*
G02*
X154030000Y-103602500I0J-172500D01*
G01*
G37*
%TD*%
%TO.C,C4*%
G36*
G01*
X134100000Y-124881250D02*
X134100000Y-124318750D01*
G75*
G02*
X134343750Y-124075000I243750J0D01*
G01*
X134831250Y-124075000D01*
G75*
G02*
X135075000Y-124318750I0J-243750D01*
G01*
X135075000Y-124881250D01*
G75*
G02*
X134831250Y-125125000I-243750J0D01*
G01*
X134343750Y-125125000D01*
G75*
G02*
X134100000Y-124881250I0J243750D01*
G01*
G37*
G36*
G01*
X132525000Y-124881250D02*
X132525000Y-124318750D01*
G75*
G02*
X132768750Y-124075000I243750J0D01*
G01*
X133256250Y-124075000D01*
G75*
G02*
X133500000Y-124318750I0J-243750D01*
G01*
X133500000Y-124881250D01*
G75*
G02*
X133256250Y-125125000I-243750J0D01*
G01*
X132768750Y-125125000D01*
G75*
G02*
X132525000Y-124881250I0J243750D01*
G01*
G37*
%TD*%
%TO.C,C3*%
G36*
G01*
X162800000Y-67881250D02*
X162800000Y-66918750D01*
G75*
G02*
X163068750Y-66650000I268750J0D01*
G01*
X163606250Y-66650000D01*
G75*
G02*
X163875000Y-66918750I0J-268750D01*
G01*
X163875000Y-67881250D01*
G75*
G02*
X163606250Y-68150000I-268750J0D01*
G01*
X163068750Y-68150000D01*
G75*
G02*
X162800000Y-67881250I0J268750D01*
G01*
G37*
G36*
G01*
X160925000Y-67881250D02*
X160925000Y-66918750D01*
G75*
G02*
X161193750Y-66650000I268750J0D01*
G01*
X161731250Y-66650000D01*
G75*
G02*
X162000000Y-66918750I0J-268750D01*
G01*
X162000000Y-67881250D01*
G75*
G02*
X161731250Y-68150000I-268750J0D01*
G01*
X161193750Y-68150000D01*
G75*
G02*
X160925000Y-67881250I0J268750D01*
G01*
G37*
%TD*%
%TO.C,C2*%
G36*
G01*
X162700000Y-69681250D02*
X162700000Y-69118750D01*
G75*
G02*
X162943750Y-68875000I243750J0D01*
G01*
X163431250Y-68875000D01*
G75*
G02*
X163675000Y-69118750I0J-243750D01*
G01*
X163675000Y-69681250D01*
G75*
G02*
X163431250Y-69925000I-243750J0D01*
G01*
X162943750Y-69925000D01*
G75*
G02*
X162700000Y-69681250I0J243750D01*
G01*
G37*
G36*
G01*
X161125000Y-69681250D02*
X161125000Y-69118750D01*
G75*
G02*
X161368750Y-68875000I243750J0D01*
G01*
X161856250Y-68875000D01*
G75*
G02*
X162100000Y-69118750I0J-243750D01*
G01*
X162100000Y-69681250D01*
G75*
G02*
X161856250Y-69925000I-243750J0D01*
G01*
X161368750Y-69925000D01*
G75*
G02*
X161125000Y-69681250I0J243750D01*
G01*
G37*
%TD*%
%TO.C,C1*%
G36*
G01*
X158797500Y-68860000D02*
X158402500Y-68860000D01*
G75*
G02*
X158230000Y-68687500I0J172500D01*
G01*
X158230000Y-68342500D01*
G75*
G02*
X158402500Y-68170000I172500J0D01*
G01*
X158797500Y-68170000D01*
G75*
G02*
X158970000Y-68342500I0J-172500D01*
G01*
X158970000Y-68687500D01*
G75*
G02*
X158797500Y-68860000I-172500J0D01*
G01*
G37*
G36*
G01*
X158797500Y-69830000D02*
X158402500Y-69830000D01*
G75*
G02*
X158230000Y-69657500I0J172500D01*
G01*
X158230000Y-69312500D01*
G75*
G02*
X158402500Y-69140000I172500J0D01*
G01*
X158797500Y-69140000D01*
G75*
G02*
X158970000Y-69312500I0J-172500D01*
G01*
X158970000Y-69657500D01*
G75*
G02*
X158797500Y-69830000I-172500J0D01*
G01*
G37*
%TD*%
M02*
