M48
; DRILL file {KiCad (5.1.6)-1} date 11/13/20 23:46:37
; FORMAT={-:-/ absolute / metric / decimal}
; #@! TF.CreationDate,2020-11-13T23:46:37+08:00
; #@! TF.GenerationSoftware,Kicad,Pcbnew,(5.1.6)-1
FMAT,2
METRIC
T1C0.350
T2C0.600
T3C1.000
T4C0.650
%
G90
G05
T1
X132.0Y-71.8
X132.0Y-74.222
X132.0Y-76.644
X132.0Y-79.067
X132.0Y-81.489
X132.0Y-83.911
X132.0Y-86.333
X132.0Y-88.756
X132.0Y-91.178
X132.0Y-93.6
X132.8Y-118.6
X132.875Y-123.725
X133.0Y-70.8
X133.0Y-129.0
X134.0Y-68.0
X134.5Y-118.7
X135.371Y-129.0
X137.085Y-69.885
X137.743Y-129.0
X138.0Y-105.0
X138.0Y-112.8
X138.6Y-88.8
X138.8Y-88.0
X139.0Y-70.8
X139.2Y-92.0
X139.6Y-75.4
X139.6Y-105.0
X139.6Y-112.8
X140.0Y-83.4
X140.114Y-129.0
X140.635Y-72.235
X141.062Y-100.337
X141.062Y-101.137
X141.2Y-105.0
X141.2Y-112.8
X142.3Y-89.7
X142.486Y-129.0
X142.55Y-80.65
X143.0Y-71.6
X143.0Y-72.4
X143.6Y-68.0
X144.1Y-67.5
X144.4Y-88.0
X144.6Y-73.8
X144.857Y-129.0
X145.1Y-74.3
X147.115Y-124.115
X147.229Y-129.0
X148.2Y-86.8
X148.2Y-92.6
X148.2Y-102.2
X148.6Y-94.6
X148.7Y-93.3
X148.8Y-96.0
X149.2Y-87.4
X149.6Y-86.6
X149.6Y-121.6
X149.6Y-129.0
X150.4Y-86.4
X151.6Y-91.4
X151.825Y-87.225
X152.0Y-110.8
X152.0Y-128.8
X152.225Y-95.8
X152.8Y-121.6
X152.8Y-122.6
X153.0Y-86.8
X153.2Y-128.2
X154.0Y-121.6
X154.0Y-122.6
X154.2Y-86.8
X154.2Y-103.8
X154.4Y-128.2
X154.6Y-78.8
X154.6Y-81.0
X154.8Y-99.8
X155.1Y-105.9
X155.4Y-91.4
X155.6Y-80.0
X156.0Y-105.7
X156.2Y-125.8
X156.6Y-78.8
X156.6Y-81.0
X156.885Y-68.515
X157.0Y-124.4
X157.485Y-68.515
X157.525Y-111.125
X157.9Y-112.6
X159.262Y-103.137
X160.7Y-95.4
X161.4Y-103.2
X161.4Y-106.6
X161.4Y-107.6
X161.475Y-105.275
X162.4Y-124.0
X163.188Y-66.013
X163.255Y-74.4
X163.255Y-91.345
X164.4Y-66.4
X164.4Y-68.4
X164.4Y-70.4
X164.4Y-72.4
X164.4Y-74.4
X164.4Y-76.086
X164.4Y-77.771
X164.4Y-79.457
X164.4Y-81.143
X164.4Y-82.829
X164.4Y-84.514
X164.4Y-86.2
X165.2Y-95.4
X165.2Y-123.4
X166.4Y-95.4
X167.6Y-95.4
X168.8Y-95.4
X170.0Y-95.4
T3
X166.4Y-97.82
X166.4Y-100.36
X166.4Y-102.9
X166.4Y-105.44
X166.4Y-107.98
X166.4Y-110.52
X166.4Y-113.06
X166.4Y-115.6
X168.94Y-97.82
X168.94Y-100.36
X168.94Y-102.9
X168.94Y-105.44
X168.94Y-107.98
X168.94Y-110.52
X168.94Y-113.06
X168.94Y-115.6
X135.6Y-101.4
X135.6Y-103.94
X141.9Y-115.4
X144.44Y-115.4
X146.98Y-115.4
X149.52Y-115.4
X152.06Y-115.4
X154.6Y-115.4
X135.66Y-77.6
X138.2Y-77.6
T4
X165.2Y-121.11
X165.2Y-126.89
T2
G00X164.12Y-119.68
M15
G01X165.22Y-119.68
M16
G05
G00X164.12Y-128.32
M15
G01X165.22Y-128.32
M16
G05
G00X168.55Y-119.68
M15
G01X169.15Y-119.68
M16
G05
G00X168.55Y-128.32
M15
G01X169.15Y-128.32
M16
G05
T0
M30
